<svg width="27" height="28" viewBox="0 0 27 28" fill="none" xmlns="http://www.w3.org/2000/svg">
<path d="M15.693 14.0001L26.193 3.51673C26.5068 3.20289 26.6832 2.77723 26.6832 2.3334C26.6832 1.88956 26.5068 1.4639 26.193 1.15006C25.8792 0.836225 25.4535 0.659912 25.0097 0.659912C24.5658 0.659912 24.1402 0.836225 23.8263 1.15006L13.343 11.6501L2.85966 1.15006C2.54582 0.836225 2.12017 0.659913 1.67633 0.659913C1.23249 0.659913 0.806837 0.836225 0.492997 1.15006C0.179158 1.4639 0.00284473 1.88956 0.00284473 2.3334C0.00284473 2.77723 0.179158 3.20289 0.492997 3.51673L10.993 14.0001L0.492997 24.4834C0.336783 24.6383 0.212793 24.8227 0.128179 25.0258C0.0435641 25.2289 0 25.4467 0 25.6667C0 25.8867 0.0435641 26.1046 0.128179 26.3077C0.212793 26.5108 0.336783 26.6951 0.492997 26.8501C0.647936 27.0063 0.832271 27.1303 1.03537 27.2149C1.23847 27.2995 1.45631 27.3431 1.67633 27.3431C1.89635 27.3431 2.11419 27.2995 2.31729 27.2149C2.52039 27.1303 2.70473 27.0063 2.85966 26.8501L13.343 16.3501L23.8263 26.8501C23.9813 27.0063 24.1656 27.1303 24.3687 27.2149C24.5718 27.2995 24.7896 27.3431 25.0097 27.3431C25.2297 27.3431 25.4475 27.2995 25.6506 27.2149C25.8537 27.1303 26.0381 27.0063 26.193 26.8501C26.3492 26.6951 26.4732 26.5108 26.5578 26.3077C26.6424 26.1046 26.686 25.8867 26.686 25.6667C26.686 25.4467 26.6424 25.2289 26.5578 25.0258C26.4732 24.8227 26.3492 24.6383 26.193 24.4834L15.693 14.0001Z" fill="#3461C1"/>
</svg>
