<svg width="92" height="2351" viewBox="0 0 92 2351" fill="none" xmlns="http://www.w3.org/2000/svg">
<path fill-rule="evenodd" clip-rule="evenodd" d="M-69.0869 8.12521L-38.2804 -23.7506L-49.3081 -34.4083L-85.4817 3.02093L-90.8489 8.57439L-85.2572 13.9017L-60.3695 37.6122L-82.4327 60.204L-87.8184 65.7187L-82.2757 71.0755L-46.9258 105.239L-36.2681 94.2118L-66.0752 65.4045L-49.2649 48.1915L-10.6262 85.0027L-33.9994 108.4L-39.5093 113.915L-33.9034 119.333L-10.1123 142.326L-49.7516 183.384L-69.4823 164.587L-38.6759 132.711L-49.7036 122.053L-85.8772 159.482L-91.2444 165.036L-85.6526 170.363L-60.4038 194.418L-83.1474 217.975L-88.4735 223.492L-82.9568 228.818L-47.9936 262.573L-37.3416 251.54L-66.7882 223.111L-49.2999 204.996L-11.0216 241.464L-34.3949 264.861L-39.9047 270.377L-34.2989 275.795L-10.365 298.926L-50.7018 339.979L-70.238 321.367L-39.4315 289.492L-50.4592 278.834L-86.6328 316.263L-92 321.817L-86.4082 327.144L-61.4514 350.92L-83.5676 373.43L-88.9863 378.945L-83.4268 384.318L-48.0769 418.482L-37.4192 407.454L-67.2095 378.663L-50.3464 361.5L-12.1867 397.855L-35.2422 421.735L-40.5655 427.249L-35.0545 432.575L-9.76933 457.012L-49.1418 497.328L-68.5752 478.814L-37.7687 446.938L-48.7964 436.28L-84.97 473.709L-90.3372 479.263L-84.7454 484.59L-59.8578 508.301L-81.921 530.892L-87.3067 536.407L-81.764 541.764L-46.4141 575.928L-35.7564 564.9L-65.5635 536.093L-48.7532 518.88L-10.1144 555.691L-33.4877 579.088L-38.9975 584.604L-33.3917 590.022L-8.84048 613.749L-48.5676 654.428L-68.0009 635.914L-37.1945 604.038L-48.2222 593.38L-84.3958 630.809L-89.763 636.363L-84.1712 641.69L-59.2836 665.401L-81.3468 687.993L-86.7324 693.507L-81.1897 698.864L-45.8399 733.028L-35.1821 722L-64.9893 693.193L-48.179 675.98L-9.54023 712.791L-32.9135 736.188L-38.4233 741.704L-32.8175 747.122L-9.1196 770.025L-48.9992 810.86L-68.4326 792.345L-37.6261 760.47L-48.6538 749.812L-84.8274 787.241L-90.1946 792.795L-84.6029 798.122L-59.7152 821.832L-81.7784 844.424L-87.1641 849.939L-81.6214 855.296L-46.2715 889.46L-35.6138 878.432L-65.4209 849.625L-48.6106 832.412L-9.97187 869.223L-33.3451 892.62L-38.855 898.136L-33.2491 903.553L-8.55326 927.421L-49.9992 969.86L-69.4326 951.345L-38.6261 919.47L-49.6538 908.812L-85.8275 946.241L-91.1946 951.795L-85.6029 957.122L-60.7152 980.832L-82.7784 1003.42L-88.1641 1008.94L-82.6214 1014.3L-47.2715 1048.46L-36.6138 1037.43L-66.4209 1008.62L-49.6106 991.412L-10.9719 1028.22L-34.3451 1051.62L-39.855 1057.14L-34.2491 1062.55L-10.0416 1085.95L-49.9953 1126.86L-69.4287 1108.35L-38.6222 1076.47L-49.6499 1065.81L-85.8235 1103.24L-91.1907 1108.79L-85.599 1114.12L-60.7113 1137.83L-82.7745 1160.42L-88.1602 1165.94L-82.6175 1171.3L-47.2676 1205.46L-36.6099 1194.43L-66.417 1165.62L-49.6067 1148.41L-10.968 1185.22L-34.3412 1208.62L-39.8511 1214.14L-34.2452 1219.55L-10.0398 1242.95L-49.9953 1283.86L-69.4287 1265.35L-38.6222 1233.47L-49.6499 1222.81L-85.8235 1260.24L-91.1907 1265.79L-85.599 1271.12L-60.7113 1294.83L-82.7745 1317.42L-88.1602 1322.94L-82.6175 1328.3L-47.2676 1362.46L-36.6099 1351.43L-66.417 1322.62L-49.6067 1305.41L-10.968 1342.22L-34.3412 1365.62L-39.8511 1371.14L-34.2452 1376.55L-10.0398 1399.95L-49.9953 1440.86L-69.4287 1422.35L-38.6222 1390.47L-49.6499 1379.81L-85.8235 1417.24L-91.1907 1422.79L-85.599 1428.12L-60.7113 1451.83L-82.7745 1474.42L-88.1602 1479.94L-82.6175 1485.3L-47.2676 1519.46L-36.6099 1508.43L-66.417 1479.62L-49.6067 1462.41L-10.968 1499.22L-34.3412 1522.62L-39.8511 1528.14L-34.2452 1533.55L-10.5423 1556.46L-49.9953 1596.86L-69.4287 1578.35L-38.6222 1546.47L-49.6499 1535.81L-85.8235 1573.24L-91.1907 1578.79L-85.599 1584.12L-60.7113 1607.83L-82.7745 1630.42L-88.1602 1635.94L-82.6175 1641.3L-47.2676 1675.46L-36.6099 1664.43L-66.417 1635.62L-49.6067 1618.41L-10.968 1655.22L-34.3413 1678.62L-39.8511 1684.14L-34.2452 1689.55L-10.0391 1712.95L-49.9943 1753.86L-69.4277 1735.35L-38.6212 1703.47L-49.6489 1692.81L-85.8226 1730.24L-91.1897 1735.79L-85.598 1741.12L-60.7103 1764.83L-82.7736 1787.42L-88.1592 1792.94L-82.6165 1798.3L-47.2667 1832.46L-36.6089 1821.43L-66.416 1792.62L-49.6057 1775.41L-10.967 1812.22L-34.3403 1835.62L-39.8501 1841.14L-34.2442 1846.55L-10.5412 1869.46L-49.9943 1909.86L-69.4277 1891.35L-38.6212 1859.47L-49.6489 1848.81L-85.8226 1886.24L-91.1897 1891.79L-85.598 1897.12L-60.7103 1920.83L-82.7736 1943.42L-88.1592 1948.94L-82.6165 1954.3L-47.2667 1988.46L-36.6089 1977.43L-66.416 1948.62L-49.6058 1931.41L-10.967 1968.22L-34.3403 1991.62L-39.8501 1997.14L-34.2442 2002.55L-10.0378 2025.95L-49.9924 2066.86L-69.4258 2048.35L-38.6193 2016.47L-49.647 2005.81L-85.8206 2043.24L-91.1878 2048.79L-85.596 2054.12L-60.7084 2077.83L-82.7716 2100.42L-88.1573 2105.94L-82.6145 2111.3L-47.2647 2145.46L-36.6069 2134.43L-66.4141 2105.62L-49.6038 2088.41L-10.965 2125.22L-34.3383 2148.62L-39.8481 2154.14L-34.2423 2159.55L-10.0378 2182.95L-49.9943 2223.86L-69.4277 2205.35L-38.6212 2173.47L-49.6489 2162.81L-85.8226 2200.24L-91.1897 2205.79L-85.598 2211.12L-60.7103 2234.83L-82.7736 2257.42L-88.1592 2262.94L-82.6165 2268.3L-47.2667 2302.46L-36.6089 2291.43L-66.416 2262.62L-49.6057 2245.41L-10.967 2282.22L-34.3403 2305.62L-39.8501 2311.14L-34.2442 2316.55L-4.61275 2345.19L0.901102 2350.52L6.22997 2345.01L34.8674 2315.37L40.2346 2309.82L34.6429 2304.49L10.9817 2281.95L50.0887 2242.8L67.8539 2260.3L39.4013 2290.18L50.5077 2300.75L84.1605 2265.41L89.3609 2259.95L83.9872 2254.66L60.9278 2231.95L84.5891 2208.27L90.0219 2202.83L84.5702 2197.41L48.1632 2161.22L37.3512 2172.1L68.3065 2202.87L49.9993 2221.19L11.1366 2182.93L34.8694 2158.37L40.2366 2152.82L34.6448 2147.49L10.9836 2124.95L50.0907 2085.8L67.8558 2103.3L39.4033 2133.18L50.5096 2143.75L84.1625 2108.41L89.3628 2102.95L83.9892 2097.66L60.9297 2074.95L84.5911 2051.27L90.0238 2045.83L84.5721 2040.41L48.1652 2004.22L37.3531 2015.1L68.3085 2045.87L50.0012 2064.19L11.1365 2025.93L34.8674 2001.37L40.2346 1995.82L34.6429 1990.49L10.9817 1967.95L50.0887 1928.8L67.8539 1946.3L39.4013 1976.18L50.5077 1986.75L84.1605 1951.41L89.3609 1945.95L83.9872 1940.66L60.9278 1917.95L84.5891 1894.27L90.0219 1888.83L84.5702 1883.41L48.1632 1847.22L37.3512 1858.1L68.3065 1888.87L49.9993 1907.19L11.6308 1869.42L34.8674 1845.37L40.2346 1839.82L34.6429 1834.49L10.9817 1811.95L50.0887 1772.8L67.8539 1790.3L39.4013 1820.18L50.5077 1830.75L84.1605 1795.41L89.3609 1789.95L83.9872 1784.66L60.9278 1761.95L84.5891 1738.27L90.0219 1732.83L84.5702 1727.41L48.1632 1691.22L37.3512 1702.1L68.3065 1732.87L49.9993 1751.19L11.135 1712.93L34.8665 1688.37L40.2336 1682.82L34.6419 1677.49L10.9807 1654.95L50.0878 1615.8L67.8529 1633.3L39.4004 1663.18L50.5067 1673.75L84.1596 1638.41L89.3599 1632.95L83.9862 1627.66L60.9268 1604.95L84.5881 1581.27L90.0209 1575.83L84.5692 1570.41L48.1622 1534.22L37.3502 1545.1L68.3055 1575.87L49.9983 1594.19L11.6299 1556.42L34.8665 1532.37L40.2336 1526.82L34.6419 1521.49L10.9807 1498.95L50.0878 1459.8L67.8529 1477.3L39.4004 1507.18L50.5067 1517.75L84.1596 1482.41L89.3599 1476.95L83.9863 1471.66L60.9268 1448.95L84.5882 1425.27L90.0209 1419.83L84.5692 1414.41L48.1622 1378.22L37.3502 1389.1L68.3055 1419.87L49.9983 1438.19L11.1346 1399.93L34.8665 1375.37L40.2336 1369.82L34.6419 1364.49L10.9807 1341.95L50.0878 1302.8L67.8529 1320.3L39.4004 1350.18L50.5067 1360.75L84.1596 1325.41L89.3599 1319.95L83.9863 1314.66L60.9268 1291.95L84.5882 1268.27L90.0209 1262.83L84.5692 1257.41L48.1622 1221.22L37.3502 1232.1L68.3055 1262.87L49.9983 1281.19L11.1346 1242.93L34.8665 1218.37L40.2336 1212.82L34.6419 1207.49L10.9807 1184.95L50.0878 1145.8L67.8529 1163.3L39.4004 1193.18L50.5067 1203.75L84.1596 1168.41L89.3599 1162.95L83.9863 1157.66L60.9268 1134.95L84.5882 1111.27L90.0209 1105.83L84.5692 1100.41L48.1622 1064.22L37.3502 1075.1L68.3056 1105.87L49.9983 1124.19L11.1325 1085.93L34.8626 1061.37L40.2297 1055.82L34.638 1050.49L10.9768 1027.95L50.0839 988.805L67.849 1006.3L39.3965 1036.18L50.5028 1046.75L84.1557 1011.41L89.356 1005.95L83.9824 1000.66L60.9229 977.954L84.5842 954.269L90.017 948.831L84.5653 943.411L48.1583 907.22L37.3463 918.097L68.3017 948.868L49.9944 967.194L10.6526 928.459L35.8626 902.374L41.2297 896.821L35.638 891.494L11.9768 868.952L51.0839 829.805L68.849 847.296L40.3965 877.176L51.5028 887.751L85.1557 852.41L90.356 846.949L84.9824 841.658L61.9229 818.954L85.5842 795.269L91.017 789.831L85.5653 784.411L49.1583 748.22L38.3463 759.097L69.3017 789.868L50.9944 808.194L12.6333 770.425L36.2942 745.943L41.6614 740.389L36.0696 735.062L12.4084 712.52L51.5155 673.373L69.2806 690.864L40.8281 720.744L51.9344 731.32L85.5873 695.979L90.7877 690.517L85.414 685.227L62.3546 662.523L86.0159 638.837L91.4486 633.399L85.997 627.98L49.59 591.789L38.778 602.665L69.7333 633.437L51.426 651.763L12.2185 613.16L35.72 588.843L41.0872 583.289L35.4954 577.962L11.8342 555.42L50.9413 516.273L68.7064 533.764L40.2539 563.644L51.3602 574.22L85.0131 538.879L90.2134 533.417L84.8398 528.126L61.7803 505.423L85.4417 481.737L90.8744 476.299L85.4227 470.88L49.0158 434.688L38.2037 445.565L69.1591 476.337L50.8518 494.663L10.915 455.342L34.0572 431.396L39.4244 425.843L33.8326 420.516L9.56947 397.4L48.5749 356.999L67.2035 374.983L39.0416 404.153L50.0749 414.805L83.5628 380.119L88.8888 374.602L83.3722 369.276L59.227 345.965L82.5136 321.845L87.8396 316.329L82.3229 311.003L47.0757 276.973L36.4237 288.007L66.1543 316.71L48.1937 335.313L10.9251 299.332L34.8128 274.616L40.18 269.062L34.5882 263.735L10.927 241.193L50.0341 202.046L67.7992 219.537L39.3467 249.417L50.4531 259.993L84.1059 224.652L89.3063 219.19L83.9326 213.899L60.8732 191.196L84.5345 167.51L89.9672 162.072L84.5156 156.653L48.1086 120.461L37.2966 131.338L68.2519 162.11L49.9446 180.436L11.5503 142.633L35.2083 118.154L40.5754 112.601L34.9837 107.273L11.3225 84.7313L50.4296 45.5843L68.1947 63.0755L39.7422 92.9554L50.8485 103.531L84.5014 68.1901L89.7017 62.7288L84.3281 57.4381L61.2686 34.7342L84.93 11.0487L90.3627 5.61041L84.911 0.191072L48.504 -36L37.692 -25.1235L68.6474 5.64825L50.3401 23.9742L1.12581 -24.4812L0.770891 -24.1207L0.334872 -24.5465L-49.6535 26.6394L-69.0869 8.12521ZM0.486681 1880.12L0.901095 1880.52L0.972559 1880.45L39.1602 1918.04L-0.125181 1957.37L-38.8897 1920.44L0.486681 1880.12ZM0.485583 1567.12L0.900126 1567.52L0.971705 1567.45L39.1592 1605.04L-0.12615 1644.37L-38.8907 1607.44L0.485583 1567.12ZM-38.5489 37.2188L0.215655 74.1498L39.501 34.8243L0.903101 -3.17843L-38.5489 37.2188ZM0.480677 95.5842L-17.6398 113.723L0.871988 131.614L18.8134 113.05L0.480677 95.5842ZM-0.179792 230.611L-38.6476 193.963L0.568674 153.343L39.1056 191.286L-0.179792 230.611ZM-18.0352 270.185L0.0852377 252.046L18.418 269.511L0.476542 288.075L-18.0352 270.185ZM0.727373 544.838L-38.0372 507.907L1.41482 467.51L40.0128 505.513L0.727373 544.838ZM-17.1281 584.412L0.992396 566.273L19.3251 583.738L1.38371 602.302L-17.1281 584.412ZM0.0789282 310.178L37.5417 346.347L-1.53449 386.821L-39.5968 350.559L0.0789282 310.178ZM-18.8858 426.874L-1.08278 408.434L17.6623 426.292L-0.279096 444.856L-18.8858 426.874ZM0.424891 487.901L18.8044 505.664L1.75196 523.308L-16.6275 505.545L0.424891 487.901ZM1.3016 701.938L-37.463 665.007L1.98904 624.61L40.587 662.613L1.3016 701.938ZM-16.5539 741.512L1.56662 723.373L19.8993 740.838L1.95793 759.403L-16.5539 741.512ZM0.999041 645.001L19.3785 662.764L2.32612 680.408L-16.0534 662.645L0.999041 645.001ZM0.869959 858.37L-37.8946 821.439L1.5574 781.042L40.1553 819.045L0.869959 858.37ZM-16.9855 897.943L1.13498 879.804L19.4677 897.27L1.52629 915.834L-16.9855 897.943ZM0.5674 801.433L18.9469 819.196L1.89448 836.84L-16.485 819.077L0.5674 801.433ZM-0.130041 1017.37L-38.8946 980.439L0.557398 940.042L39.1553 978.044L-0.130041 1017.37ZM-17.9855 1056.94L0.134981 1038.8L18.4677 1056.27L0.526285 1074.83L-17.9855 1056.94ZM-0.4326 960.433L17.9469 978.196L0.89448 995.84L-17.485 978.077L-0.4326 960.433ZM-0.126135 1174.37L-38.8907 1137.44L0.561304 1097.04L39.1592 1135.04L-0.126135 1174.37ZM-17.9816 1213.94L0.138888 1195.8L18.4716 1213.27L0.530192 1231.83L-17.9816 1213.94ZM-0.428694 1117.43L17.9508 1135.2L0.898386 1152.84L-17.4811 1135.08L-0.428694 1117.43ZM-0.126142 1331.37L-38.8907 1294.44L0.561304 1254.04L39.1592 1292.04L-0.126142 1331.37ZM-17.9816 1370.94L0.13888 1352.8L18.4716 1370.27L0.530192 1388.83L-17.9816 1370.94ZM-0.428694 1274.43L17.9508 1292.2L0.898379 1309.84L-17.4811 1292.08L-0.428694 1274.43ZM-0.126142 1488.37L-38.8907 1451.44L0.561304 1411.04L39.1592 1449.04L-0.126142 1488.37ZM-17.9816 1527.94L0.13888 1509.8L18.4716 1527.27L0.530192 1545.83L-17.9816 1527.94ZM-0.428694 1431.43L17.9508 1449.2L0.898379 1466.84L-17.4811 1449.08L-0.428694 1431.43ZM-17.9816 1683.94L0.13888 1665.8L18.4716 1683.27L0.530184 1701.83L-17.9816 1683.94ZM-38.8897 1764.44L-0.125173 1801.37L39.1602 1762.04L0.562266 1724.04L-38.8897 1764.44ZM0.139857 1822.8L-17.9806 1840.94L0.531161 1858.83L18.4726 1840.27L0.139857 1822.8ZM-17.9806 1996.94L0.139849 1978.8L18.4726 1996.27L0.531161 2014.83L-17.9806 1996.94ZM-38.8878 2077.44L-0.123228 2114.37L39.1622 2075.04L0.564219 2037.04L-38.8878 2077.44ZM0.141802 2135.8L-17.9787 2153.94L0.533114 2171.83L18.4745 2153.27L0.141802 2135.8ZM-0.125173 2271.37L-38.8897 2234.44L0.562266 2194.04L39.1602 2232.04L-0.125173 2271.37ZM-17.9806 2310.94L0.139857 2292.8L18.4726 2310.27L0.531161 2328.83L-17.9806 2310.94ZM-0.428709 1587.43L17.9508 1605.2L0.898371 1622.84L-17.4811 1605.08L-0.428709 1587.43ZM17.898 191.437L-0.481443 173.674L-17.5339 191.319L0.845629 209.081L17.898 191.437ZM-0.0859888 17.2126L18.2935 34.9755L1.24108 52.6198L-17.1384 34.8569L-0.0859888 17.2126ZM17.1598 349.24L-1.21972 331.477L-18.2721 349.121L0.107348 366.884L17.1598 349.24Z" fill="#CEDFFF"/>
</svg>
