<svg width="327" height="158" viewBox="0 0 327 158" fill="none" xmlns="http://www.w3.org/2000/svg">
<path fill-rule="evenodd" clip-rule="evenodd" d="M-28.2367 266.584L-28.2367 302.339L-40.6063 302.339L-40.6063 260.355V254.126L-34.3772 254.17L-6.6528 254.369L-6.78578 228.899L-6.81824 222.682L-0.60103 222.682L39.0506 222.682L39.0506 235.052L5.61618 235.052L5.7175 254.458L48.7604 254.766L48.319 228.095L48.215 221.808L54.503 221.808L81.1223 221.808L80.882 175.774L59.2335 175.619L59.2335 211.374L46.8639 211.374L46.8639 169.39L46.8639 163.16L53.093 163.205L80.8174 163.404L80.6844 137.934L80.652 131.717L86.8692 131.717L126.521 131.717L126.521 144.087L93.0864 144.087L93.1877 163.492L136.231 163.8L135.789 137.129L135.685 130.842L141.973 130.842L168.819 130.842L168.436 84.422L146.674 84.2662L146.674 120.021L134.304 120.021L134.304 78.0369L134.304 71.8076L140.533 71.8522L168.334 72.0513L168.125 46.5999L168.073 40.364L174.309 40.3641L213.961 40.364L213.961 52.7337L180.545 52.7337L180.705 72.1399L223.671 72.4475L223.229 45.7765L223.125 39.4894L229.413 39.4894L257.776 39.4894L257.538 -5.9615L235.89 -6.11651L235.89 29.6383L223.52 29.6383L223.52 -12.3458L223.52 -18.5751L229.749 -18.5305L257.474 -18.332L257.341 -43.8015L257.308 -50.0187L263.525 -50.0187L303.177 -50.0187L303.177 -37.649L269.743 -37.649L269.844 -18.2434L312.887 -17.9352L312.446 -44.6061L312.341 -50.8933L318.63 -50.8933L351.867 -50.8933L358.052 -50.8933V-44.7085L358.052 -11.4711L358.052 -5.24183L351.823 -5.28643L325.464 -5.47516L326.203 39.1494L346.31 38.9627L346.557 5.68489L358.926 5.77652L358.635 45.1366L358.59 51.2188L352.507 51.2753L326.408 51.5177L326.854 78.5173L326.957 84.7166L320.758 84.8039L279.357 85.387L279.182 73.0186L314.384 72.5228L314.038 51.6326L268.835 52.0525L268.835 78.9116V85.1409L262.606 85.0963L236.248 84.9076L236.987 129.532L257.094 129.345L257.341 96.0676L269.71 96.1592L269.418 135.519L269.373 141.602L263.291 141.658L237.191 141.9L237.638 168.9L237.741 175.099L231.541 175.187L190.14 175.77L189.966 163.401L225.168 162.905L224.822 142.015L181.395 142.419L181.395 170.264V176.494L175.166 176.449L148.808 176.26L149.547 220.885L169.654 220.698L169.901 187.42L182.27 187.512L181.978 226.872L181.933 232.954L175.851 233.011L149.751 233.253L150.198 260.253L150.301 266.452L144.101 266.539L102.7 267.123L102.526 254.754L137.728 254.258L137.382 233.368L93.9252 233.772L93.9253 261.23L93.9252 267.459L87.6961 267.415L61.338 267.226L62.0764 311.85L82.1839 311.664L82.4304 278.386L94.7998 278.477L94.5082 317.837L94.4631 323.92L88.381 323.976L62.2811 324.219L62.7279 351.218L62.8305 357.418L56.631 357.505L15.2301 358.088L15.0559 345.719L50.2574 345.224L49.9117 324.334L-5.79158 324.851L-5.79537 324.443L-6.28695 324.445L-6.58822 266.739L-28.2367 266.584ZM5.78208 266.828L48.9651 267.137L49.707 311.965L6.01986 312.371L5.78208 266.828ZM61.1332 254.854L60.7911 234.177H81.5556V255.001L61.1332 254.854ZM136.435 176.172L93.2523 175.863L93.4901 221.406L137.177 221L136.435 176.172ZM148.261 143.212L148.603 163.889L169.026 164.035V143.212L148.261 143.212ZM313.092 -5.56375L269.909 -5.87293L270.146 39.6701L313.833 39.2643L313.092 -5.56375ZM324.918 -38.5237L325.26 -17.8466L345.682 -17.7004L345.682 -38.5236L324.918 -38.5237ZM223.875 84.8189L180.807 84.5106L181.183 130.05L224.617 129.647L223.875 84.8189ZM235.701 51.859L236.043 72.5361L256.466 72.6823L256.466 51.859L235.701 51.859ZM281.002 27.2889H301.618L301.618 7.49741L281.002 7.4974L281.002 27.2889ZM124.962 209.024H104.346L104.346 189.233L124.962 189.233L124.962 209.024ZM16.8752 299.99L37.4914 299.99L37.4914 280.198L16.8752 280.198L16.8752 299.99ZM212.985 117.088L192.369 117.088L192.369 97.2968L212.985 97.2968V117.088Z" fill="#D4E7FD"/>
<path d="M205.051 38.9013C205.121 38.9564 205.203 39.0714 205.297 39.2463C205.555 39.7225 205.457 41.0312 205.434 41.5958C205.432 41.6405 205.42 41.6839 205.399 41.7233C205.378 41.7626 205.349 41.7969 205.314 41.8239C203.952 42.8789 203.641 44.1325 204.38 45.5848C204.411 45.6476 204.645 45.9441 205.082 46.4745C205.569 47.0656 205.744 47.8859 205.606 48.9352C205.423 53.2863 205.754 57.3894 206.6 61.2445C207.087 63.4609 208.093 65.4179 209.617 67.1154L212.115 68.9631C215.954 70.7509 220.693 70.8906 224.761 70.1977C225.944 69.9953 227.053 69.5248 228.173 69.0543L230.98 67.0184C234.057 63.4885 235.166 59.0831 235.513 54.6863C235.629 53.1903 235.712 51.2619 235.762 48.901C235.735 47.9258 235.755 47.1217 235.822 46.4887C235.888 45.8586 236.418 45.5763 236.644 45.1343C237.383 43.7067 237.137 42.4588 235.905 41.3905C235.871 41.3607 235.847 41.3207 235.836 41.2762C235.826 41.2317 235.83 41.1849 235.848 41.1424L236.71 39.118C237.037 36.6164 237.18 34.1072 237.14 31.5904C237.109 29.7332 236.886 28.1431 236.47 26.8201C234.696 21.2172 230.425 17.7243 224.572 16.4184C223.411 16.1598 222.423 15.8956 221.609 15.6257C219.765 15.0126 217.324 14.5279 215.848 13.2134C215.834 13.2011 215.815 13.1943 215.796 13.1944C215.777 13.1944 215.759 13.2012 215.744 13.2136C215.729 13.226 215.72 13.2431 215.717 13.2619C215.714 13.2807 215.718 13.2999 215.728 13.3161L216.908 15.1267C216.918 15.1403 216.923 15.1565 216.923 15.1732C216.923 15.1899 216.918 15.2061 216.908 15.2196C216.898 15.2332 216.884 15.2433 216.868 15.2486C216.853 15.2539 216.835 15.2542 216.819 15.2493C214.302 14.5688 212.029 13.4121 210.001 11.7792C209.979 11.7614 209.952 11.7497 209.924 11.7454C209.895 11.7411 209.866 11.7443 209.839 11.7547C209.813 11.7651 209.789 11.7823 209.771 11.8047C209.753 11.827 209.742 11.8536 209.737 11.8819C209.407 13.9196 209.254 15.9707 209.279 18.0351C209.28 18.0529 209.275 18.0706 209.265 18.0853C209.255 18.1 209.24 18.1109 209.223 18.1161C209.205 18.1214 209.187 18.1207 209.17 18.1143C209.153 18.1079 209.139 18.0961 209.13 18.0807L208.652 17.3279C208.592 17.2367 208.549 17.2433 208.52 17.3479L207.176 22.0298C207.173 22.0435 207.165 22.0554 207.153 22.0634C207.142 22.0714 207.128 22.0751 207.114 22.0737C207.099 22.0724 207.086 22.0661 207.075 22.056C207.065 22.0459 207.058 22.0326 207.056 22.0184L206.97 21.3141C206.924 20.9473 206.84 20.9387 206.718 21.2885C206.208 22.7446 205.765 24.2311 205.389 25.748C204.592 28.9843 204.535 32.7851 204.819 35.9416C204.95 37.4129 205.028 38.3994 205.051 38.9013ZM206.523 40.7461C206.651 39.9876 206.965 38.7682 207.466 37.0878C208.606 33.2556 211.511 29.1439 215.997 29.891C217.341 30.1134 219.094 31.08 220.421 31.3081C221.924 31.5666 223.337 31.3689 224.661 30.715C225.428 30.3349 225.976 30.1124 226.302 30.0478C232.026 28.8959 234.444 35.7448 234.842 40.0732C234.915 40.8639 234.848 41.7155 234.642 42.628C233.82 46.2321 232.675 49.7316 231.207 53.1267C230.654 54.4041 229.929 55.2937 228.477 55.02C227.785 54.8907 226.412 54.5419 224.357 53.9735C221.714 53.2436 218.922 53.3215 215.983 54.2073C213.522 54.9487 210.591 56.0265 209.339 53.5971C207.362 49.7649 206.472 44.9604 206.073 40.6976C206.072 40.6762 206.079 40.6551 206.091 40.6376C206.104 40.6201 206.122 40.6073 206.143 40.6011C206.163 40.5949 206.185 40.5957 206.205 40.6034C206.226 40.611 206.243 40.6251 206.254 40.6434L206.325 40.7803C206.423 40.9647 206.489 40.9533 206.523 40.7461ZM235.854 41.995C235.853 41.9702 235.861 41.9459 235.875 41.9257C235.889 41.9054 235.91 41.8902 235.933 41.8823C235.957 41.8744 235.983 41.8741 236.006 41.8815C236.03 41.889 236.051 41.9037 236.066 41.9237C237.017 43.1479 236.984 44.3531 235.968 45.5392C235.957 45.5513 235.943 45.5599 235.928 45.5638C235.912 45.5678 235.896 45.5669 235.88 45.5614C235.865 45.5558 235.852 45.5458 235.843 45.5327C235.833 45.5196 235.828 45.504 235.828 45.4879L235.854 41.995ZM205.417 46.3376C204.091 45.2769 203.862 43.2923 205.331 42.2231C205.423 42.1566 205.47 42.1794 205.472 42.2915L205.54 46.2777C205.542 46.3861 205.501 46.406 205.417 46.3376ZM215.57 56.9332C215.57 56.3123 216.033 55.7169 216.856 55.2779C217.679 54.8389 218.795 54.5923 219.959 54.5923C221.123 54.5923 222.24 54.8389 223.063 55.2779C223.886 55.7169 224.348 56.3123 224.348 56.9332C224.348 57.2406 224.235 57.545 224.014 57.8291C223.794 58.1131 223.47 58.3711 223.063 58.5885C222.655 58.8059 222.171 58.9783 221.639 59.096C221.106 59.2136 220.536 59.2742 219.959 59.2742C218.795 59.2742 217.679 59.0275 216.856 58.5885C216.033 58.1495 215.57 57.5541 215.57 56.9332Z" fill="#B54708"/>
<path d="M206.325 40.7803L206.254 40.6435C206.243 40.6251 206.226 40.611 206.205 40.6034C206.185 40.5957 206.163 40.5949 206.143 40.6011C206.122 40.6073 206.104 40.6202 206.091 40.6376C206.079 40.6551 206.072 40.6762 206.073 40.6976C206.472 44.9604 207.362 49.7649 209.339 53.5971C210.591 56.0265 213.522 54.9487 215.983 54.2073C218.922 53.3215 221.714 53.2436 224.357 53.9735C226.412 54.5419 227.785 54.8907 228.477 55.02C229.929 55.2937 230.654 54.4041 231.207 53.1267C232.675 49.7317 233.82 46.2321 234.642 42.628C234.848 41.7156 234.915 40.864 234.842 40.0732C234.444 35.7448 232.026 28.8959 226.302 30.0478C225.976 30.1125 225.428 30.3349 224.661 30.715C223.337 31.369 221.924 31.5667 220.421 31.3081C219.094 31.08 217.341 30.1134 215.997 29.891C211.511 29.144 208.606 33.2556 207.466 37.0878C206.965 38.7682 206.651 39.9876 206.523 40.7461C206.489 40.9533 206.423 40.9647 206.325 40.7803ZM229.717 40.9856C228.21 40.6701 226.692 40.5874 225.162 40.7375C225.051 40.749 224.983 40.7005 224.958 40.5921L224.893 40.2956C224.887 40.2708 224.886 40.245 224.891 40.22C224.896 40.195 224.906 40.1712 224.92 40.1502C224.935 40.1293 224.954 40.1116 224.976 40.0983C224.998 40.0851 225.022 40.0765 225.047 40.0732C226.94 39.8337 228.805 39.9534 230.642 40.4325C230.713 40.4522 230.775 40.4956 230.817 40.5554C230.859 40.6152 230.879 40.6876 230.874 40.7605C230.868 40.8333 230.838 40.9021 230.787 40.9551C230.737 41.008 230.669 41.042 230.597 41.0512C230.346 41.0778 230.053 41.0559 229.717 40.9856ZM209.299 40.1958C210.62 39.9848 213.72 39.7567 214.894 40.3355C214.966 40.3721 215.022 40.4329 215.053 40.5069C215.083 40.581 215.087 40.6634 215.062 40.7394C215.038 40.8153 214.987 40.8799 214.919 40.9214C214.851 40.9629 214.77 40.9786 214.691 40.9657C212.922 40.652 211.147 40.6168 209.365 40.8602C209.235 40.8773 209.16 40.8221 209.139 40.6948L209.104 40.4667C209.099 40.4359 209.1 40.4045 209.108 40.3743C209.115 40.344 209.128 40.3155 209.146 40.2903C209.164 40.2652 209.187 40.2439 209.213 40.2276C209.239 40.2114 209.269 40.2006 209.299 40.1958ZM217.444 52.2684L219.53 52.2085C219.553 52.2077 219.577 52.2117 219.598 52.2202C219.62 52.2286 219.64 52.2414 219.657 52.2577C219.674 52.2741 219.687 52.2935 219.695 52.315C219.704 52.3364 219.708 52.3594 219.707 52.3825L219.704 52.468C219.701 52.6011 219.633 52.6695 219.501 52.6733L217.369 52.7389C217.285 52.7419 217.2 52.7271 217.122 52.6955C217.043 52.664 216.972 52.6163 216.913 52.5556C216.854 52.4949 216.808 52.4226 216.779 52.3431C216.749 52.2637 216.737 52.179 216.742 52.0945C216.951 48.7841 218.1 45.3596 219.071 42.2145C219.115 42.0682 219.209 42.0216 219.352 42.0748C219.474 42.1205 219.512 42.2136 219.467 42.3543C218.609 45.0554 217.877 47.788 217.269 50.5519C217.178 50.9663 217.16 51.4729 217.218 52.0717C217.231 52.2085 217.306 52.2741 217.444 52.2684ZM227.498 47.0476C227.32 47.047 227.143 46.9922 226.979 46.8865C226.815 46.7807 226.665 46.6261 226.54 46.4313C226.415 46.2365 226.315 46.0054 226.248 45.7513C226.181 45.4971 226.146 45.2248 226.147 44.95C226.148 44.6751 226.184 44.4031 226.254 44.1494C226.323 43.8957 226.424 43.6654 226.55 43.4715C226.677 43.2776 226.827 43.1239 226.992 43.0193C227.158 42.9147 227.334 42.8612 227.513 42.8618C227.691 42.8624 227.867 42.9172 228.032 43.0229C228.196 43.1287 228.345 43.2833 228.471 43.4781C228.596 43.6729 228.695 43.904 228.763 44.1581C228.83 44.4123 228.864 44.6846 228.863 44.9594C228.862 45.2342 228.826 45.5063 228.757 45.76C228.688 46.0136 228.587 46.244 228.46 46.4379C228.334 46.6318 228.183 46.7855 228.018 46.8901C227.853 46.9947 227.676 47.0482 227.498 47.0476ZM212.299 47.1673C211.938 47.1698 211.59 46.9526 211.332 46.5635C211.075 46.1744 210.927 45.6453 210.924 45.0925C210.922 44.8188 210.955 44.5475 211.022 44.2941C211.088 44.0408 211.187 43.8103 211.312 43.6159C211.437 43.4215 211.586 43.2669 211.75 43.161C211.914 43.0551 212.091 43 212.27 42.9987C212.631 42.9962 212.978 43.2134 213.236 43.6025C213.494 43.9916 213.641 44.5208 213.645 45.0735C213.647 45.3473 213.614 45.6185 213.547 45.8719C213.481 46.1252 213.382 46.3557 213.257 46.5501C213.132 46.7446 212.983 46.8991 212.819 47.005C212.654 47.1109 212.478 47.1661 212.299 47.1673Z" fill="#F1C1AE"/>
<path d="M205.05 38.9012C203.452 39.0134 202.521 39.7367 202.257 41.0711C201.772 43.5157 202.314 45.7264 203.884 47.7034C204.35 48.2907 204.924 48.7013 205.606 48.9352C205.744 47.8859 205.569 47.0656 205.082 46.4744C204.645 45.9441 204.411 45.6475 204.38 45.5848C203.641 44.1325 203.952 42.8789 205.314 41.8239C205.349 41.7969 205.378 41.7626 205.399 41.7233C205.42 41.6839 205.432 41.6404 205.434 41.5958C205.457 41.0312 205.555 39.7224 205.297 39.2463C205.203 39.0714 205.121 38.9564 205.05 38.9012Z" fill="#F1C1AE"/>
<path d="M236.71 39.1179L235.848 41.1424C235.83 41.1848 235.826 41.2316 235.836 41.2761C235.847 41.3206 235.871 41.3606 235.905 41.3904C237.137 42.4588 237.383 43.7067 236.644 45.1343C236.418 45.5762 235.888 45.8585 235.822 46.4887C235.755 47.1217 235.735 47.9257 235.762 48.9009C238.252 46.9202 239.202 44.3825 238.609 41.2878C238.399 40.191 237.766 39.4677 236.71 39.1179Z" fill="#F1C1AE"/>
<path d="M229.717 40.9856C230.053 41.0559 230.346 41.0778 230.596 41.0511C230.669 41.042 230.737 41.008 230.787 40.955C230.838 40.902 230.868 40.8333 230.874 40.7604C230.879 40.6876 230.859 40.6151 230.817 40.5553C230.775 40.4955 230.713 40.4521 230.642 40.4324C228.805 39.9534 226.94 39.8336 225.047 40.0731C225.022 40.0764 224.997 40.085 224.976 40.0983C224.954 40.1116 224.935 40.1292 224.92 40.1502C224.906 40.1711 224.896 40.1949 224.891 40.2199C224.886 40.245 224.887 40.2707 224.893 40.2955L224.958 40.5921C224.983 40.7004 225.051 40.7489 225.162 40.7375C226.692 40.5873 228.21 40.67 229.717 40.9856Z" fill="#B54708"/>
<path d="M214.894 40.3355C213.72 39.7566 210.62 39.9847 209.299 40.1957C209.269 40.2005 209.239 40.2114 209.213 40.2276C209.187 40.2438 209.164 40.2651 209.146 40.2903C209.128 40.3154 209.115 40.344 209.107 40.3742C209.1 40.4045 209.099 40.4359 209.104 40.4666L209.139 40.6947C209.16 40.8221 209.235 40.8772 209.365 40.8601C211.147 40.6168 212.922 40.652 214.691 40.9656C214.77 40.9785 214.851 40.9628 214.919 40.9213C214.987 40.8798 215.038 40.8153 215.062 40.7393C215.087 40.6633 215.083 40.5809 215.052 40.5069C215.022 40.4328 214.965 40.3721 214.894 40.3355Z" fill="#B54708"/>
<path d="M235.854 41.9949L235.828 45.4878C235.828 45.5039 235.833 45.5196 235.843 45.5327C235.852 45.5458 235.865 45.5558 235.88 45.5613C235.896 45.5669 235.912 45.5677 235.928 45.5638C235.943 45.5598 235.957 45.5512 235.968 45.5392C236.984 44.353 237.017 43.1478 236.066 41.9236C236.051 41.9037 236.03 41.8889 236.006 41.8815C235.983 41.8741 235.957 41.8743 235.933 41.8822C235.91 41.8902 235.889 41.9054 235.875 41.9256C235.861 41.9459 235.853 41.9701 235.854 41.9949Z" fill="#F1C1AE"/>
<path d="M217.218 52.0716C217.16 51.4728 217.178 50.9662 217.269 50.5518C217.877 47.7879 218.609 45.0554 219.467 42.3542C219.512 42.2135 219.474 42.1204 219.352 42.0748C219.209 42.0215 219.115 42.0681 219.071 42.2145C218.1 45.3595 216.951 48.784 216.742 52.0944C216.737 52.1789 216.749 52.2637 216.779 52.3431C216.808 52.4225 216.854 52.4949 216.913 52.5555C216.972 52.6162 217.043 52.6639 217.122 52.6955C217.2 52.727 217.285 52.7418 217.369 52.7388L219.501 52.6732C219.633 52.6694 219.7 52.601 219.704 52.4679L219.707 52.3824C219.708 52.3593 219.704 52.3364 219.695 52.3149C219.687 52.2935 219.674 52.274 219.657 52.2577C219.64 52.2414 219.62 52.2286 219.598 52.2201C219.577 52.2116 219.553 52.2077 219.53 52.2085L217.444 52.2683C217.306 52.274 217.231 52.2085 217.218 52.0716Z" fill="black"/>
<path d="M205.331 42.2231C203.861 43.2923 204.09 45.2769 205.417 46.3376C205.501 46.406 205.542 46.386 205.54 46.2777L205.471 42.2915C205.469 42.1794 205.423 42.1565 205.331 42.2231Z" fill="#F1C1AE"/>
<path d="M228.863 44.9594C228.859 46.1152 228.248 47.0501 227.498 47.0475C226.748 47.0449 226.143 46.1058 226.147 44.9499C226.151 43.7941 226.763 42.8592 227.512 42.8618C228.262 42.8644 228.867 43.8035 228.863 44.9594Z" fill="black"/>
<path d="M213.645 45.0736C213.653 46.2247 213.05 47.1621 212.299 47.1673C211.547 47.1725 210.932 46.2436 210.924 45.0925C210.915 43.9413 211.518 43.0039 212.27 42.9987C213.021 42.9935 213.637 43.9224 213.645 45.0736Z" fill="black"/>
<path d="M215.57 56.9332C215.57 57.5541 216.033 58.1495 216.856 58.5886C217.679 59.0276 218.795 59.2742 219.959 59.2742C220.536 59.2742 221.106 59.2137 221.639 59.096C222.171 58.9784 222.655 58.8059 223.063 58.5886C223.47 58.3712 223.793 58.1131 224.014 57.8291C224.235 57.5451 224.348 57.2407 224.348 56.9332C224.348 56.3124 223.886 55.717 223.063 55.2779C222.24 54.8389 221.123 54.5923 219.959 54.5923C218.795 54.5923 217.679 54.8389 216.856 55.2779C216.033 55.717 215.57 56.3124 215.57 56.9332ZM217.75 57.5891C219.489 58.2848 221.475 57.9597 222.285 56.1292C222.316 56.0626 222.368 56.0341 222.44 56.0436L222.552 56.0579C222.58 56.0611 222.607 56.0712 222.63 56.0874C222.653 56.1036 222.672 56.1254 222.685 56.1507C222.697 56.1761 222.704 56.2044 222.703 56.2329C222.702 56.2615 222.695 56.2895 222.681 56.3145C221.52 58.3124 219.844 58.837 217.653 57.8884C217.599 57.8656 217.566 57.8381 217.553 57.8058C217.537 57.7677 217.538 57.724 217.556 57.6746C217.562 57.6561 217.572 57.6392 217.586 57.6248C217.599 57.6104 217.616 57.5988 217.634 57.5908C217.652 57.5829 217.672 57.5786 217.692 57.5783C217.712 57.578 217.732 57.5816 217.75 57.5891Z" fill="#F1C1AE"/>
<path d="M222.285 56.1291C221.475 57.9596 219.489 58.2847 217.75 57.589C217.732 57.5815 217.712 57.5779 217.692 57.5782C217.672 57.5785 217.652 57.5828 217.634 57.5908C217.616 57.5987 217.599 57.6103 217.586 57.6247C217.572 57.6391 217.562 57.656 217.556 57.6745C217.538 57.7239 217.537 57.7676 217.553 57.8057C217.566 57.838 217.599 57.8655 217.653 57.8884C219.844 58.8369 221.52 58.3123 222.681 56.3144C222.695 56.2894 222.702 56.2614 222.703 56.2328C222.704 56.2043 222.697 56.176 222.685 56.1507C222.672 56.1253 222.653 56.1035 222.63 56.0873C222.607 56.0711 222.58 56.061 222.552 56.0578L222.44 56.0435C222.368 56.034 222.316 56.0625 222.285 56.1291Z" fill="black"/>
<path d="M230.98 67.0185L228.173 69.0543C226.56 76.7729 213.485 77.0467 212.115 68.9631L209.617 67.1154C203.971 67.2219 198.647 68.5496 193.645 71.0987C181.579 77.252 175.368 90.2171 174.565 103.245C174.564 103.274 174.554 103.303 174.538 103.328C174.522 103.353 174.5 103.373 174.474 103.387C174.448 103.401 174.418 103.407 174.389 103.406C174.359 103.406 174.33 103.397 174.305 103.382L166.071 98.275C166.015 98.2403 165.952 98.218 165.886 98.2097C165.82 98.2013 165.754 98.2071 165.691 98.2266C165.628 98.246 165.57 98.2788 165.52 98.3226C165.471 98.3663 165.433 98.4201 165.406 98.4803C165.198 98.9498 164.873 99.1627 164.429 99.119C164.491 99.157 164.537 99.2045 164.57 99.2616C164.593 99.3006 164.604 99.346 164.6 99.3916C164.595 99.4371 164.577 99.4804 164.547 99.5153C162.725 101.627 160.909 103.743 159.098 105.862C159.035 105.937 158.95 105.957 158.843 105.925C158.862 106.016 158.848 106.091 158.8 106.148C157.704 107.446 156.611 108.722 155.523 109.977C155.487 110.019 155.467 110.073 155.467 110.128C155.467 110.183 155.487 110.237 155.523 110.279C157.721 112.838 159.904 115.401 162.072 117.969C166.595 123.33 173.889 129.135 181.172 129.74C183.091 129.899 184.991 129.72 186.87 129.201C186.986 129.168 187.043 129.213 187.039 129.335C186.775 138.925 186.511 148.449 186.245 157.908C186.221 158.819 186.225 159.731 186.26 160.645C186.265 160.761 186.327 160.819 186.443 160.819L255.3 160.762C255.329 160.762 255.358 160.757 255.385 160.745C255.412 160.734 255.436 160.718 255.456 160.697C255.476 160.676 255.492 160.652 255.503 160.625C255.514 160.598 255.519 160.569 255.518 160.54L254.756 128.628C254.754 128.502 254.815 128.452 254.939 128.477C259.082 129.278 263.783 129.127 266.811 125.887C268.897 123.655 269.963 119.883 270.14 116.777C270.415 111.993 269.685 108.269 269.034 103.938C267.868 96.1735 264.923 87.8704 260.242 81.5147C253.834 72.8067 244.998 67.9718 233.733 67.0099C233.208 66.9662 232.291 66.969 230.98 67.0185ZM212.831 101.354C210.895 100.858 211.777 98.7968 213.419 98.7968C213.45 98.7982 213.48 98.788 213.504 98.7682C213.527 98.7485 213.543 98.7206 213.547 98.69C213.551 98.6595 213.543 98.6286 213.525 98.6035C213.507 98.5784 213.48 98.5609 213.45 98.5544C211.393 98.0203 209.346 97.4471 207.308 96.835C206.277 96.5252 205.553 96.1498 205.136 95.7088C204.477 95.0102 204.586 93.8098 205.738 93.7784C206.257 93.7632 206.969 93.8487 207.872 94.035C210.09 94.4912 212.291 95.013 214.476 95.6004C217.756 96.4815 220.352 97.0831 223.32 97.756C223.874 97.8815 224.288 97.8862 224.563 97.7703C225.718 97.2856 224.434 93.6444 223.944 91.7539C223.537 90.1942 223.655 89.0309 224.663 87.8647C224.889 87.6043 225.147 87.5187 225.44 87.6081C225.547 87.6409 225.643 87.7024 225.717 87.7859C225.791 87.8694 225.841 87.9716 225.861 88.0814C226.077 89.2581 226.495 90.3767 227.116 91.4374C228.009 92.9601 228.133 94.7051 228.754 96.2819C229.276 97.6049 229.793 98.9298 230.307 100.257C230.794 101.509 231.666 102.356 232.923 102.797C233.765 103.092 234.581 103.382 235.372 103.667C235.441 103.692 235.497 103.743 235.529 103.81C235.56 103.876 235.563 103.952 235.538 104.02L232.427 112.463C232.372 112.615 232.27 112.658 232.123 112.592C230.511 111.875 228.841 111.341 227.113 110.989C224.698 110.496 222.116 110.564 219.796 110.034C217.347 109.475 214.985 108.652 212.708 107.565C211.445 106.96 210.789 105.406 212.341 104.73C212.358 104.723 212.372 104.712 212.382 104.697C212.393 104.683 212.399 104.666 212.401 104.648C212.403 104.631 212.4 104.614 212.392 104.598C212.385 104.582 212.373 104.569 212.359 104.559C211.43 103.928 211.115 103.208 211.413 102.398C211.642 101.771 212.181 101.588 212.811 101.554C212.835 101.551 212.856 101.541 212.873 101.524C212.89 101.507 212.9 101.486 212.902 101.462C212.904 101.439 212.899 101.416 212.886 101.396C212.873 101.376 212.854 101.362 212.831 101.354ZM235.916 103.287C235.922 103.261 235.933 103.235 235.949 103.213C235.965 103.191 235.986 103.172 236.009 103.158C236.032 103.143 236.058 103.134 236.085 103.129C236.112 103.125 236.14 103.125 236.167 103.132L261.347 108.964C261.373 108.97 261.399 108.981 261.421 108.997C261.443 109.013 261.462 109.033 261.477 109.056C261.491 109.08 261.501 109.105 261.506 109.132C261.51 109.159 261.509 109.187 261.503 109.213L261.5 109.225C261.494 109.251 261.483 109.276 261.467 109.299C261.451 109.321 261.431 109.34 261.407 109.354C261.384 109.369 261.358 109.378 261.331 109.383C261.304 109.387 261.276 109.386 261.249 109.38L236.07 103.548C236.043 103.542 236.018 103.531 235.995 103.515C235.973 103.499 235.954 103.479 235.939 103.456C235.925 103.432 235.915 103.406 235.911 103.38C235.906 103.353 235.907 103.325 235.913 103.298L235.916 103.287ZM191.543 112.698C191.558 112.642 191.595 112.594 191.645 112.564C191.696 112.535 191.756 112.526 191.813 112.541L191.829 112.545C191.857 112.553 191.884 112.565 191.907 112.583C191.93 112.6 191.949 112.622 191.964 112.647C191.979 112.672 191.988 112.699 191.992 112.728C191.996 112.756 191.994 112.785 191.987 112.813L187.983 128.111C187.969 128.167 187.932 128.215 187.882 128.245C187.831 128.274 187.771 128.282 187.714 128.268L187.698 128.263C187.67 128.256 187.643 128.243 187.62 128.226C187.597 128.209 187.578 128.187 187.563 128.162C187.548 128.137 187.539 128.11 187.535 128.081C187.531 128.052 187.533 128.023 187.54 127.996L191.543 112.698ZM232.599 113.011L232.169 114.65C232.14 114.761 232.149 114.877 232.194 114.982C232.238 115.087 232.316 115.174 232.416 115.229C239.706 119.308 246.984 123.456 254.252 127.672C254.445 127.785 254.439 127.883 254.234 127.969C254.203 127.982 254.169 127.988 254.135 127.986C254.101 127.984 254.067 127.974 254.037 127.958L231.866 115.375C231.79 115.331 231.729 115.265 231.693 115.186C231.657 115.107 231.647 115.018 231.665 114.933C231.795 114.322 231.937 113.726 232.092 113.145C232.161 112.89 232.289 112.781 232.476 112.817C232.585 112.84 232.626 112.904 232.599 113.011Z" fill="#62A962"/>
<path d="M212.115 68.963C213.485 77.0466 226.56 76.7729 228.173 69.0543C227.053 69.5247 225.944 69.9952 224.761 70.1977C220.693 70.8905 215.954 70.7508 212.115 68.963Z" fill="#F1C1AE"/>
<path d="M139.127 93.6586L139.952 94.7735C140.005 94.6804 140.088 94.6385 140.198 94.648C140.309 94.6595 140.351 94.7193 140.324 94.8277L139.766 97.1686L139.213 99.6522C138.94 100.181 139.289 100.427 140.261 100.391C140.302 100.389 140.341 100.374 140.373 100.349C140.405 100.323 140.428 100.288 140.439 100.248L140.565 99.7662L140.938 97.8558L141.356 95.8998C141.362 95.8727 141.375 95.8477 141.394 95.8275C141.413 95.8073 141.438 95.7927 141.464 95.7854C141.491 95.778 141.519 95.7781 141.545 95.7857C141.572 95.7933 141.595 95.8081 141.614 95.8285C142.591 96.8949 143.464 98.3662 144.275 99.2016C148.211 103.271 154.967 101.916 158.843 105.925C158.95 105.957 159.035 105.937 159.098 105.862C160.908 103.743 162.725 101.627 164.547 99.5153C164.577 99.4804 164.595 99.4371 164.599 99.3916C164.604 99.346 164.593 99.3005 164.57 99.2615C164.537 99.2045 164.491 99.157 164.429 99.119C163.636 98.486 162.862 97.8843 162.209 97.0917C160.473 94.9874 159.197 93.4771 158.382 92.5609C157.667 91.7568 156.814 91.1998 155.82 90.89C156.858 92.6892 154.869 93.2309 153.477 93.4334C151.254 93.7613 150.73 95.11 151.199 97.1715C151.213 97.2323 151.193 97.2798 151.139 97.3141L151.079 97.3511C151.01 97.391 150.963 97.3749 150.936 97.3027C150.189 95.3257 150.724 93.9837 152.54 93.2765C152.999 93.0969 154.958 93.0598 155.514 92.3784C156.055 91.7169 155.729 91.2236 154.987 91.0097C153.789 90.659 153.276 90.5221 152.013 90.9185C151.495 91.082 150.784 91.2987 149.879 91.5686C147.005 92.424 147.326 94.9389 147.338 97.3369C147.338 97.3631 147.328 97.3884 147.309 97.4075C147.291 97.4266 147.267 97.4381 147.24 97.4395C147.21 97.4414 147.18 97.4433 147.151 97.4452C147.044 97.4566 146.988 97.4082 146.982 97.2998C146.859 94.9988 146.788 92.8631 148.721 91.6997C149.164 91.4336 149.991 91.1162 151.202 90.7474C152.104 90.4718 152.984 90.3244 153.844 90.3054L154.609 89.4785C154.668 89.4139 154.702 89.3388 154.712 89.2533C154.802 88.4682 154.514 88.0263 153.849 87.9274C152.904 87.7886 151.459 87.8837 149.515 88.2125C149.495 88.2162 149.474 88.2135 149.455 88.2049C149.436 88.1963 149.421 88.1821 149.41 88.1643C149.4 88.1466 149.395 88.1261 149.397 88.1056C149.399 88.0851 149.407 88.0657 149.42 88.05L149.939 87.4256C149.946 87.4162 149.952 87.4055 149.956 87.3942C150.228 86.2822 149.395 85.8773 148.423 85.9372C146.097 86.0826 144.307 87.2345 142.791 88.9197C142.725 88.9919 142.635 89.0385 142.538 89.0511C142.441 89.0638 142.342 89.0416 142.26 88.9887C142.177 88.9358 142.117 88.8555 142.09 88.7623C142.062 88.6692 142.069 88.5693 142.109 88.4806C142.548 87.5054 144.427 85.2272 143.06 84.2777C142.691 84.0239 142.072 84.252 141.788 84.4972C140.138 85.9229 138.955 87.6622 138.239 89.7152C137.767 91.0705 138.063 92.385 139.127 93.6586ZM147.891 88.8598C146.366 89.527 145.331 90.5915 144.785 92.0533C144.287 93.382 144.447 95.0187 144.699 96.4387C144.705 96.4757 144.701 96.5135 144.687 96.5482C144.672 96.5829 144.649 96.613 144.619 96.6354C144.493 96.7286 144.418 96.7153 144.395 96.5955C144.241 95.8276 144.152 95.0539 144.129 94.2745C144.037 91.1608 145.902 88.7857 148.985 88.0785C149.015 88.0733 149.046 88.0789 149.073 88.0944C149.099 88.1099 149.119 88.1342 149.129 88.163C149.139 88.1919 149.138 88.2233 149.127 88.2517C149.116 88.2801 149.095 88.3036 149.068 88.318C148.696 88.4986 148.303 88.6792 147.891 88.8598ZM153.798 95.6603C153.658 95.6964 153.545 95.6812 153.457 95.6147C153.428 95.5938 153.406 95.5649 153.394 95.5317C153.382 95.4985 153.38 95.4624 153.388 95.428C153.396 95.3935 153.415 95.3623 153.441 95.3382C153.467 95.3141 153.499 95.2982 153.534 95.2924C155.353 94.9864 157.062 95.2288 158.662 96.0195C158.708 96.0424 158.742 96.0718 158.763 96.1079C158.793 96.1593 158.806 96.2058 158.8 96.2477C158.796 96.2708 158.787 96.2927 158.773 96.3116C158.76 96.3305 158.741 96.3458 158.72 96.3562C158.699 96.3665 158.676 96.3716 158.652 96.3711C158.629 96.3706 158.606 96.3644 158.585 96.3532C157.19 95.6118 155.365 95.2525 153.798 95.6603Z" fill="#F1C1AE"/>
<path d="M212.811 101.554C212.181 101.588 211.642 101.771 211.413 102.398C211.115 103.208 211.43 103.928 212.359 104.559C212.373 104.569 212.385 104.582 212.392 104.598C212.4 104.614 212.402 104.631 212.401 104.648C212.399 104.666 212.393 104.683 212.382 104.697C212.372 104.712 212.358 104.723 212.341 104.73C210.789 105.406 211.445 106.96 212.708 107.565C214.985 108.652 217.347 109.475 219.796 110.034C222.116 110.564 224.698 110.496 227.113 110.989C228.841 111.341 230.511 111.875 232.123 112.592C232.27 112.658 232.372 112.615 232.427 112.463L235.538 104.02C235.563 103.952 235.56 103.876 235.529 103.81C235.497 103.743 235.441 103.692 235.372 103.667C234.581 103.382 233.765 103.092 232.923 102.797C231.666 102.356 230.794 101.509 230.307 100.257C229.793 98.9298 229.276 97.6049 228.754 96.2819C228.133 94.7051 228.009 92.9601 227.116 91.4374C226.495 90.3767 226.077 89.2581 225.861 88.0814C225.841 87.9716 225.791 87.8694 225.717 87.7859C225.643 87.7024 225.547 87.6409 225.44 87.6081C225.147 87.5187 224.889 87.6043 224.663 87.8647C223.655 89.0309 223.537 90.1943 223.944 91.7539C224.434 93.6444 225.717 97.2856 224.563 97.7703C224.288 97.8863 223.873 97.8815 223.32 97.756C220.352 97.0831 217.756 96.4815 214.476 95.6004C212.291 95.013 210.09 94.4912 207.872 94.035C206.969 93.8487 206.257 93.7632 205.738 93.7784C204.586 93.8098 204.477 95.0102 205.136 95.7088C205.553 96.1498 206.277 96.5252 207.308 96.8351C209.346 97.4471 211.393 98.0203 213.45 98.5544C213.48 98.5609 213.507 98.5784 213.525 98.6035C213.543 98.6286 213.55 98.6595 213.546 98.69C213.543 98.7206 213.527 98.7485 213.503 98.7683C213.48 98.788 213.449 98.7982 213.419 98.7968C211.777 98.7968 210.895 100.858 212.831 101.354C212.854 101.362 212.873 101.376 212.886 101.396C212.899 101.416 212.904 101.439 212.902 101.462C212.9 101.486 212.889 101.507 212.873 101.524C212.856 101.541 212.835 101.551 212.811 101.554ZM213.938 98.8406C213.95 98.7975 213.978 98.7607 214.017 98.7383C214.055 98.7159 214.102 98.7098 214.145 98.7213L218.851 99.9677C218.895 99.9792 218.932 100.007 218.954 100.046C218.977 100.084 218.983 100.13 218.971 100.174L218.967 100.19C218.955 100.233 218.927 100.27 218.888 100.292C218.85 100.315 218.803 100.321 218.76 100.309L214.054 99.063C214.01 99.0515 213.973 99.0234 213.951 98.9848C213.928 98.9462 213.922 98.9003 213.934 98.8571L213.938 98.8406ZM213.373 101.695C213.38 101.672 213.39 101.65 213.405 101.631C213.42 101.611 213.439 101.595 213.46 101.583C213.481 101.571 213.505 101.563 213.529 101.56C213.553 101.557 213.578 101.558 213.601 101.565L218.265 102.817C218.313 102.83 218.353 102.861 218.378 102.904C218.402 102.946 218.409 102.997 218.396 103.044L218.392 103.061C218.385 103.084 218.374 103.106 218.359 103.126C218.344 103.145 218.326 103.161 218.305 103.173C218.283 103.185 218.26 103.193 218.236 103.196C218.212 103.199 218.187 103.198 218.163 103.191L213.5 101.939C213.452 101.926 213.412 101.895 213.387 101.853C213.362 101.81 213.356 101.759 213.369 101.712L213.373 101.695ZM212.875 104.632C212.881 104.609 212.892 104.587 212.907 104.567C212.922 104.548 212.94 104.532 212.961 104.519C212.982 104.507 213.006 104.499 213.03 104.496C213.054 104.493 213.079 104.494 213.103 104.5L217.872 105.755C217.896 105.761 217.918 105.772 217.937 105.786C217.957 105.801 217.973 105.819 217.986 105.84C217.998 105.862 218.006 105.885 218.009 105.909C218.012 105.933 218.011 105.958 218.005 105.981L218.002 105.992C217.995 106.016 217.985 106.038 217.97 106.057C217.955 106.076 217.936 106.093 217.915 106.105C217.894 106.117 217.871 106.125 217.847 106.128C217.822 106.132 217.798 106.13 217.774 106.124L213.004 104.87C212.981 104.863 212.959 104.853 212.939 104.838C212.92 104.823 212.903 104.805 212.891 104.784C212.879 104.763 212.871 104.739 212.868 104.715C212.864 104.691 212.866 104.667 212.872 104.643L212.875 104.632Z" fill="#F1C1AE"/>
<path d="M147.891 88.8599C148.303 88.6793 148.696 88.4987 149.068 88.3181C149.095 88.3037 149.116 88.2802 149.127 88.2518C149.139 88.2234 149.139 88.1919 149.129 88.1631C149.119 88.1343 149.099 88.1099 149.073 88.0944C149.046 88.0789 149.015 88.0733 148.985 88.0786C145.902 88.7857 144.037 91.1609 144.129 94.2746C144.152 95.0539 144.241 95.8276 144.396 96.5956C144.418 96.7153 144.493 96.7286 144.619 96.6355C144.649 96.6131 144.673 96.5829 144.687 96.5482C144.701 96.5136 144.705 96.4757 144.699 96.4387C144.447 95.0188 144.287 93.3821 144.785 92.0534C145.331 90.5916 146.367 89.5271 147.891 88.8599Z" fill="black"/>
<path d="M153.844 90.3054C152.984 90.3244 152.104 90.4717 151.203 90.7474C149.992 91.1162 149.165 91.4336 148.722 91.6997C146.788 92.8631 146.859 94.9987 146.983 97.2998C146.988 97.4081 147.045 97.4566 147.152 97.4452C147.18 97.4433 147.21 97.4414 147.24 97.4395C147.267 97.438 147.292 97.4266 147.31 97.4075C147.328 97.3884 147.338 97.3631 147.338 97.3369C147.326 94.9389 147.006 92.424 149.879 91.5686C150.784 91.2986 151.496 91.0819 152.013 90.9185C153.277 90.5221 153.789 90.659 154.987 91.0097C155.729 91.2236 156.056 91.7168 155.514 92.3783C154.958 93.0598 152.999 93.0969 152.54 93.2765C150.724 93.9837 150.189 95.3257 150.936 97.3026C150.963 97.3749 151.011 97.391 151.079 97.3511L151.139 97.314C151.193 97.2798 151.213 97.2323 151.2 97.1715C150.73 95.1099 151.254 93.7613 153.477 93.4334C154.87 93.2309 156.858 92.6891 155.821 90.8899L153.844 90.3054Z" fill="black"/>
<path d="M139.127 93.6586L137.884 96.6382L139.118 96.8008L139.952 94.7734L139.127 93.6586Z" fill="black"/>
<path d="M153.798 95.6602C155.365 95.2525 157.19 95.6118 158.585 96.3531C158.606 96.3644 158.629 96.3705 158.652 96.3711C158.676 96.3716 158.699 96.3665 158.72 96.3561C158.741 96.3457 158.76 96.3305 158.774 96.3116C158.788 96.2927 158.797 96.2707 158.8 96.2476C158.806 96.2058 158.793 96.1592 158.763 96.1079C158.742 96.0718 158.708 96.0423 158.663 96.0195C157.062 95.2287 155.353 94.9864 153.535 95.2924C153.499 95.2981 153.467 95.3141 153.441 95.3382C153.415 95.3623 153.397 95.3935 153.388 95.4279C153.38 95.4623 153.382 95.4984 153.394 95.5316C153.407 95.5648 153.428 95.5937 153.457 95.6146C153.545 95.6811 153.659 95.6963 153.798 95.6602Z" fill="black"/>
<path d="M137.884 96.6383C132.297 96.4986 129.358 102.387 133.28 106.578C133.364 106.669 133.388 106.775 133.352 106.895L133.105 107.676C133.08 107.758 133.086 107.849 133.123 107.93C133.304 108.325 133.289 108.718 133.077 109.107C133.027 109.201 132.946 109.275 132.848 109.315L131.968 109.692C131.947 109.701 131.928 109.714 131.912 109.731C131.896 109.748 131.883 109.768 131.875 109.789C131.866 109.811 131.863 109.834 131.863 109.858C131.864 109.881 131.87 109.904 131.879 109.926L132.234 110.695C132.245 110.717 132.25 110.74 132.251 110.764C132.252 110.787 132.248 110.811 132.239 110.833C132.23 110.855 132.217 110.876 132.2 110.893C132.183 110.91 132.162 110.923 132.14 110.932L131.478 111.206C131.45 111.218 131.424 111.236 131.403 111.258C131.382 111.281 131.367 111.308 131.357 111.337C131.348 111.367 131.345 111.398 131.349 111.428C131.353 111.459 131.364 111.488 131.381 111.514C131.746 112.078 131.84 112.683 131.664 113.327C131.654 113.366 131.635 113.401 131.609 113.431C131.583 113.461 131.551 113.485 131.515 113.501L130.57 113.932C130.525 113.952 130.489 113.989 130.468 114.034C130.448 114.079 130.444 114.13 130.458 114.177L130.642 114.81C130.657 114.861 130.653 114.916 130.629 114.965C130.606 115.014 130.566 115.053 130.516 115.075L130.143 115.241C130.117 115.252 130.094 115.269 130.075 115.29C130.056 115.311 130.042 115.335 130.033 115.362C130.024 115.389 130.022 115.417 130.025 115.445C130.028 115.472 130.037 115.499 130.051 115.523C130.464 116.213 130.511 116.937 130.192 117.696C130.159 117.775 130.157 117.864 130.186 117.946L131.215 120.764C131.223 120.786 131.236 120.807 131.254 120.823C131.271 120.84 131.292 120.852 131.316 120.859C131.339 120.866 131.363 120.868 131.388 120.864C131.412 120.861 131.435 120.852 131.455 120.838L134.105 118.999C134.192 118.939 134.258 118.852 134.291 118.751L137.153 110.345C137.176 110.276 137.22 110.217 137.279 110.175C137.338 110.133 137.408 110.11 137.481 110.11C137.554 110.11 137.625 110.133 137.684 110.175C137.743 110.217 137.788 110.276 137.812 110.345C138.053 111.046 137.915 111.637 137.4 112.118C137.362 112.154 137.334 112.198 137.317 112.247C137.301 112.296 137.297 112.348 137.306 112.399C137.315 112.449 137.336 112.497 137.368 112.537C137.4 112.577 137.441 112.609 137.489 112.629C137.752 112.741 137.936 112.925 138.039 113.182C138.048 113.207 138.051 113.235 138.048 113.261C138.044 113.287 138.034 113.312 138.019 113.333L137.658 113.826C137.631 113.862 137.619 113.906 137.622 113.95C137.626 113.994 137.646 114.035 137.678 114.066C138.11 114.479 138.887 114.91 138.824 115.611C138.784 116.019 138.411 116.355 138.173 116.686C138.159 116.706 138.148 116.729 138.143 116.753C138.137 116.778 138.136 116.803 138.14 116.827C138.144 116.851 138.153 116.875 138.166 116.896C138.179 116.916 138.196 116.934 138.216 116.948L138.683 117.271C138.723 117.298 138.751 117.34 138.761 117.387C138.772 117.434 138.763 117.483 138.738 117.524L138.451 117.998C138.439 118.018 138.43 118.041 138.426 118.064C138.423 118.088 138.424 118.112 138.43 118.136C138.435 118.159 138.446 118.181 138.46 118.2C138.475 118.22 138.493 118.236 138.514 118.249C139.215 118.646 139.615 119.251 139.715 120.065C139.726 120.155 139.771 120.236 139.841 120.293L142.153 122.221C142.235 122.287 142.304 122.275 142.359 122.184C143.008 121.117 143.432 120.145 143.631 119.267C143.7 118.966 143.667 118.498 143.534 117.861C143.201 116.268 142.92 114.666 142.691 113.056C142.655 112.796 142.523 112.196 142.296 111.257C142.141 110.617 142.073 109.96 142.092 109.287C142.092 109.256 142.106 109.236 142.133 109.224C142.155 109.213 142.179 109.201 142.204 109.19C142.231 109.177 142.242 109.155 142.239 109.124L142.092 107.938C142.086 107.884 142.091 107.83 142.107 107.778C142.123 107.727 142.149 107.679 142.184 107.639C142.7 107.043 143.258 106.513 143.571 105.823C144.457 103.868 144.338 101.935 143.213 100.023C142.907 99.5001 142.149 98.7778 140.938 97.8558L140.566 99.7662C141.053 100.605 141.058 101.292 140.583 101.828C139.781 102.729 138.265 102.535 138.085 101.169C137.951 100.165 138.327 99.6598 139.213 99.6522L139.766 97.1687C139.243 97.0508 139.027 96.9282 139.119 96.8008L137.884 96.6383Z" fill="#EEAD15"/>
<path d="M214.145 98.7212L218.852 99.9676C218.942 99.9915 218.995 100.084 218.971 100.173L218.967 100.19C218.943 100.28 218.85 100.333 218.76 100.309L214.054 99.0629C213.963 99.039 213.91 98.9468 213.934 98.8571L213.938 98.8405C213.962 98.7507 214.055 98.6973 214.145 98.7212Z" fill="black"/>
<path d="M213.602 101.565L218.265 102.817C218.364 102.844 218.423 102.945 218.396 103.044L218.392 103.061C218.365 103.16 218.263 103.218 218.164 103.191L213.5 101.939C213.401 101.912 213.342 101.811 213.369 101.712L213.373 101.695C213.4 101.596 213.502 101.538 213.602 101.565Z" fill="black"/>
<path d="M236.167 103.132L261.347 108.964C261.459 108.99 261.529 109.102 261.503 109.213L261.5 109.225C261.474 109.337 261.362 109.406 261.249 109.38L236.069 103.548C235.957 103.522 235.887 103.41 235.913 103.298L235.916 103.287C235.942 103.175 236.054 103.106 236.167 103.132Z" fill="white"/>
<path d="M213.103 104.5L217.872 105.755C217.972 105.781 218.031 105.882 218.005 105.981L218.002 105.992C217.975 106.091 217.874 106.15 217.774 106.124L213.005 104.87C212.905 104.844 212.846 104.742 212.872 104.643L212.875 104.632C212.901 104.533 213.003 104.474 213.103 104.5Z" fill="black"/>
<path d="M191.813 112.541L191.829 112.545C191.947 112.576 192.018 112.696 191.987 112.813L187.984 128.11C187.953 128.228 187.832 128.298 187.714 128.268L187.698 128.263C187.58 128.233 187.509 128.113 187.54 127.995L191.544 112.698C191.574 112.581 191.695 112.51 191.813 112.541Z" fill="white"/>
<path d="M232.476 112.817C232.289 112.781 232.161 112.89 232.092 113.145C231.937 113.726 231.795 114.322 231.665 114.932C231.647 115.018 231.657 115.106 231.693 115.186C231.729 115.265 231.79 115.331 231.866 115.374L254.037 127.957C254.067 127.974 254.101 127.984 254.135 127.986C254.169 127.988 254.203 127.982 254.234 127.969C254.439 127.883 254.444 127.784 254.252 127.672C246.984 123.456 239.706 119.308 232.416 115.229C232.316 115.174 232.238 115.087 232.194 114.982C232.149 114.877 232.14 114.761 232.169 114.65L232.599 113.011C232.626 112.904 232.585 112.84 232.476 112.817Z" fill="white"/>
</svg>
