<svg width="396" height="158" viewBox="0 0 396 158" fill="none" xmlns="http://www.w3.org/2000/svg">
<path fill-rule="evenodd" clip-rule="evenodd" d="M40.7633 250.584L40.7633 286.339L28.3937 286.339L28.3937 244.355V238.126L34.6228 238.17L62.3472 238.369L62.2142 212.899L62.1818 206.682L68.399 206.682L108.051 206.682L108.051 219.052L74.6162 219.052L74.7175 238.458L117.76 238.766L117.319 212.095L117.215 205.808L123.503 205.808L150.122 205.808L149.882 159.774L128.234 159.619L128.234 195.374L115.864 195.374L115.864 153.39L115.864 147.16L122.093 147.205L149.817 147.404L149.684 121.934L149.652 115.717L155.869 115.717L195.521 115.717L195.521 128.087L162.086 128.087L162.188 147.492L205.231 147.8L204.789 121.129L204.685 114.842L210.973 114.842L237.819 114.842L237.436 68.422L215.674 68.2662L215.674 104.021L203.304 104.021L203.304 62.0369L203.304 55.8076L209.533 55.8522L237.334 56.0513L237.125 30.5999L237.073 24.364L243.309 24.3641L282.961 24.364L282.961 36.7337L249.545 36.7337L249.705 56.1399L292.671 56.4475L292.229 29.7765L292.125 23.4894L298.413 23.4894L326.776 23.4894L326.538 -21.9615L304.89 -22.1165L304.89 13.6383L292.52 13.6383L292.52 -28.3458L292.52 -34.5751L298.749 -34.5305L326.474 -34.332L326.341 -59.8015L326.308 -66.0187L332.525 -66.0187L372.177 -66.0187L372.177 -53.649L338.743 -53.649L338.844 -34.2434L381.887 -33.9352L381.446 -60.6061L381.341 -66.8933L387.63 -66.8933L420.867 -66.8933L427.052 -66.8933V-60.7085L427.052 -27.4711L427.052 -21.2418L420.823 -21.2864L394.464 -21.4752L395.203 23.1494L415.31 22.9627L415.557 -10.3151L427.926 -10.2235L427.635 29.1366L427.59 35.2188L421.507 35.2753L395.408 35.5177L395.854 62.5173L395.957 68.7166L389.758 68.8039L348.357 69.387L348.182 57.0186L383.384 56.5228L383.038 35.6326L337.835 36.0525L337.835 62.9116V69.1409L331.606 69.0963L305.248 68.9076L305.987 113.532L326.094 113.345L326.341 80.0676L338.71 80.1592L338.418 119.519L338.373 125.602L332.291 125.658L306.191 125.9L306.638 152.9L306.741 159.099L300.541 159.187L259.14 159.77L258.966 147.401L294.168 146.905L293.822 126.015L250.395 126.419L250.395 154.264V160.494L244.166 160.449L217.808 160.26L218.547 204.885L238.654 204.698L238.901 171.42L251.27 171.512L250.978 210.872L250.933 216.954L244.851 217.011L218.751 217.253L219.198 244.253L219.301 250.452L213.101 250.539L171.7 251.123L171.526 238.754L206.728 238.258L206.382 217.368L162.925 217.772L162.925 245.23L162.925 251.459L156.696 251.415L130.338 251.226L131.076 295.85L151.184 295.664L151.43 262.386L163.8 262.477L163.508 301.837L163.463 307.92L157.381 307.976L131.281 308.219L131.728 335.218L131.831 341.418L125.631 341.505L84.2301 342.088L84.0559 329.719L119.257 329.224L118.912 308.334L63.2084 308.851L63.2046 308.443L62.7131 308.445L62.4118 250.739L40.7633 250.584ZM74.7821 250.828L117.965 251.137L118.707 295.965L75.0199 296.371L74.7821 250.828ZM130.133 238.854L129.791 218.177H150.556V239.001L130.133 238.854ZM205.435 160.172L162.252 159.863L162.49 205.406L206.177 205L205.435 160.172ZM217.261 127.212L217.603 147.889L238.026 148.035V127.212L217.261 127.212ZM382.092 -21.5637L338.909 -21.8729L339.146 23.6701L382.833 23.2643L382.092 -21.5637ZM393.918 -54.5237L394.26 -33.8466L414.682 -33.7004L414.682 -54.5236L393.918 -54.5237ZM292.875 68.8189L249.807 68.5106L250.183 114.05L293.617 113.647L292.875 68.8189ZM304.701 35.859L305.043 56.5361L325.466 56.6823L325.466 35.859L304.701 35.859ZM350.002 11.2889H370.618L370.618 -8.50259L350.002 -8.5026L350.002 11.2889ZM193.962 193.024H173.346L173.346 173.233L193.962 173.233L193.962 193.024ZM85.8752 283.99L106.491 283.99L106.491 264.198L85.8752 264.198L85.8752 283.99ZM281.985 101.088L261.369 101.088L261.369 81.2968L281.985 81.2968V101.088Z" fill="#ACD1FF" fill-opacity="0.4"/>
<g clip-path="url(#clip0_342_3464)">
<path d="M220.204 71.7986C220.204 71.7986 220.205 71.7996 220.207 71.8017C220.207 71.8037 220.209 71.8037 220.213 71.8017C225.559 68.6686 231.101 68.0538 237.214 68.0351L237.186 60.8964C237.186 60.8406 237.175 60.7853 237.153 60.7341C237.131 60.6828 237.099 60.6367 237.059 60.5983C233.462 57.1227 230.956 52.9794 229.54 48.1685C229.494 48.0137 229.397 47.881 229.267 47.7927C226.956 46.2257 225.791 44.0014 225.77 41.1198C225.752 38.3624 227.868 35.956 230.622 38.2475C230.661 38.2795 230.706 38.3022 230.755 38.314C230.804 38.3258 230.855 38.3265 230.905 38.3159C231.821 38.113 232.576 37.8604 233.171 37.5582C236.872 35.692 241.727 32.0839 243.744 28.2242C243.8 28.1186 243.849 28.1217 243.89 28.2335C245.51 32.59 250.265 35.6703 254.396 37.4868C255.788 38.0985 257.305 38.9928 258.819 38.0178C259.577 37.5272 260.391 37.2322 261.28 37.5396C263.385 38.2693 263.527 41.2968 263.089 43.0823C262.567 45.2062 261.445 46.9885 259.453 47.9697C259.408 47.9924 259.367 48.0241 259.335 48.0631C259.302 48.1021 259.278 48.1475 259.263 48.1964C257.885 52.8603 255.476 56.9001 252.037 60.3158C251.954 60.3986 251.912 60.499 251.912 60.617L251.95 68.0786C257.936 67.8892 263.44 68.2277 268.612 71.2583C268.631 71.2686 268.649 71.2676 268.665 71.2552C268.68 71.2428 268.687 71.2355 268.687 71.2334C269.234 63.5079 269.197 55.7937 268.575 48.0908C268.08 41.9592 266.866 36.3555 264.932 31.2796C261.122 21.2687 253.603 15.4186 242.719 15.8906C217.767 16.9711 219.165 55.8475 220.204 71.7986Z" fill="black"/>
<path d="M237.214 68.0351C237.301 70.6165 238.277 72.5686 240.142 73.8914C242.038 75.2359 244.832 75.593 247.011 74.8323C250.075 73.7599 251.722 71.5087 251.95 68.0786L251.912 60.6169C251.912 60.4989 251.954 60.3985 252.037 60.3157C255.476 56.9001 257.885 52.8603 259.263 48.1964C259.278 48.1474 259.302 48.1021 259.335 48.0631C259.367 48.0241 259.407 47.9923 259.453 47.9697C261.445 46.9885 262.567 45.2061 263.089 43.0822C263.527 41.2968 263.384 38.2693 261.28 37.5395C260.391 37.2321 259.577 37.5271 258.819 38.0177C257.305 38.9928 255.788 38.0985 254.396 37.4868C250.265 35.6703 245.51 32.59 243.89 28.2335C243.849 28.1217 243.8 28.1186 243.744 28.2241C241.727 32.0838 236.872 35.692 233.17 37.5582C232.576 37.8604 231.821 38.113 230.905 38.3158C230.855 38.3264 230.804 38.3258 230.755 38.314C230.706 38.3022 230.661 38.2794 230.622 38.2475C227.868 35.9559 225.751 38.3624 225.77 41.1198C225.791 44.0013 226.956 46.2257 229.267 47.7927C229.397 47.8809 229.494 48.0137 229.54 48.1684C230.955 52.9793 233.462 57.1226 237.059 60.5983C237.099 60.6366 237.131 60.6828 237.153 60.7341C237.175 60.7853 237.186 60.8405 237.186 60.8964L237.214 68.0351ZM255.512 40.6416C253.221 39.1791 250.551 38.8779 248.002 39.7877C247.866 39.8353 247.783 39.7887 247.754 39.6479L247.695 39.3654C247.668 39.237 247.716 39.1522 247.841 39.1107C250.64 38.1896 253.261 38.5177 255.704 40.0951C255.822 40.1717 255.859 40.2752 255.813 40.4056L255.757 40.5577C255.712 40.6882 255.63 40.7161 255.512 40.6416ZM239.729 39.7908C237 38.9182 234.603 39.3933 232.201 40.8652C232.179 40.8779 232.155 40.886 232.13 40.8888C232.106 40.8916 232.08 40.8891 232.057 40.8814C232.033 40.8737 232.012 40.8611 231.994 40.8444C231.976 40.8276 231.961 40.8072 231.952 40.7844C231.911 40.6788 231.902 40.5764 231.927 40.477C231.946 40.3983 232.004 40.3259 232.101 40.2597C234.476 38.6595 237.059 38.2817 239.85 39.1263C239.972 39.1615 240.024 39.2422 240.005 39.3685L239.968 39.6417C239.947 39.7866 239.867 39.8363 239.729 39.7908ZM229.292 40.654C227.159 42.4084 228.406 44.1442 229.941 45.6346C230.018 45.7071 230.015 45.7744 229.932 45.8365C229.845 45.9027 229.753 45.9027 229.655 45.8365C227.635 44.4733 227.057 41.8992 229.226 40.2752C229.242 40.2632 229.26 40.2556 229.279 40.253C229.298 40.2504 229.318 40.253 229.336 40.2606C229.354 40.2681 229.371 40.2803 229.383 40.2959C229.395 40.3115 229.403 40.3301 229.407 40.3497C229.415 40.3973 229.409 40.4542 229.388 40.5205C229.373 40.5702 229.341 40.6147 229.292 40.654ZM259.686 40.8931C259.561 40.771 259.471 40.6478 259.415 40.5236C259.401 40.4957 259.397 40.4638 259.404 40.4332C259.41 40.4026 259.427 40.3753 259.452 40.3556C259.476 40.336 259.506 40.3253 259.538 40.3254C259.569 40.3254 259.599 40.3362 259.624 40.3559C261.868 42.0793 260.963 44.5354 259.033 45.9483C259.003 45.9687 258.966 45.9774 258.93 45.973C258.893 45.9685 258.86 45.9511 258.835 45.9239C258.811 45.8967 258.797 45.8616 258.796 45.8251C258.795 45.7885 258.808 45.7528 258.831 45.7247C260.227 44.2342 261.585 42.7903 259.686 40.8931ZM249.236 42.4426L248.919 42.7313C248.889 42.7631 248.848 42.782 248.804 42.7841C248.76 42.7861 248.717 42.7712 248.684 42.7425C248.65 42.7137 248.63 42.6733 248.625 42.6296C248.621 42.5859 248.634 42.5423 248.661 42.5078C250.305 40.1634 253.075 40.6385 254.924 42.5171C254.939 42.532 254.95 42.55 254.957 42.5698C254.964 42.5897 254.967 42.6109 254.964 42.6318C254.962 42.6527 254.955 42.6727 254.943 42.6905C254.932 42.7083 254.917 42.7233 254.899 42.7344C254.856 42.7634 254.805 42.7758 254.747 42.7717C254.588 42.7655 253.215 41.7625 252.801 41.6073C252.654 41.5493 252.599 41.598 252.637 41.7532C253.423 45.0043 249.423 45.5819 249.395 42.5078C249.393 42.3691 249.34 42.3473 249.236 42.4426ZM238.184 42.5171C238.268 45.6874 233.997 44.8304 234.964 41.7719C234.974 41.7402 234.974 41.7063 234.965 41.6745C234.955 41.6427 234.936 41.6145 234.91 41.5937C234.884 41.5728 234.853 41.5603 234.82 41.5578C234.786 41.5552 234.753 41.5627 234.725 41.5793C234.463 41.7284 232.819 42.7872 232.798 42.781C232.758 42.7686 232.723 42.7427 232.692 42.7034C232.664 42.6677 232.65 42.6228 232.652 42.577C232.655 42.5313 232.675 42.4879 232.707 42.455C234.554 40.6695 237.227 40.1634 238.939 42.4891C238.965 42.5245 238.976 42.5679 238.971 42.6112C238.967 42.6544 238.946 42.6945 238.914 42.7236C238.882 42.7528 238.84 42.7691 238.796 42.7694C238.753 42.7697 238.711 42.7539 238.678 42.7251L238.358 42.4364C238.343 42.4223 238.325 42.4131 238.305 42.4099C238.285 42.4067 238.264 42.4095 238.246 42.4182C238.227 42.4268 238.211 42.4408 238.2 42.4584C238.189 42.476 238.184 42.4964 238.184 42.5171ZM243.275 49.8918L244.279 49.5285C244.32 49.5138 244.364 49.5133 244.405 49.527C244.447 49.5408 244.482 49.568 244.506 49.6043C244.529 49.6406 244.54 49.6838 244.536 49.7269C244.532 49.7701 244.514 49.8107 244.484 49.8421C243.909 50.46 242.259 50.6525 242.38 49.3484C242.579 47.2245 243.055 44.7611 243.81 41.9582C243.834 41.8691 243.892 41.8277 243.984 41.834L244.099 41.8402C244.125 41.8417 244.151 41.849 244.174 41.8616C244.198 41.8742 244.218 41.8919 244.234 41.9132C244.249 41.9346 244.26 41.9591 244.265 41.9852C244.27 42.0112 244.27 42.038 244.263 42.0637C243.723 44.256 243.282 46.4782 242.942 48.7305C242.88 49.1424 242.892 49.4809 242.977 49.7458C242.986 49.7754 243.002 49.8027 243.023 49.8261C243.043 49.8496 243.068 49.8687 243.096 49.8823C243.124 49.8959 243.154 49.9037 243.185 49.9054C243.215 49.907 243.246 49.9024 243.275 49.8918ZM248.282 53.0621C247.176 55.037 244.935 56.0182 242.88 54.7544C242.777 54.6923 242.739 54.6023 242.768 54.4843C242.804 54.3394 242.882 54.3001 243.005 54.3663C245.009 55.4593 246.846 54.5619 248.009 52.7982C248.024 52.775 248.045 52.7561 248.069 52.7434C248.094 52.7307 248.121 52.7247 248.149 52.726C248.177 52.7272 248.203 52.7357 248.227 52.7505C248.25 52.7654 248.269 52.7861 248.282 52.8106C248.328 52.8955 248.328 52.9793 248.282 53.0621ZM245.106 63.1197C247.465 62.6943 249.311 62.1353 251.294 60.7815C251.322 60.7633 251.355 60.7547 251.388 60.7569C251.422 60.759 251.454 60.7719 251.479 60.7935C251.504 60.8151 251.522 60.8443 251.53 60.8768C251.537 60.9094 251.534 60.9434 251.521 60.974C251.496 61.0237 251.45 61.0734 251.384 61.1231C249.737 62.303 247.2 63.514 245.127 63.4457C245.087 63.4436 245.049 63.4268 245.021 63.3985C244.992 63.3702 244.975 63.3325 244.972 63.2923C244.969 63.2522 244.981 63.2125 245.006 63.1806C245.031 63.1488 245.066 63.1271 245.106 63.1197Z" fill="#D8A87E"/>
<path d="M248.002 39.7877C250.551 38.8779 253.221 39.1791 255.512 40.6416C255.63 40.7161 255.711 40.6882 255.757 40.5578L255.813 40.4056C255.859 40.2752 255.822 40.1717 255.704 40.0951C253.261 38.5177 250.64 38.1896 247.841 39.1108C247.716 39.1522 247.668 39.237 247.695 39.3654L247.754 39.648C247.783 39.7887 247.866 39.8353 248.002 39.7877Z" fill="black"/>
<path d="M232.201 40.8652C234.603 39.3933 237 38.9182 239.729 39.7908C239.868 39.8363 239.947 39.7866 239.968 39.6417L240.005 39.3685C240.024 39.2422 239.972 39.1615 239.85 39.1263C237.059 38.2817 234.476 38.6595 232.101 40.2597C232.004 40.3259 231.946 40.3983 231.927 40.477C231.902 40.5764 231.911 40.6788 231.952 40.7844C231.961 40.8072 231.976 40.8276 231.994 40.8444C232.012 40.8611 232.033 40.8737 232.057 40.8814C232.081 40.8891 232.106 40.8916 232.131 40.8888C232.155 40.886 232.179 40.8779 232.201 40.8652Z" fill="black"/>
<path d="M229.941 45.6347C228.406 44.1442 227.159 42.4084 229.291 40.654C229.341 40.6147 229.373 40.5702 229.388 40.5205C229.409 40.4543 229.415 40.3973 229.406 40.3497C229.403 40.3301 229.395 40.3115 229.383 40.2959C229.37 40.2803 229.354 40.2681 229.336 40.2606C229.318 40.2531 229.298 40.2505 229.279 40.253C229.26 40.2556 229.242 40.2632 229.226 40.2752C227.057 41.8992 227.635 44.4733 229.655 45.8365C229.753 45.9027 229.845 45.9027 229.932 45.8365C230.015 45.7744 230.018 45.7071 229.941 45.6347Z" fill="#6D4509"/>
<path d="M259.686 40.8932C261.585 42.7904 260.227 44.2343 258.831 45.7248C258.808 45.7529 258.795 45.7885 258.796 45.8251C258.797 45.8617 258.811 45.8968 258.835 45.924C258.86 45.9511 258.893 45.9686 258.93 45.973C258.966 45.9775 259.003 45.9687 259.033 45.9483C260.963 44.5355 261.868 42.0793 259.624 40.356C259.6 40.3363 259.569 40.3255 259.538 40.3254C259.507 40.3254 259.476 40.3361 259.452 40.3557C259.427 40.3753 259.411 40.4027 259.404 40.4333C259.397 40.4638 259.401 40.4957 259.416 40.5236C259.472 40.6479 259.562 40.771 259.686 40.8932Z" fill="#6D4509"/>
<path d="M249.395 42.5077C249.423 45.5818 253.423 45.0043 252.637 41.7532C252.599 41.5979 252.654 41.5493 252.801 41.6072C253.215 41.7625 254.588 42.7655 254.747 42.7717C254.805 42.7758 254.856 42.7634 254.899 42.7344C254.917 42.7233 254.932 42.7082 254.943 42.6905C254.955 42.6727 254.962 42.6526 254.964 42.6317C254.967 42.6108 254.964 42.5897 254.957 42.5698C254.95 42.5499 254.939 42.5319 254.924 42.517C253.075 40.6384 250.305 40.1633 248.661 42.5077C248.634 42.5422 248.621 42.5858 248.625 42.6295C248.63 42.6732 248.65 42.7137 248.684 42.7424C248.717 42.7712 248.76 42.7861 248.804 42.784C248.848 42.7819 248.889 42.7631 248.919 42.7313L249.236 42.4425C249.34 42.3473 249.393 42.369 249.395 42.5077Z" fill="black"/>
<path d="M238.358 42.4363L238.678 42.7251C238.711 42.7539 238.753 42.7696 238.796 42.7694C238.84 42.7691 238.882 42.7528 238.914 42.7236C238.946 42.6944 238.967 42.6544 238.971 42.6111C238.976 42.5679 238.965 42.5244 238.939 42.4891C237.227 40.1634 234.554 40.6695 232.707 42.455C232.675 42.4878 232.655 42.5312 232.652 42.577C232.65 42.6228 232.664 42.6677 232.692 42.7034C232.723 42.7427 232.758 42.7686 232.798 42.781C232.819 42.7872 234.463 41.7284 234.725 41.5793C234.753 41.5627 234.786 41.5552 234.82 41.5577C234.853 41.5603 234.884 41.5728 234.91 41.5936C234.936 41.6145 234.955 41.6426 234.965 41.6744C234.974 41.7062 234.974 41.7402 234.964 41.7718C233.997 44.8304 238.268 45.6874 238.184 42.5171C238.184 42.4964 238.189 42.4759 238.2 42.4583C238.211 42.4407 238.227 42.4268 238.246 42.4181C238.264 42.4095 238.285 42.4066 238.305 42.4099C238.325 42.4131 238.343 42.4223 238.358 42.4363Z" fill="black"/>
<path d="M242.977 49.7459C242.892 49.4809 242.88 49.1424 242.942 48.7305C243.282 46.4782 243.722 44.256 244.263 42.0638C244.27 42.038 244.27 42.0112 244.265 41.9852C244.26 41.9592 244.249 41.9346 244.234 41.9132C244.218 41.8919 244.198 41.8743 244.174 41.8616C244.151 41.849 244.125 41.8417 244.099 41.8402L243.984 41.834C243.892 41.8278 243.834 41.8692 243.81 41.9582C243.055 44.7611 242.579 47.2245 242.38 49.3484C242.259 50.6526 243.909 50.4601 244.484 49.8421C244.514 49.8107 244.532 49.7701 244.536 49.727C244.54 49.6838 244.529 49.6406 244.505 49.6043C244.482 49.568 244.446 49.5408 244.405 49.5271C244.364 49.5133 244.32 49.5138 244.279 49.5285L243.275 49.8918C243.246 49.9024 243.215 49.907 243.184 49.9054C243.154 49.9038 243.124 49.8959 243.096 49.8823C243.068 49.8687 243.043 49.8496 243.023 49.8262C243.002 49.8027 242.986 49.7754 242.977 49.7459Z" fill="black"/>
<path d="M242.88 54.7545C244.935 56.0183 247.176 55.037 248.282 53.0622C248.328 52.9794 248.328 52.8955 248.282 52.8107C248.269 52.7861 248.25 52.7654 248.227 52.7506C248.204 52.7357 248.177 52.7272 248.149 52.726C248.121 52.7247 248.094 52.7307 248.069 52.7434C248.045 52.7561 248.024 52.775 248.009 52.7982C246.846 54.5619 245.009 55.4593 243.005 54.3663C242.882 54.3001 242.804 54.3394 242.768 54.4843C242.739 54.6023 242.777 54.6924 242.88 54.7545Z" fill="black"/>
<path d="M251.294 60.7816C249.311 62.1354 247.465 62.6943 245.106 63.1197C245.066 63.1272 245.031 63.1489 245.006 63.1807C244.981 63.2125 244.969 63.2522 244.972 63.2924C244.975 63.3325 244.992 63.3703 245.021 63.3985C245.049 63.4268 245.087 63.4436 245.128 63.4458C247.201 63.5141 249.737 62.3031 251.384 61.1231C251.45 61.0734 251.496 61.0238 251.521 60.9741C251.534 60.9435 251.537 60.9094 251.53 60.8769C251.522 60.8444 251.505 60.8151 251.479 60.7935C251.454 60.7719 251.422 60.7591 251.389 60.7569C251.355 60.7548 251.322 60.7634 251.294 60.7816Z" fill="#6D4509"/>
<path d="M237.214 68.0352C231.101 68.0538 225.559 68.6686 220.213 71.8017C220.209 71.8038 220.207 71.8038 220.207 71.8017C220.205 71.7996 220.203 71.7986 220.203 71.7986C216.77 73.9328 213.869 76.6022 211.501 79.8067C206.003 87.2435 202.789 96.5776 201.446 105.694C201.442 105.723 201.431 105.749 201.414 105.773C201.397 105.796 201.375 105.815 201.35 105.828C201.325 105.842 201.296 105.849 201.268 105.849C201.239 105.85 201.211 105.843 201.185 105.831L188.261 99.6268C188.2 99.5972 188.131 99.5881 188.065 99.601C187.998 99.6138 187.937 99.648 187.892 99.6983L186.508 101.207L180.936 107.526L178.477 110.293C178.441 110.334 178.422 110.387 178.424 110.441C178.427 110.495 178.45 110.545 178.49 110.582C180.765 112.708 183.028 114.802 185.281 116.863C187.309 118.718 188.898 120.044 190.045 120.841C196.663 125.434 209.9 130.184 215.861 121.813C215.948 121.689 215.987 121.702 215.976 121.853L212.458 172.216C212.452 172.332 212.507 172.39 212.623 172.39H278.502C278.518 172.39 278.533 172.386 278.547 172.38C278.561 172.374 278.574 172.365 278.584 172.354C278.594 172.343 278.602 172.33 278.607 172.316C278.611 172.301 278.613 172.286 278.611 172.272L274.278 121.468C274.268 121.35 274.322 121.298 274.44 121.31C280.336 121.99 286.45 121.527 288.93 115.233C290.369 111.582 289.943 107.719 288.871 103.648C285.803 92.0068 279.829 78.0989 269.035 71.4943C268.873 71.397 268.757 71.31 268.687 71.2334C268.687 71.2355 268.68 71.2428 268.665 71.2552C268.649 71.2676 268.631 71.2686 268.612 71.2583C263.44 68.2277 257.936 67.8892 251.95 68.0786C251.722 71.5088 250.075 73.76 247.011 74.8323C244.832 75.5931 242.038 75.236 240.142 73.8914C238.277 72.5687 237.301 70.6166 237.214 68.0352ZM232.913 92.6216C230.865 92.0296 228.819 91.4365 226.774 90.8424C225.814 90.566 224.272 89.8115 224.343 88.762C224.455 87.1845 228.014 88.1316 229.012 88.3955C234.041 89.7349 238.712 90.8993 243.026 91.8888C245.351 92.4229 243.371 86.8399 243.197 86.1754C242.762 84.5079 242.815 83.3714 243.862 82.0952C244.09 81.8178 244.335 81.7288 244.596 81.8282C244.671 81.8561 244.738 81.9017 244.792 81.9611C244.847 82.0205 244.886 82.092 244.907 82.1697C245.224 83.3456 245.665 84.4624 246.231 85.5202C246.562 86.1412 246.804 86.7415 246.955 87.3212C247.622 89.8943 248.527 92.3856 249.668 94.7952C250.424 96.3913 252.748 97.0402 254.281 97.5588C254.318 97.5717 254.353 97.592 254.382 97.6184C254.412 97.6449 254.435 97.6769 254.452 97.7127C254.468 97.7484 254.477 97.787 254.479 97.8262C254.48 97.8654 254.473 97.9044 254.458 97.9407L251.179 106.082C251.158 106.135 251.126 106.183 251.086 106.222C251.046 106.262 250.998 106.294 250.945 106.314C250.892 106.335 250.835 106.345 250.778 106.344C250.721 106.342 250.665 106.33 250.613 106.306C248.193 105.209 245.665 104.552 243.029 104.334C239.477 104.042 236.521 103.331 233.295 101.869C232.791 101.639 231.759 101.338 231.343 100.782C230.699 99.927 230.792 99.2097 231.623 98.6301C231.716 98.5659 231.721 98.4955 231.638 98.4189C230.625 97.506 230.171 95.6554 232.092 95.5436C232.134 95.5444 232.175 95.5285 232.205 95.4994C232.235 95.4703 232.253 95.4303 232.254 95.3883C232.254 95.3463 232.239 95.3057 232.209 95.2754C232.18 95.2451 232.14 95.2277 232.098 95.2269C230.516 95.0809 231.116 92.8111 232.888 92.7862C232.908 92.7868 232.928 92.7799 232.944 92.7667C232.96 92.7536 232.97 92.7352 232.973 92.7149C232.976 92.6947 232.972 92.674 232.96 92.6568C232.949 92.6397 232.932 92.6271 232.913 92.6216ZM254.966 95.9344C254.974 95.9056 254.987 95.8787 255.005 95.8551C255.023 95.8315 255.046 95.8117 255.072 95.7969C255.098 95.7821 255.126 95.7725 255.156 95.7686C255.185 95.7648 255.215 95.7668 255.244 95.7746L281.213 102.775C281.242 102.783 281.269 102.796 281.292 102.814C281.316 102.832 281.336 102.855 281.351 102.881C281.365 102.906 281.375 102.935 281.379 102.964C281.383 102.994 281.381 103.024 281.373 103.053L281.37 103.065C281.362 103.093 281.349 103.12 281.33 103.144C281.312 103.168 281.29 103.187 281.264 103.202C281.238 103.217 281.209 103.227 281.18 103.23C281.15 103.234 281.12 103.232 281.091 103.224L255.123 96.2243C255.094 96.2165 255.067 96.2032 255.043 96.185C255.02 96.1668 255 96.1442 254.985 96.1184C254.97 96.0926 254.961 96.0641 254.957 96.0346C254.953 96.0051 254.955 95.9751 254.963 95.9463L254.966 95.9344ZM220.039 104.126C220.052 104.063 220.089 104.007 220.142 103.971C220.196 103.936 220.261 103.923 220.324 103.935L220.336 103.937C220.399 103.95 220.455 103.987 220.491 104.04C220.527 104.094 220.54 104.159 220.527 104.222L217.272 120.646C217.259 120.709 217.222 120.765 217.169 120.8C217.116 120.836 217.05 120.849 216.987 120.837L216.975 120.834C216.912 120.822 216.856 120.785 216.821 120.731C216.785 120.678 216.772 120.613 216.784 120.55L220.039 104.126ZM250.334 107.286C250.349 107.26 250.368 107.237 250.392 107.219C250.415 107.201 250.442 107.187 250.471 107.18C250.5 107.172 250.53 107.17 250.559 107.173C250.589 107.177 250.617 107.187 250.643 107.201L273.991 120.506C274.017 120.521 274.04 120.54 274.058 120.564C274.076 120.588 274.09 120.614 274.098 120.643C274.106 120.672 274.108 120.702 274.104 120.731C274.1 120.761 274.091 120.789 274.076 120.815L274.073 120.821C274.058 120.846 274.038 120.869 274.015 120.887C273.991 120.906 273.964 120.919 273.936 120.927C273.907 120.935 273.877 120.937 273.847 120.933C273.818 120.929 273.789 120.92 273.763 120.905L250.415 107.601C250.39 107.586 250.367 107.566 250.349 107.543C250.33 107.519 250.317 107.492 250.309 107.463C250.301 107.435 250.299 107.405 250.303 107.375C250.306 107.346 250.316 107.317 250.331 107.291L250.334 107.286Z" fill="#3461C1"/>
<path d="M232.888 92.7862C231.116 92.811 230.516 95.0809 232.098 95.2268C232.14 95.2276 232.18 95.2451 232.209 95.2754C232.238 95.3057 232.254 95.3463 232.253 95.3883C232.253 95.4303 232.235 95.4702 232.205 95.4993C232.175 95.5285 232.134 95.5443 232.092 95.5435C230.171 95.6553 230.625 97.506 231.638 98.4189C231.721 98.4955 231.716 98.5659 231.623 98.63C230.792 99.2097 230.698 99.9269 231.343 100.782C231.759 101.338 232.791 101.639 233.295 101.869C236.521 103.331 239.477 104.042 243.029 104.334C245.665 104.552 248.193 105.209 250.613 106.306C250.665 106.33 250.721 106.342 250.778 106.344C250.835 106.345 250.892 106.335 250.945 106.314C250.997 106.294 251.045 106.262 251.086 106.222C251.126 106.182 251.158 106.135 251.179 106.082L254.458 97.9407C254.472 97.9044 254.479 97.8654 254.478 97.8262C254.477 97.787 254.468 97.7483 254.452 97.7126C254.435 97.6769 254.411 97.6448 254.382 97.6184C254.353 97.5919 254.318 97.5716 254.281 97.5588C252.748 97.0402 250.423 96.3912 249.668 94.7952C248.527 92.3856 247.622 89.8942 246.955 87.3211C246.804 86.7415 246.562 86.1412 246.231 85.5201C245.665 84.4623 245.224 83.3455 244.907 82.1697C244.886 82.092 244.846 82.0205 244.792 81.9611C244.738 81.9017 244.671 81.8561 244.596 81.8281C244.335 81.7288 244.09 81.8178 243.862 82.0952C242.815 83.3714 242.762 84.5079 243.197 86.1753C243.371 86.8398 245.351 92.4229 243.026 91.8888C238.712 90.8993 234.041 89.7349 229.012 88.3955C228.014 88.1316 224.455 87.1845 224.343 88.7619C224.272 89.8114 225.814 90.566 226.774 90.8423C228.819 91.4365 230.865 92.0295 232.912 92.6216C232.932 92.6271 232.949 92.6396 232.96 92.6568C232.971 92.674 232.976 92.6946 232.973 92.7149C232.97 92.7351 232.959 92.7535 232.944 92.7667C232.928 92.7798 232.908 92.7867 232.888 92.7862ZM233.295 92.8155C233.31 92.7574 233.348 92.7079 233.401 92.6778C233.453 92.6478 233.515 92.6396 233.573 92.6552L238.16 93.8832C238.189 93.8909 238.216 93.9042 238.239 93.9223C238.263 93.9404 238.283 93.963 238.298 93.9888C238.313 94.0146 238.322 94.043 238.326 94.0725C238.33 94.1021 238.328 94.1321 238.321 94.1608L238.317 94.1728C238.302 94.2309 238.264 94.2804 238.212 94.3104C238.159 94.3405 238.098 94.3486 238.039 94.3331L233.452 93.1051C233.423 93.0974 233.396 93.0841 233.373 93.066C233.349 93.0479 233.329 93.0253 233.314 92.9995C233.299 92.9737 233.29 92.9452 233.286 92.9157C233.282 92.8862 233.284 92.8562 233.292 92.8275L233.295 92.8155ZM232.675 95.6069C232.691 95.5472 232.73 95.4964 232.783 95.4655C232.837 95.4346 232.901 95.4262 232.96 95.4422L237.584 96.6798C237.643 96.6958 237.694 96.7349 237.725 96.7884C237.756 96.8418 237.765 96.9054 237.749 96.9651L237.744 96.9831C237.728 97.0427 237.689 97.0936 237.635 97.1245C237.582 97.1553 237.518 97.1637 237.458 97.1477L232.835 95.9101C232.775 95.8941 232.724 95.8551 232.693 95.8016C232.662 95.7481 232.654 95.6845 232.67 95.6249L232.675 95.6069ZM232.242 98.4926C232.258 98.4313 232.298 98.379 232.353 98.3472C232.408 98.3154 232.473 98.3067 232.535 98.323L237.196 99.5622C237.257 99.5785 237.31 99.6185 237.342 99.6733C237.373 99.7282 237.382 99.7934 237.366 99.8547L237.363 99.8667C237.346 99.928 237.306 99.9803 237.251 100.012C237.196 100.044 237.131 100.053 237.07 100.036L232.408 98.7971C232.347 98.7808 232.295 98.7408 232.263 98.686C232.231 98.6311 232.222 98.5659 232.238 98.5046L232.242 98.4926Z" fill="#D8A87E"/>
<path d="M163.313 96.8011L164.258 97.8972C164.334 97.9862 164.351 98.0866 164.307 98.1984L163.35 100.605C163.553 100.946 163.758 101.08 163.965 101.005C164.713 98.0038 165.406 94.9929 166.042 91.9726C166.071 91.8319 166.194 91.7729 166.412 91.7956C167.07 90.4729 168.413 88.793 167.232 87.8055C167.147 87.7331 167.049 87.7 166.937 87.7062C164.985 87.8211 162.899 91.8391 162.411 93.4165C162.024 94.6669 162.324 95.7951 163.313 96.8011Z" fill="#D8A87E"/>
<path d="M166.971 91.9354C167.193 91.9582 167.276 92.1 167.22 92.3608C166.714 94.7145 166.247 96.9761 165.818 99.1456C166.386 99.8432 166.929 100.534 167.447 101.217C169.004 103.275 170.548 104.403 173.022 105.014C175.669 105.668 178.306 106.506 180.936 107.526L186.509 101.207C185.039 99.3464 183.558 97.5785 182.064 95.9038C181.413 95.1751 180.639 94.6783 179.742 94.4133C181.079 98.037 173.666 95.1586 175.142 100.282C175.169 100.373 175.155 100.457 175.099 100.534L175.037 100.614C174.966 100.71 174.907 100.702 174.859 100.593C173.712 97.9097 175.751 96.4565 178.145 96.264C178.7 96.2185 179.13 95.9928 179.434 95.5871C179.492 95.5107 179.532 95.4229 179.553 95.3296C179.574 95.2363 179.574 95.1397 179.554 95.0462C179.535 94.9527 179.495 94.8645 179.439 94.7875C179.382 94.7105 179.31 94.6464 179.226 94.5996C177.563 93.6619 175.835 94.2674 173.995 94.9257C171.139 95.9473 171.26 97.6427 171.378 100.493C171.382 100.576 171.344 100.628 171.263 100.648C171.23 100.659 171.197 100.664 171.164 100.664C171.064 100.668 171.012 100.621 171.005 100.521C170.862 97.8849 170.909 95.7827 173.321 94.7673C174.825 94.1318 176.322 93.7788 177.812 93.7085C177.679 93.5967 177.748 93.4725 178.017 93.3359C178.633 93.0191 178.676 92.2646 178.253 91.7802C177.626 91.066 174.604 91.4852 173.7 91.5783C173.68 91.5808 173.659 91.5774 173.641 91.5687C173.622 91.56 173.607 91.5463 173.596 91.5291C173.585 91.5119 173.579 91.492 173.578 91.4716C173.578 91.4512 173.584 91.4312 173.594 91.4138C173.891 90.9107 173.988 90.4822 173.887 90.1282C173.644 89.2836 172.401 89.3582 171.698 89.5041C170.064 89.8436 168.686 90.5785 167.565 91.7088C167.415 91.8578 167.161 91.9199 166.971 91.9354ZM169.398 94.3668C168.413 95.9597 168.441 97.947 168.755 99.7914C168.763 99.8432 168.749 99.8877 168.712 99.9249L168.628 100.012C168.614 100.025 168.597 100.035 168.579 100.039C168.561 100.044 168.541 100.043 168.523 100.037C168.505 100.031 168.489 100.021 168.477 100.006C168.465 99.9921 168.457 99.9747 168.454 99.956C168.184 98.3765 168.108 97.2659 168.224 96.6242C168.723 93.8793 170.316 92.1797 173.004 91.5256C173.026 91.5209 173.048 91.5219 173.07 91.5285C173.091 91.535 173.11 91.5469 173.125 91.563C173.14 91.579 173.151 91.5986 173.156 91.6198C173.161 91.6411 173.16 91.6632 173.153 91.6839C173.114 91.8143 173.006 91.9013 172.83 91.9447C171.313 92.3112 170.169 93.1185 169.398 94.3668ZM177.964 98.9655C177.662 99.0628 177.439 99.0359 177.296 98.8847C177.137 98.715 177.172 98.6125 177.402 98.5773C179.221 98.302 180.829 98.5225 182.226 99.2387C182.375 99.3153 182.455 99.4002 182.465 99.4933C182.468 99.521 182.463 99.549 182.451 99.5743C182.44 99.5996 182.422 99.6214 182.399 99.6373C182.377 99.6531 182.35 99.6626 182.323 99.6646C182.296 99.6665 182.269 99.661 182.244 99.6486C181.029 99.0431 179.242 98.5525 177.964 98.9655Z" fill="#D8A87E"/>
<path d="M169.398 94.3667C170.169 93.1184 171.313 92.3111 172.83 91.9447C173.006 91.9012 173.114 91.8142 173.153 91.6838C173.16 91.6631 173.16 91.641 173.156 91.6197C173.151 91.5985 173.14 91.5789 173.125 91.5629C173.11 91.5468 173.091 91.5349 173.07 91.5284C173.048 91.5218 173.026 91.5208 173.004 91.5255C170.316 92.1796 168.723 93.8792 168.224 96.6241C168.107 97.2658 168.184 98.3764 168.454 99.9559C168.457 99.9746 168.465 99.992 168.477 100.006C168.489 100.021 168.505 100.031 168.523 100.037C168.541 100.043 168.561 100.044 168.579 100.039C168.597 100.035 168.614 100.025 168.628 100.012L168.711 99.9249C168.749 99.8876 168.763 99.8431 168.755 99.7913C168.441 97.9469 168.413 95.9596 169.398 94.3667Z" fill="#6D4509"/>
<path d="M166.412 91.7956C166.194 91.7729 166.071 91.8319 166.042 91.9726C165.406 94.9929 164.713 98.0039 163.965 101.005L163.418 103.369L163.328 104.045C163.312 104.165 163.362 104.24 163.481 104.269C163.839 104.362 164.198 104.431 164.556 104.477C164.687 104.496 164.796 104.306 164.885 103.909L165.305 101.766L165.818 99.1455C166.247 96.9761 166.714 94.7145 167.22 92.3608C167.276 92.1 167.193 91.9582 166.971 91.9354L166.412 91.7956Z" fill="#6D4509"/>
<path d="M233.573 92.6552L238.16 93.8832C238.281 93.9156 238.353 94.0399 238.321 94.1608L238.317 94.1728C238.285 94.2938 238.161 94.3655 238.04 94.3331L233.452 93.1051C233.331 93.0727 233.259 92.9484 233.292 92.8275L233.295 92.8155C233.327 92.6946 233.452 92.6228 233.573 92.6552Z" fill="#6D4509"/>
<path d="M179.742 94.4132L177.812 93.7084C176.322 93.7788 174.825 94.1317 173.321 94.7672C170.909 95.7826 170.862 97.8848 171.005 100.521C171.012 100.62 171.064 100.668 171.164 100.664C171.197 100.664 171.23 100.659 171.263 100.648C171.344 100.628 171.382 100.576 171.378 100.493C171.26 97.6426 171.139 95.9472 173.995 94.9256C175.835 94.2673 177.563 93.6618 179.226 94.5995C179.31 94.6463 179.382 94.7104 179.439 94.7874C179.495 94.8644 179.535 94.9526 179.555 95.0461C179.574 95.1396 179.574 95.2362 179.553 95.3295C179.532 95.4228 179.492 95.5106 179.435 95.587C179.13 95.9927 178.7 96.2184 178.145 96.2639C175.751 96.4564 173.713 97.9096 174.859 100.592C174.907 100.702 174.966 100.709 175.037 100.614L175.099 100.533C175.155 100.457 175.169 100.373 175.142 100.282C173.666 95.1585 181.079 98.0369 179.742 94.4132Z" fill="#6D4509"/>
<path d="M232.961 95.4422L237.584 96.6798C237.708 96.7131 237.782 96.8408 237.749 96.9651L237.744 96.9831C237.711 97.1073 237.583 97.181 237.458 97.1477L232.835 95.9101C232.711 95.8768 232.637 95.7491 232.67 95.6249L232.675 95.6069C232.708 95.4826 232.836 95.4089 232.961 95.4422Z" fill="#6D4509"/>
<path d="M255.244 95.7746L281.213 102.775C281.334 102.807 281.406 102.932 281.373 103.053L281.37 103.065C281.337 103.186 281.213 103.257 281.092 103.225L255.123 96.2243C255.002 96.1916 254.93 96.0672 254.963 95.9464L254.966 95.9344C254.999 95.8135 255.123 95.742 255.244 95.7746Z" fill="white"/>
<path d="M163.313 96.8011L161.821 100.307L163.35 100.605L164.307 98.1985C164.351 98.0867 164.334 97.9863 164.257 97.8973L163.313 96.8011Z" fill="#6D4509"/>
<path d="M232.535 98.323L237.196 99.5622C237.324 99.5961 237.4 99.7271 237.366 99.8547L237.363 99.8667C237.329 99.9943 237.198 100.07 237.07 100.036L232.408 98.7971C232.281 98.7632 232.205 98.6322 232.239 98.5046L232.242 98.4926C232.276 98.365 232.407 98.2891 232.535 98.323Z" fill="#6D4509"/>
<path d="M177.964 98.9655C179.242 98.5525 181.029 99.0431 182.244 99.6486C182.269 99.661 182.296 99.6665 182.323 99.6646C182.35 99.6626 182.377 99.6531 182.399 99.6372C182.422 99.6214 182.44 99.5996 182.451 99.5743C182.463 99.549 182.468 99.521 182.465 99.4933C182.454 99.4002 182.375 99.3153 182.225 99.2387C180.829 98.5225 179.221 98.302 177.402 98.5773C177.172 98.6125 177.136 98.715 177.296 98.8847C177.439 99.0358 177.662 99.0628 177.964 98.9655Z" fill="#6D4509"/>
<path d="M161.821 100.307C155.695 100.273 152.785 106.852 157.037 111.28C157.062 111.305 157.079 111.337 157.086 111.372C157.092 111.407 157.088 111.443 157.075 111.476L156.726 112.342C156.706 112.393 156.697 112.447 156.7 112.501C156.704 112.554 156.719 112.606 156.745 112.653C156.983 113.077 156.966 113.502 156.692 113.926C156.624 114.034 156.53 114.109 156.409 114.153L155.533 114.476C155.509 114.485 155.488 114.498 155.47 114.515C155.452 114.533 155.437 114.554 155.427 114.576C155.417 114.599 155.412 114.624 155.412 114.649C155.412 114.674 155.417 114.698 155.427 114.721L155.853 115.699C155.862 115.719 155.866 115.741 155.865 115.763C155.865 115.785 155.86 115.807 155.85 115.827C155.84 115.847 155.826 115.864 155.809 115.879C155.792 115.893 155.772 115.904 155.751 115.91L154.98 116.134C154.954 116.141 154.93 116.153 154.91 116.17C154.89 116.187 154.873 116.208 154.861 116.232C154.849 116.256 154.842 116.282 154.84 116.309C154.839 116.336 154.843 116.363 154.852 116.388C155.067 116.941 155.471 117.543 155.297 118.118C155.119 118.71 154.672 119.047 153.957 119.13C153.938 119.132 153.919 119.139 153.903 119.149C153.886 119.159 153.872 119.174 153.862 119.19C153.851 119.207 153.845 119.226 153.843 119.245C153.84 119.265 153.842 119.285 153.848 119.304L154.119 120.087C154.131 120.123 154.129 120.162 154.115 120.198C154.101 120.233 154.075 120.262 154.041 120.279L153.429 120.593C153.402 120.606 153.379 120.625 153.36 120.649C153.342 120.672 153.329 120.7 153.323 120.729C153.316 120.758 153.316 120.788 153.323 120.817C153.329 120.846 153.342 120.873 153.36 120.897C153.916 121.603 153.99 122.343 153.584 123.117C153.546 123.193 153.54 123.28 153.566 123.359L154.66 126.601C154.669 126.629 154.684 126.654 154.705 126.675C154.726 126.695 154.751 126.711 154.779 126.72C154.807 126.729 154.836 126.732 154.865 126.727C154.894 126.723 154.922 126.711 154.946 126.694L157.662 124.8C157.894 124.639 158.069 124.407 158.159 124.139L161.156 115.239C161.181 115.163 161.231 115.097 161.297 115.05C161.363 115.003 161.442 114.979 161.523 114.98C161.603 114.981 161.682 115.007 161.746 115.056C161.811 115.104 161.859 115.172 161.883 115.249C162.206 116.332 161.933 116.457 161.373 117.289C161.346 117.33 161.335 117.38 161.342 117.429C161.35 117.477 161.375 117.522 161.414 117.553L162.119 118.14C162.233 118.233 162.242 118.336 162.147 118.45L161.681 119.025C161.652 119.06 161.638 119.106 161.642 119.151C161.646 119.196 161.668 119.238 161.703 119.267C162.2 119.67 163.182 120.316 162.933 121.148C162.831 121.493 162.461 121.828 162.274 122.189C162.252 122.231 162.246 122.281 162.258 122.328C162.269 122.375 162.297 122.416 162.337 122.443L162.831 122.794C162.873 122.824 162.902 122.869 162.911 122.919C162.92 122.97 162.909 123.022 162.881 123.064L162.526 123.574C162.512 123.594 162.502 123.618 162.498 123.643C162.493 123.668 162.494 123.693 162.499 123.718C162.505 123.743 162.516 123.766 162.531 123.787C162.547 123.807 162.566 123.825 162.588 123.838C163.396 124.303 163.866 125.008 163.996 125.952C164.002 126.008 164.03 126.059 164.074 126.095L166.617 128.132C166.642 128.153 166.673 128.168 166.705 128.176C166.738 128.183 166.772 128.183 166.805 128.176C166.837 128.168 166.868 128.152 166.894 128.131C166.92 128.109 166.941 128.082 166.955 128.051C167.382 127.099 167.812 126.174 168.245 125.275C168.432 124.887 168.282 124.319 168.211 123.878C167.699 120.769 167.105 117.676 166.43 114.6C166.405 114.494 166.431 114.402 166.508 114.323C166.918 113.904 166.604 113.072 166.613 112.529C166.615 112.423 166.653 112.332 166.725 112.255C170.119 108.747 169.128 104.328 165.305 101.766L164.885 103.909C165.43 104.933 165.346 105.712 164.634 106.244C163.769 106.89 162.476 106.514 162.191 105.477C161.894 104.417 162.303 103.714 163.418 103.368L163.965 101.005C163.758 101.08 163.553 100.946 163.35 100.605L161.821 100.307Z" fill="#FFD700"/>
<path d="M220.324 103.935L220.336 103.937C220.468 103.963 220.553 104.091 220.527 104.222L217.272 120.646C217.246 120.777 217.118 120.863 216.987 120.837L216.975 120.834C216.844 120.808 216.758 120.681 216.784 120.55L220.039 104.126C220.065 103.994 220.193 103.909 220.324 103.935Z" fill="white"/>
<path d="M250.643 107.201L273.991 120.506C274.1 120.568 274.138 120.706 274.076 120.815L274.073 120.821C274.011 120.929 273.872 120.967 273.763 120.905L250.415 107.6C250.307 107.538 250.269 107.4 250.331 107.291L250.334 107.286C250.396 107.177 250.534 107.139 250.643 107.201Z" fill="white"/>
</g>
<defs>
<clipPath id="clip0_342_3464">
<rect width="230" height="204" fill="white" transform="matrix(-1 0 0 1 342.333 -32)"/>
</clipPath>
</defs>
</svg>
