<svg
    width="234"
    height="377"
    viewBox="0 0 234 377"
    fill="none"
    xmlns="http://www.w3.org/2000/svg"
>
    <path
        d="M-8.09149 155.973C-8.15938 115.896 -8.15938 75.8071 -8.09149 35.706C-8.06754 24.1689 -11.9173 14.8826 -19.6409 7.84714C-23.0354 4.75581 -24.7367 3.20605 -24.7447 3.19785C-41.2061 -14.6306 -34.9342 -43.787 -12.5543 -52.6736C4.17076 -59.3216 23.0044 -51.2591 30.2228 -34.3839C36.3869 -19.9502 32.3074 -3.91753 20.5963 6.26663C18.2481 8.31248 16.6766 9.79869 15.8819 10.7253C12.0081 15.2475 9.42229 20.4051 8.12439 26.1983C7.5573 28.7115 7.27376 32.5101 7.27376 37.594C7.28175 76.9449 7.28574 116.339 7.28574 155.776C7.28502 155.802 7.29315 155.828 7.30882 155.85C7.32449 155.871 7.34674 155.886 7.3719 155.892C7.39705 155.899 7.4236 155.896 7.44714 155.885C7.47069 155.874 7.48982 155.855 7.50139 155.831C26.8622 121.417 46.233 86.9794 65.6138 52.5197C67.7823 48.6576 69.218 45.5458 69.9208 43.1842C72.0734 35.952 71.9156 28.7177 69.4476 21.4814C68.2096 17.853 67.5187 15.7169 67.3749 15.0732C62.9481 -4.95071 75.7075 -24.4088 95.6673 -27.0533C118.287 -30.0421 137.031 -9.65534 132.957 13.3267C130.339 28.0617 119.257 38.578 104.94 41.1978C101.861 41.7595 99.7946 42.2269 98.7404 42.6C92.8938 44.6868 87.9897 48.0651 84.0281 52.7349C82.5025 54.5389 80.324 57.9623 77.4926 63.0052C58.627 96.6039 39.7834 130.117 20.9617 163.543C20.75 163.924 20.8299 164.004 21.2013 163.783C54.1163 144.263 87.0811 124.729 120.096 105.181C124.816 102.389 128.113 100.095 129.986 98.2992C134.235 94.2362 137.282 89.302 139.127 83.4965C139.455 82.4674 139.846 80.4626 140.301 77.4819C143.231 58.2698 160.705 45.3244 179.478 48.6883C194.322 51.3512 205.872 64.3828 206.974 79.8435C208.663 103.619 187.422 121.822 164.988 115.943C162.166 115.205 158.44 113.317 155.187 112.69C149.481 111.587 143.884 111.868 138.396 113.532C136.284 114.176 133.668 115.42 130.549 117.265C96.5998 137.375 62.6745 157.479 28.7731 177.577C28.7512 177.589 28.7338 177.607 28.7238 177.63C28.7138 177.654 28.7118 177.679 28.7181 177.704C28.7244 177.728 28.7386 177.75 28.7584 177.765C28.7783 177.78 28.8025 177.787 28.827 177.786C66.9496 177.774 105.098 177.778 143.273 177.798C148.696 177.802 152.663 177.507 155.175 176.913C160.774 175.584 165.748 172.93 170.097 168.949C170.868 168.239 172.3 166.587 174.392 163.992C185.732 149.915 205.56 147.098 219.967 157.731C234.667 168.574 238.399 189.397 228.389 204.845C215.858 224.193 189.015 225.331 174.542 207.564C173.224 205.94 171.996 204.317 170.541 202.939C165.94 198.605 160.675 195.772 154.744 194.44C152.316 193.895 148.342 193.624 142.823 193.628C48.6191 193.636 -45.5811 193.636 -139.777 193.628C-146.642 193.628 -150.634 193.686 -151.752 193.8C-160.554 194.715 -167.914 198.603 -173.832 205.467C-176.692 208.775 -178.235 210.538 -178.463 210.755C-185.723 217.701 -194.27 220.79 -204.102 220.023C-229.423 218.049 -243.195 189.003 -229.758 167.178C-217.64 147.486 -190.294 145.961 -175.743 163.66C-174.318 165.394 -173 167.202 -171.43 168.654C-166.97 172.778 -161.864 175.55 -156.113 176.968C-153.948 177.505 -151.019 177.774 -147.325 177.774C-108.072 177.786 -68.8396 177.79 -29.6268 177.786C-29.6026 177.785 -29.5791 177.776 -29.5598 177.76C-29.5405 177.745 -29.5265 177.724 -29.5198 177.7C-29.513 177.677 -29.514 177.652 -29.5225 177.63C-29.531 177.608 -29.5465 177.589 -29.5669 177.577C-62.2502 158.234 -94.8757 138.89 -127.443 119.547C-132.363 116.628 -135.914 114.771 -138.094 113.975C-145.298 111.359 -152.623 111.312 -160.067 113.834C-164.164 115.224 -166.349 115.951 -166.62 116.017C-187.868 121.023 -207.894 105.218 -208.037 82.7216C-208.223 54.3892 -176.6 38.0614 -154.496 54.9919C-147.491 60.3587 -143.134 67.6053 -141.425 76.7317C-140.742 80.3806 -140.271 82.613 -140.011 83.4289C-138.038 89.55 -134.755 94.6954 -130.163 98.865C-128.362 100.497 -125.035 102.75 -120.183 105.624C-87.3438 125.045 -54.5486 144.481 -21.7974 163.93C-21.7771 163.943 -21.7535 163.948 -21.7302 163.945C-21.7068 163.942 -21.685 163.932 -21.6681 163.915C-21.6511 163.898 -21.6399 163.876 -21.6362 163.852C-21.6326 163.829 -21.6366 163.804 -21.6476 163.783C-40.8407 129.68 -59.9959 95.6179 -79.1131 61.5969C-81.6889 57.0132 -83.8414 53.7722 -85.5707 51.8739C-89.4085 47.6592 -94.047 44.5761 -99.4862 42.6246C-102.092 41.6959 -105.123 41.2839 -108.112 40.6935C-129.031 36.5485 -140.179 12.4042 -131.523 -7.11545C-120.249 -32.539 -85.5347 -34.4454 -71.9666 -10.1166C-66.6831 -0.641708 -65.9802 9.46865 -69.858 20.2145C-70.8284 22.9122 -71.4234 24.8822 -71.6431 26.1245C-72.6575 31.9792 -72.338 37.6739 -70.6846 43.2088C-69.9219 45.7507 -68.1847 49.4304 -65.473 54.2478C-46.3878 88.1335 -27.3065 122.054 -8.22926 156.009C-8.22261 156.026 -8.21039 156.039 -8.19485 156.047C-8.17932 156.055 -8.16151 156.057 -8.14473 156.053C-8.12794 156.048 -8.11333 156.037 -8.10355 156.023C-8.09375 156.008 -8.08948 155.99 -8.09149 155.973ZM-77.4957 32.1145C-76.5053 30.7492 -75.401 29.4864 -74.183 28.3262C-74.1431 28.2893 -74.1211 28.2237 -74.1171 28.1294C-74.1051 27.9736 -74.151 27.951 -74.2549 28.0617L-77.3639 31.438C-77.5116 31.5979 -77.5875 31.7865 -77.5915 32.0038C-77.5915 32.1309 -77.5795 32.2539 -77.5556 32.3728C-77.5516 32.3851 -77.5496 32.3851 -77.5496 32.3728C-77.5536 32.3318 -77.5516 32.2867 -77.5436 32.2375C-77.5396 32.1924 -77.5236 32.1514 -77.4957 32.1145ZM-141.167 86.8236C-141.263 88.4225 -141.892 90.0707 -142.126 91.7066C-142.126 91.7115 -142.125 91.7165 -142.122 91.7205C-142.12 91.7245 -142.115 91.7273 -142.111 91.7281C-142.106 91.7289 -142.101 91.7277 -142.097 91.7249C-142.093 91.722 -142.09 91.7176 -142.09 91.7127C-141.303 89.3922 -140.949 87.0942 -141.029 84.8187C-141.033 84.708 -141.039 84.708 -141.047 84.8187C-141.079 85.4378 -141.119 86.1061 -141.167 86.8236ZM-150.033 106.257C-151.123 107.081 -152.008 107.924 -152.687 108.785C-152.694 108.792 -152.698 108.802 -152.698 108.812C-152.698 108.823 -152.694 108.833 -152.687 108.84C-152.679 108.847 -152.67 108.852 -152.66 108.852C-152.649 108.852 -152.64 108.847 -152.633 108.84C-151.73 108.02 -150.839 107.19 -149.961 106.349C-149.953 106.338 -149.95 106.325 -149.95 106.312C-149.95 106.299 -149.955 106.286 -149.963 106.276C-149.971 106.265 -149.982 106.258 -149.995 106.254C-150.008 106.251 -150.021 106.252 -150.033 106.257Z"
        fill="white"
        fill-opacity="0.2"
    />
    <path
        d="M51.8537 264.844C33.683 267.545 19.6436 276.362 9.73553 291.294C3.94885 300.015 0.450485 310.186 -0.208454 320.641C-0.208454 320.693 -0.228645 320.743 -0.264595 320.78C-0.300545 320.817 -0.349293 320.838 -0.400131 320.838C-0.450974 320.838 -0.499737 320.817 -0.535686 320.78C-0.571636 320.743 -0.591827 320.693 -0.591827 320.641C-1.57425 306.312 -7.69638 292.653 -17.5924 282.42C-28.2672 271.387 -40.799 266.178 -55.9067 264.259C-55.9131 264.259 -55.9192 264.257 -55.9236 264.252C-55.9281 264.247 -55.9307 264.241 -55.9307 264.235C-55.9307 264.228 -55.9281 264.222 -55.9236 264.217C-55.9192 264.213 -55.9131 264.21 -55.9067 264.21C-25.6674 261.984 -3.01194 238.178 -0.436092 207.275C-0.434502 207.251 -0.423817 207.228 -0.406403 207.212C-0.388988 207.195 -0.366261 207.185 -0.343224 207.185C-0.320187 207.185 -0.298717 207.195 -0.283554 207.212C-0.268391 207.228 -0.260777 207.251 -0.262367 207.275C1.373 237.514 25.3943 262.261 54.8668 264.167C54.8731 264.166 54.8795 264.167 54.8856 264.168C54.8917 264.17 54.8974 264.173 54.9025 264.177C54.9075 264.181 54.9116 264.186 54.9148 264.192C54.9179 264.197 54.9199 264.204 54.9207 264.21C54.9215 264.217 54.9211 264.223 54.9194 264.229C54.9177 264.236 54.9148 264.242 54.9109 264.247C54.907 264.252 54.9022 264.256 54.8967 264.259C54.8912 264.263 54.8851 264.265 54.8788 264.265C53.8844 264.499 52.876 264.692 51.8537 264.844Z"
        fill="white"
        fill-opacity="0.2"
    />
    <path
        d="M111.871 348.986C116.987 392.564 74.4073 416.229 40.0766 424.346C18.7869 429.381 -2.72844 430.638 -24.4694 428.116C-57.8896 424.236 -96.9287 409.279 -110.006 374.286C-112.905 366.525 -113.784 358.104 -112.641 349.023C-112.636 348.977 -112.641 348.931 -112.657 348.888C-112.673 348.845 -112.699 348.807 -112.732 348.777C-112.765 348.748 -112.805 348.727 -112.848 348.717C-112.89 348.707 -112.935 348.709 -112.977 348.722C-140.748 356.999 -172.293 350.782 -190.69 326.846C-210.368 301.245 -206.199 267.033 -185.011 244.045C-184.986 244.018 -184.954 244 -184.918 243.994C-184.883 243.988 -184.846 243.994 -184.815 244.012C-184.783 244.029 -184.758 244.057 -184.744 244.091C-184.729 244.125 -184.726 244.163 -184.735 244.199C-192.535 281.584 -180.093 320.42 -138.424 326.072C-121.801 328.322 -106.669 323.132 -98.6539 307.198C-92.975 295.907 -91.9567 281.571 -96.9945 269.917C-100.709 261.338 -109.185 257.015 -117.787 261.486C-118.019 261.605 -118.027 261.74 -117.811 261.892C-108.484 268.22 -104.644 279.001 -112.072 288.637C-119.47 298.237 -133.47 299.24 -142.994 292.69C-153.268 285.63 -156.515 272.746 -151.818 260.895C-140.353 231.917 -102.146 229.734 -84.1513 253.054C-73.9836 266.223 -69.8663 281.508 -71.7991 298.908C-71.8271 299.162 -71.7213 299.256 -71.4816 299.191C-59.1295 295.814 -45.3817 295.814 -34.5272 303.508C-18.3053 315.008 -17.0653 339.651 -28.5788 354.779C-34.7488 362.885 -46.1784 365.824 -55.6432 363.875C-64.7126 362.005 -70.2656 354.133 -68.9178 344.841C-67.2465 333.353 -56.7933 328.144 -46.7835 333.636C-46.7547 333.651 -46.7232 333.659 -46.691 333.66C-46.6588 333.661 -46.6268 333.655 -46.5972 333.642C-46.5675 333.63 -46.541 333.61 -46.5193 333.586C-46.4977 333.561 -46.4816 333.532 -46.472 333.501C-44.3094 326.367 -46.6756 318.212 -54.2654 315.943C-67.0907 312.093 -80.4672 321.293 -86.5354 332.547C-90.9443 340.727 -92.0585 349.841 -91.4714 359.349C-89.5306 390.977 -52.8038 404.199 -27.6203 408.16C-4.94087 411.731 17.5189 410.7 39.7591 405.066C53.1415 401.678 66.6258 395.854 77.055 386.408C90.1199 374.576 93.9658 356.495 88.862 339.687C85.2139 327.652 75.4735 317.8 63.1334 315.445C51.6679 313.261 41.8557 320.654 45.6416 333.396C45.6541 333.435 45.6742 333.47 45.7008 333.5C45.7274 333.53 45.7598 333.554 45.796 333.57C45.8321 333.586 45.8712 333.594 45.9106 333.594C45.9501 333.594 45.9891 333.585 46.025 333.568C54.2018 329.719 62.2528 330.918 66.4221 339.65C68.4309 343.865 68.8143 348.152 67.5723 352.51C65.0324 361.39 56.6519 364.662 48.3133 364.379C39.9588 364.096 33.3015 361.091 28.3415 355.363C18.8468 344.404 17.6727 326.754 24.4238 314.086C33.3494 297.346 53.9083 294.08 70.6094 299.24C70.833 299.305 70.9309 299.219 70.9029 298.982C67.9197 273.017 81.1764 242.723 108.498 237.717C120.922 235.441 134.532 239.476 143.446 248.774C150.203 255.828 154.756 267.199 152.569 277.211C149.844 289.652 138.618 297.807 126.374 296.811C117.598 296.091 107.833 288.705 107.378 278.841C107.025 271.203 111.224 266.018 116.975 261.83C117.166 261.687 117.156 261.564 116.945 261.461C109.235 257.741 102.328 260.108 97.7996 266.984C90.3955 278.226 92.1926 296.282 97.8296 307.265C107.756 326.619 127.296 329.399 146.268 324.38C181.706 315.008 190.806 277.396 183.911 244.211C183.903 244.17 183.909 244.129 183.927 244.092C183.944 244.055 183.973 244.025 184.009 244.006C184.045 243.987 184.086 243.981 184.125 243.988C184.165 243.995 184.201 244.015 184.228 244.045C198 259.149 205.099 279.031 201.726 299.646C198.677 318.231 186.918 334.312 170.906 343.26C153.192 353.162 131.334 354.681 112.099 348.789C111.923 348.736 111.847 348.801 111.871 348.986Z"
        fill="white"
        fill-opacity="0.2"
    />
</svg>