<svg width="102" height="903" viewBox="0 0 102 903" fill="none" xmlns="http://www.w3.org/2000/svg">
<path opacity="0.2" fill-rule="evenodd" clip-rule="evenodd" d="M-67.6593 -34.1578L-34.579 -67.6477L-46.1651 -79.0921L-85.0087 -39.7676L-90.772 -33.9329L-84.8962 -28.2115L-58.7444 -2.74684L-82.4333 20.9863L-88.2158 26.7796L-82.3924 32.5317L-45.2526 69.2173L-33.8082 57.6312L-65.1247 26.6978L-47.0758 8.61519L-6.47434 48.1497L-31.5636 72.7228L-37.478 78.5155L-31.5883 84.3332L-6.59278 109.023L-49.1585 152.161L-69.8914 131.972L-36.8112 98.4826L-48.3973 87.0382L-87.2408 126.363L-93.0041 132.197L-87.1284 137.919L-60.5971 163.753L-85.0196 188.504L-90.7388 194.3L-84.9428 200.019L-48.2087 236.266L-36.7704 224.674L-67.7084 194.146L-48.9291 175.114L-8.70646 214.28L-33.7958 238.853L-39.7101 244.646L-33.8204 250.463L-8.67477 275.301L-51.981 318.427L-72.5095 298.438L-39.4292 264.948L-51.0153 253.503L-89.8589 292.828L-95.6222 298.663L-89.7464 304.384L-63.5219 329.919L-87.2661 353.564L-93.0837 359.358L-87.2426 365.127L-50.1028 401.813L-38.6584 390.227L-69.9572 359.311L-51.8528 341.282L-11.7548 380.326L-36.5123 405.416L-42.2285 411.209L-36.4385 416.929L-9.87301 443.169L-52.1466 485.521L-72.5671 465.638L-39.4868 432.148L-51.0729 420.703L-89.9165 460.028L-95.6798 465.862L-89.804 471.584L-63.6522 497.049L-87.3411 520.782L-93.1236 526.575L-87.3002 532.327L-50.1604 569.013L-38.716 557.427L-70.0325 526.493L-51.9835 508.411L-11.3821 547.945L-36.4714 572.518L-42.3858 578.311L-36.4961 584.129L-10.7018 609.607L-53.3562 652.341L-73.7767 632.457L-40.6964 598.968L-52.2825 587.523L-91.1261 626.848L-96.8894 632.682L-91.0136 638.404L-64.8618 663.868L-88.5507 687.602L-94.3332 693.395L-88.5098 699.147L-51.37 735.833L-39.9256 724.246L-71.2421 693.313L-53.1931 675.23L-12.5917 714.765L-37.681 739.338L-43.5954 745.131L-37.7057 750.948L-13.2936 775.062L-56.0495 817.898L-76.47 798.014L-43.3898 764.524L-54.9759 753.079L-93.8194 792.404L-99.5827 798.239L-93.707 803.96L-67.5551 829.425L-91.2441 853.158L-97.0266 858.951L-91.2032 864.703L-54.0634 901.389L-42.619 889.803L-73.9354 858.869L-55.8865 840.787L-15.2851 880.321L-40.3744 904.894L-46.2887 910.687L-40.399 916.505L-15.415 941.183L-58.0499 983.897L-78.4704 964.014L-45.3902 930.524L-56.9762 919.079L-95.8198 958.404L-101.583 964.239L-95.7073 969.96L-69.5555 995.425L-93.2445 1019.16L-99.0269 1024.95L-93.2036 1030.7L-56.0638 1067.39L-44.6194 1055.8L-75.9358 1024.87L-57.8869 1006.79L-17.2855 1046.32L-42.3748 1070.89L-48.2891 1076.69L-42.3994 1082.5L-11.2675 1113.26L-5.47445 1118.98L0.247756 1113.18L30.9989 1082.05L36.7622 1076.22L30.8864 1070.5L6.02338 1046.29L48.0016 1005.17L66.6626 1023.95L36.1049 1055.35L47.7755 1066.71L83.9182 1029.57L89.5033 1023.83L83.8587 1018.15L59.6365 993.777L85.035 968.901L90.8666 963.19L85.1406 957.372L46.9018 918.522L35.2953 929.946L67.8082 962.978L48.1569 982.225L7.77507 941.59L32.9993 916.053L38.7626 910.218L32.8868 904.497L8.02375 880.287L50.002 839.173L68.663 857.951L38.1053 889.349L49.7758 900.707L85.9186 863.571L91.5037 857.832L85.8591 852.152L61.6368 827.777L87.0353 802.901L92.867 797.19L87.141 791.372L48.9021 752.522L37.2957 763.946L69.8086 796.978L50.1572 816.225L10.3427 776.16L35.6926 750.497L41.456 744.662L35.5802 738.941L10.7171 714.731L52.6954 673.616L71.3563 692.395L40.7987 723.793L52.4692 735.151L88.612 698.014L94.1971 692.276L88.5524 686.596L64.3302 662.221L89.7287 637.345L95.5603 631.633L89.8343 625.816L51.5955 586.966L39.9891 598.389L72.5019 631.422L52.8506 650.669L11.6661 609.226L36.9022 583.677L42.6656 577.842L36.7898 572.121L11.9267 547.911L53.905 506.797L72.5659 525.575L42.0083 556.973L53.6788 568.331L89.8215 531.195L95.4067 525.456L89.762 519.776L65.5398 495.401L90.9383 470.525L96.7699 464.814L91.0439 458.996L52.8051 420.146L41.1987 431.57L73.7115 464.602L54.0602 483.849L12.1096 441.635L36.9598 416.477L42.7231 410.642L36.8474 404.921L11.3518 380.095L53.2367 337.648L72.8088 356.96L42.5679 387.607L54.16 399.046L90.12 362.602L95.8392 356.806L90.0432 351.087L64.675 326.055L89.6807 300.714L95.3998 294.918L89.6038 289.199L52.5714 252.657L41.1331 264.249L72.3694 295.072L53.083 314.617L13.927 275.98L39.5779 250.012L45.3412 244.177L39.4654 238.456L14.6023 214.246L56.5806 173.131L75.2416 191.91L44.6839 223.308L56.3544 234.666L92.4972 197.529L98.0823 191.791L92.4377 186.111L68.2154 161.736L93.6139 136.86L99.4456 131.148L93.7196 125.331L55.4807 86.4807L43.8743 97.9045L76.3872 130.937L56.7358 150.184L16.4057 109.6L41.81 83.8816L47.5733 78.0469L41.6975 72.3255L16.8345 48.1157L58.8127 7.00122L77.4737 25.7795L46.916 57.1774L58.5866 68.5356L94.7293 31.3991L100.314 25.6605L94.6698 19.9804L70.4476 -4.39423L95.8461 -29.2701L101.678 -34.9817L95.9517 -40.7993L57.7129 -79.6495L46.1064 -68.2257L78.6193 -35.193L58.968 -15.946L7.27201 -67.9672L6.89098 -67.5885L6.43293 -68.0457L-47.2388 -14.2739L-67.6593 -34.1578ZM-35.5701 -2.91189L5.16347 36.7514L47.3331 -4.5506L6.78886 -45.3499L-35.5701 -2.91189ZM5.19668 59.5141L-14.2542 78.5647L5.19497 97.776L24.4606 78.2719L5.19668 59.5141ZM2.93134 202.882L-37.4905 163.522L4.62082 120.845L45.101 161.58L2.93134 202.882ZM-16.4863 244.695L2.96455 225.644L22.2285 244.402L2.96284 263.906L-16.4863 244.695ZM0.255689 536.547L-40.4779 496.884L1.88108 454.446L42.4254 495.245L0.255689 536.547ZM-19.1619 578.36L0.288903 559.31L19.5528 578.067L0.287188 597.571L-19.1619 578.36ZM2.28446 287.371L41.6446 326.209L-0.316213 368.734L-40.3118 329.789L2.28446 287.371ZM-19.204 411.062L-0.0868278 391.688L19.6104 410.867L0.344771 430.371L-19.204 411.062ZM0.593416 476.085L19.9032 495.159L1.59251 513.697L-17.7173 494.623L0.593416 476.085ZM-0.953913 703.367L-41.6875 663.703L0.671475 621.265L41.2158 662.065L-0.953913 703.367ZM-20.3716 745.18L-0.920699 726.129L18.3432 744.887L-0.922414 764.391L-20.3716 745.18ZM-0.615857 642.905L18.694 661.979L0.383249 680.516L-18.9266 661.443L-0.615857 642.905ZM-3.64727 868.923L-44.3809 829.26L-2.02188 786.822L38.5224 827.621L-3.64727 868.923ZM-23.0649 910.736L-3.61406 891.686L15.6499 910.443L-3.61577 929.948L-23.0649 910.736ZM-3.30921 808.462L16.0006 827.535L-2.31011 846.073L-21.6199 826.999L-3.30921 808.462ZM-5.64765 1034.92L-46.3813 995.259L-4.02226 952.822L36.522 993.621L-5.64765 1034.92ZM-25.0653 1076.74L-5.61443 1057.69L13.6495 1076.44L-5.61614 1095.95L-25.0653 1076.74ZM-5.3096 974.462L14.0002 993.535L-4.31049 1012.07L-23.6203 992.999L-5.3096 974.462ZM22.5794 161.495L3.26958 142.421L-15.0411 160.958L4.26868 180.032L22.5794 161.495ZM5.50121 -23.7098L24.8111 -4.63613L6.50031 13.9013L-12.8095 -5.17236L5.50121 -23.7098ZM19.9677 329.045L0.657904 309.972L-17.6528 328.509L1.657 347.583L19.9677 329.045Z" fill="white"/>
</svg>
