<svg width="166" height="105" viewBox="0 0 166 105" fill="none" xmlns="http://www.w3.org/2000/svg">
<path fill-rule="evenodd" clip-rule="evenodd" d="M8.9008 177.279V201.752L0.434331 201.752L0.434331 173.016L0.434329 168.752L4.69788 168.783L23.674 168.918L23.583 151.486L23.5608 147.23L27.8161 147.23L54.9559 147.23L54.9559 155.697H32.0715L32.1409 168.979L61.6018 169.19L61.2997 150.935L61.2285 146.632L65.5324 146.632L83.7521 146.632L83.5876 115.124L68.7702 115.018L68.7702 139.49L60.3037 139.49L60.3037 110.754L60.3037 106.49L64.5673 106.521L83.5434 106.657L83.4524 89.2239L83.4301 84.9686L87.6855 84.9686L114.825 84.9686L114.825 93.4351L91.9409 93.4351L92.0103 106.717L121.471 106.928L121.169 88.6732L121.098 84.3699L125.402 84.3699L143.777 84.3699L143.515 52.5974L128.619 52.4908L128.619 76.9633L120.152 76.9633L120.152 48.2271L120.152 43.9635L124.416 43.994L143.445 44.1302L143.301 26.7099L143.266 22.4417L147.534 22.4418L174.674 22.4418L174.674 30.9082L151.803 30.9082L151.912 44.1909L181.32 44.4014L181.018 26.1464L180.947 21.8431L185.251 21.8431L204.663 21.8431L204.501 -9.266L189.683 -9.37208L189.683 15.1004L181.217 15.1004L181.217 -13.6357L181.217 -17.8994L185.48 -17.8689L204.457 -17.733L204.366 -35.1658L204.343 -39.4211L208.599 -39.4211L235.738 -39.4211L235.738 -30.9546L212.854 -30.9546L212.923 -17.6724L242.384 -17.4615L242.082 -35.7165L242.011 -40.0198L246.315 -40.0198L269.064 -40.0198L273.298 -40.0198L273.298 -35.7865L273.298 -13.0371L273.298 -8.77341L269.034 -8.80394L250.993 -8.9331L251.499 21.6104L265.261 21.4825L265.43 -1.29458L273.896 -1.23185L273.697 25.7083L273.666 29.8713L269.503 29.91L251.639 30.0759L251.945 48.5559L252.015 52.799L247.771 52.8588L219.434 53.2579L219.315 44.7923L243.409 44.4529L243.172 30.1546L212.233 30.4419L212.233 48.8258L212.233 53.0894L207.97 53.0589L189.929 52.9297L190.434 83.4732L204.197 83.3454L204.366 60.5683L212.832 60.631L212.632 87.5712L212.601 91.7342L208.438 91.7729L190.574 91.9388L190.88 110.419L190.95 114.662L186.707 114.722L158.37 115.121L158.251 106.655L182.345 106.316L182.108 92.0174L152.384 92.2935L152.384 111.353V115.616L148.121 115.586L130.08 115.457L130.585 146L144.348 145.872L144.517 123.095L152.983 123.158L152.783 150.098L152.753 154.261L148.59 154.3L130.726 154.466L131.031 172.946L131.102 177.189L126.858 177.248L98.5212 177.648L98.402 169.182L122.496 168.843L122.259 154.544L92.5151 154.82V173.614V177.878L88.2515 177.847L70.2106 177.718L70.716 208.262L84.4787 208.134L84.6474 185.357L93.1136 185.42L92.9141 212.36L92.8832 216.523L88.7203 216.561L70.8561 216.727L71.1619 235.207L71.2322 239.45L66.9889 239.51L38.6518 239.909L38.5326 231.444L62.6264 231.104L62.3898 216.806L24.2634 217.16L24.2609 216.881L23.9244 216.883L23.7182 177.385L8.9008 177.279ZM32.1851 177.446L61.7419 177.658L62.2497 208.34L32.3478 208.618L32.1851 177.446ZM70.0704 169.251L69.8362 155.098L84.0486 155.098V169.351L70.0704 169.251ZM121.611 115.396L92.0545 115.184L92.2172 146.356L122.119 146.079L121.611 115.396ZM129.706 92.8364L129.94 106.989L143.918 107.089V92.8364L129.706 92.8364ZM242.525 -8.99375L212.968 -9.20536L213.13 21.9667L243.032 21.689L242.525 -8.99375ZM250.619 -31.5533L250.853 -17.4008L264.831 -17.3007V-31.5533L250.619 -31.5533ZM181.46 52.8691L151.982 52.658L152.239 83.828L181.968 83.5519L181.46 52.8691ZM189.554 30.3096L189.789 44.4621L203.767 44.5621L203.767 30.3096L189.554 30.3096ZM220.56 13.4923L234.671 13.4923L234.671 -0.0540068L220.56 -0.054023L220.56 13.4923ZM113.758 137.882H99.6474L99.6474 124.335L113.758 124.335L113.758 137.882ZM39.7779 200.144L53.8887 200.144L53.8887 186.597H39.7779V200.144ZM174.006 74.956L159.895 74.956L159.895 61.4096L174.006 61.4096L174.006 74.956Z" fill="#DEEDFF"/>
</svg>
