<svg width="97" height="105" viewBox="0 0 97 105" fill="none" xmlns="http://www.w3.org/2000/svg">
<path fill-rule="evenodd" clip-rule="evenodd" d="M-168.099 159.279V183.752L-176.566 183.752L-176.566 155.016L-176.566 150.752L-172.302 150.783L-153.326 150.918L-153.417 133.486L-153.439 129.23L-149.184 129.23L-122.044 129.23L-122.044 137.697H-144.928L-144.859 150.979L-115.398 151.19L-115.7 132.935L-115.771 128.632L-111.468 128.632L-93.2479 128.632L-93.4124 97.1237L-108.23 97.0176L-108.23 121.49L-116.696 121.49L-116.696 92.7539L-116.696 88.4903L-112.433 88.5208L-93.4566 88.6567L-93.5476 71.2239L-93.5699 66.9686L-89.3145 66.9686L-62.1747 66.9686L-62.1747 75.4351L-85.0591 75.4351L-84.9897 88.7173L-55.5288 88.9282L-55.8309 70.6732L-55.9021 66.3699L-51.5982 66.3699L-33.2233 66.3699L-33.4853 34.5974L-48.3811 34.4908L-48.3811 58.9633L-56.8475 58.9633L-56.8475 30.2271L-56.8475 25.9635L-52.584 25.994L-33.5551 26.1302L-33.6988 8.70991L-33.734 4.44175L-29.4657 4.44176L-2.32601 4.44176L-2.326 12.9082L-25.1974 12.9082L-25.0879 26.1909L4.31994 26.4014L4.01786 8.14636L3.94664 3.84308L8.25051 3.84309L27.6632 3.84308L27.5008 -27.266L12.6834 -27.3721L12.6834 -2.89956L4.21691 -2.89957L4.21691 -31.6357L4.21691 -35.8994L8.48046 -35.8689L27.4566 -35.733L27.3656 -53.1658L27.3433 -57.4211L31.5987 -57.4211L58.7384 -57.4211L58.7385 -48.9546L35.8541 -48.9546L35.9235 -35.6724L65.3844 -35.4615L65.0823 -53.7165L65.0111 -58.0198L69.315 -58.0198L92.0644 -58.0198L96.2977 -58.0198L96.2977 -53.7865L96.2977 -31.0371L96.2977 -26.7734L92.0341 -26.8039L73.9931 -26.9331L74.4986 3.61037L88.2613 3.48254L88.43 -19.2946L96.8962 -19.2318L96.6966 7.70831L96.6658 11.8713L92.5028 11.91L74.6387 12.0759L74.9445 30.5559L75.0147 34.799L70.7715 34.8588L42.4344 35.2579L42.3152 26.7923L66.409 26.4529L66.1724 12.1546L35.2332 12.4419L35.2332 30.8258L35.2332 35.0894L30.9697 35.0589L12.9287 34.9297L13.4342 65.4732L27.1968 65.3454L27.3655 42.5683L35.8318 42.631L35.6322 69.5712L35.6014 73.7342L31.4384 73.7729L13.5742 73.9388L13.8801 92.4188L13.9503 96.6619L9.70702 96.7217L-18.63 97.1208L-18.7493 88.6551L5.34453 88.3158L5.10792 74.0174L-24.6155 74.2935L-24.6155 93.3526V97.6163L-28.8791 97.5858L-46.92 97.4566L-46.4146 128L-32.6519 127.872L-32.4832 105.095L-24.017 105.158L-24.2165 132.098L-24.2474 136.261L-28.4103 136.3L-46.2745 136.466L-45.9687 154.946L-45.8985 159.189L-50.1417 159.248L-78.4788 159.648L-78.598 151.182L-54.5042 150.843L-54.7408 136.544L-84.4849 136.82V155.614V159.878L-88.7485 159.847L-106.789 159.718L-106.284 190.262L-92.5213 190.134L-92.3526 167.357L-83.8864 167.42L-84.0859 194.36L-84.1168 198.523L-88.2797 198.561L-106.144 198.727L-105.838 217.207L-105.768 221.45L-110.011 221.51L-138.348 221.909L-138.467 213.444L-114.374 213.104L-114.61 198.806L-152.737 199.16L-152.739 198.881L-153.076 198.883L-153.282 159.385L-168.099 159.279ZM-144.815 159.446L-115.258 159.658L-114.75 190.34L-144.652 190.618L-144.815 159.446ZM-106.93 151.251L-107.164 137.098L-92.9514 137.098V151.351L-106.93 151.251ZM-55.3887 97.3959L-84.9455 97.1843L-84.7828 128.356L-54.8809 128.079L-55.3887 97.3959ZM-47.2944 74.8364L-47.0602 88.9889L-33.082 89.089V74.8364L-47.2944 74.8364ZM65.5245 -26.9937L35.9677 -27.2054L36.1304 3.96673L66.0323 3.68901L65.5245 -26.9937ZM73.6188 -49.5533L73.853 -35.4008L87.8312 -35.3007V-49.5533L73.6188 -49.5533ZM4.46007 34.8691L-25.018 34.658L-24.761 65.828L4.96782 65.5519L4.46007 34.8691ZM12.5544 12.3096L12.7886 26.4621L26.7667 26.5621L26.7667 12.3096L12.5544 12.3096ZM43.5603 -4.50765L57.6711 -4.50766L57.6711 -18.054L43.5603 -18.054L43.5603 -4.50765ZM-63.2419 119.882H-77.3526L-77.3526 106.335L-63.2419 106.335L-63.2419 119.882ZM-137.222 182.144L-123.111 182.144L-123.111 168.597H-137.222V182.144ZM-2.99414 56.956L-17.1049 56.956L-17.1049 43.4096L-2.99414 43.4096L-2.99414 56.956Z" fill="#DEEDFF"/>
</svg>
