<svg width="396" height="158" viewBox="0 0 396 158" fill="none" xmlns="http://www.w3.org/2000/svg">
<path fill-rule="evenodd" clip-rule="evenodd" d="M40.7634 266.584L40.7634 302.339L28.3937 302.339L28.3937 260.355V254.126L34.6228 254.17L62.3473 254.369L62.2143 228.899L62.1818 222.682L68.399 222.682L108.051 222.682L108.051 235.052L74.6162 235.052L74.7176 254.458L117.76 254.766L117.319 228.095L117.215 221.808L123.503 221.808L150.122 221.808L149.882 175.774L128.234 175.619L128.234 211.374L115.864 211.374L115.864 169.39L115.864 163.16L122.093 163.205L149.817 163.404L149.684 137.934L149.652 131.717L155.869 131.717L195.521 131.717L195.521 144.087L162.086 144.087L162.188 163.492L205.231 163.8L204.789 137.129L204.685 130.842L210.973 130.842L237.819 130.842L237.437 84.422L215.674 84.2662L215.674 120.021L203.304 120.021L203.304 78.0369L203.304 71.8076L209.533 71.8522L237.335 72.0513L237.125 46.5999L237.073 40.364L243.309 40.3641L282.961 40.364L282.961 52.7337L249.545 52.7337L249.705 72.1399L292.671 72.4475L292.229 45.7765L292.125 39.4894L298.413 39.4894L326.776 39.4894L326.538 -5.9615L304.89 -6.11651L304.89 29.6383L292.52 29.6383L292.52 -12.3458L292.52 -18.5751L298.749 -18.5305L326.474 -18.332L326.341 -43.8015L326.308 -50.0187L332.526 -50.0187L372.177 -50.0187L372.177 -37.649L338.743 -37.649L338.844 -18.2434L381.887 -17.9352L381.446 -44.6061L381.342 -50.8933L387.63 -50.8933L420.867 -50.8933L427.052 -50.8933V-44.7085L427.052 -11.4711L427.052 -5.24183L420.823 -5.28643L394.465 -5.47516L395.203 39.1494L415.31 38.9627L415.557 5.68489L427.926 5.77652L427.635 45.1366L427.59 51.2188L421.508 51.2753L395.408 51.5177L395.854 78.5173L395.957 84.7166L389.758 84.8039L348.357 85.387L348.182 73.0186L383.384 72.5228L383.038 51.6326L337.836 52.0525L337.836 78.9116V85.1409L331.606 85.0963L305.248 84.9076L305.987 129.532L326.094 129.345L326.341 96.0676L338.71 96.1592L338.418 135.519L338.373 141.602L332.291 141.658L306.191 141.9L306.638 168.9L306.741 175.099L300.541 175.187L259.14 175.77L258.966 163.401L294.168 162.905L293.822 142.015L250.396 142.419L250.396 170.264V176.494L244.166 176.449L217.808 176.26L218.547 220.885L238.654 220.698L238.901 187.42L251.27 187.512L250.978 226.872L250.933 232.954L244.851 233.011L218.751 233.253L219.198 260.253L219.301 266.452L213.101 266.539L171.7 267.123L171.526 254.754L206.728 254.258L206.382 233.368L162.925 233.772L162.925 261.23L162.925 267.459L156.696 267.415L130.338 267.226L131.077 311.85L151.184 311.664L151.43 278.386L163.8 278.477L163.508 317.837L163.463 323.92L157.381 323.976L131.281 324.219L131.728 351.218L131.831 357.418L125.631 357.505L84.2302 358.088L84.056 345.719L119.257 345.224L118.912 324.334L63.2085 324.851L63.2047 324.443L62.7131 324.445L62.4118 266.739L40.7634 266.584ZM74.7821 266.828L117.965 267.137L118.707 311.965L75.0199 312.371L74.7821 266.828ZM130.133 254.854L129.791 234.177H150.556V255.001L130.133 254.854ZM205.435 176.172L162.252 175.863L162.49 221.406L206.177 221L205.435 176.172ZM217.261 143.212L217.604 163.889L238.026 164.035V143.212L217.261 143.212ZM382.092 -5.56375L338.909 -5.87293L339.146 39.6701L382.834 39.2643L382.092 -5.56375ZM393.918 -38.5237L394.26 -17.8466L414.682 -17.7004L414.682 -38.5236L393.918 -38.5237ZM292.875 84.8189L249.807 84.5106L250.183 130.05L293.617 129.647L292.875 84.8189ZM304.701 51.859L305.044 72.5361L325.466 72.6823L325.466 51.859L304.701 51.859ZM350.002 27.2889H370.618L370.618 7.49741L350.002 7.4974L350.002 27.2889ZM193.962 209.024H173.346L173.346 189.233L193.962 189.233L193.962 209.024ZM85.8753 299.99L106.491 299.99L106.491 280.198L85.8753 280.198L85.8753 299.99ZM281.985 117.088L261.369 117.088L261.369 97.2968L281.985 97.2968V117.088Z" fill="#DEEDFF"/>
</svg>
