<svg width="33" height="33" viewBox="0 0 33 33" fill="none" xmlns="http://www.w3.org/2000/svg">
<rect width="33" height="33" rx="16.5" fill="#99C6FF"/>
<path d="M17.2482 17.2479L23.925 17.2532C24.1248 17.2532 24.3163 17.1739 24.4575 17.0327C24.5988 16.8914 24.6781 16.6999 24.6781 16.5002C24.6781 16.3004 24.5988 16.1089 24.4575 15.9677C24.3163 15.8264 24.1248 15.7471 23.925 15.7471L17.2482 15.7524L17.2535 9.07555C17.2535 8.87582 17.1741 8.68428 17.0329 8.54305C16.8917 8.40182 16.7001 8.32248 16.5004 8.32248C16.3007 8.32248 16.1091 8.40182 15.9679 8.54305C15.8267 8.68428 15.7473 8.87582 15.7473 9.07555L15.7527 15.7524L9.0758 15.7471C8.97679 15.7467 8.87868 15.7659 8.78713 15.8036C8.69558 15.8413 8.6124 15.8968 8.54239 15.9668C8.47238 16.0368 8.41693 16.12 8.37922 16.2115C8.34152 16.3031 8.32232 16.4012 8.32273 16.5002C8.32232 16.5992 8.34152 16.6973 8.37922 16.7888C8.41693 16.8804 8.47238 16.9636 8.54239 17.0336C8.6124 17.1036 8.69558 17.159 8.78713 17.1967C8.87868 17.2344 8.97679 17.2536 9.0758 17.2532L15.7527 17.2479L15.7473 23.9248C15.7469 24.0238 15.7661 24.1219 15.8038 24.2135C15.8415 24.305 15.897 24.3882 15.967 24.4582C16.037 24.5282 16.1202 24.5837 16.2118 24.6214C16.3033 24.6591 16.4014 24.6783 16.5004 24.6779C16.5994 24.6783 16.6975 24.6591 16.7891 24.6214C16.8806 24.5837 16.9638 24.5282 17.0338 24.4582C17.1038 24.3882 17.1593 24.305 17.197 24.2135C17.2347 24.1219 17.2539 24.0238 17.2535 23.9248L17.2482 17.2479Z" fill="white"/>
</svg>
