<svg width="515" height="328" viewBox="0 0 515 328" fill="none" xmlns="http://www.w3.org/2000/svg">
<mask id="mask0_1549_3713" style="mask-type:luminance" maskUnits="userSpaceOnUse" x="98" y="26" width="472" height="465">
<path d="M500.755 422.25C592.774 331.813 592.774 185.187 500.755 94.75C408.737 4.3134 259.545 4.3134 167.527 94.75C75.5079 185.187 75.508 331.813 167.527 422.25C259.545 512.687 408.737 512.687 500.755 422.25Z" fill="white"/>
</mask>
<g mask="url(#mask0_1549_3713)">
<path d="M492.577 417.606C581.948 329.772 581.948 187.365 492.577 99.5306C403.207 11.6966 258.308 11.6965 168.938 99.5306C79.5674 187.365 79.5673 329.772 168.938 417.606C258.308 505.44 403.207 505.44 492.577 417.606Z" fill="#AEC0E6"/>
<path opacity="0.49" d="M388.622 153.368C391.709 153.368 394.595 154.28 397.036 155.807C400.103 147.815 407.953 142.064 417.134 142.064C420.686 142.064 424.056 142.937 427.002 144.464C430.916 131.771 442.943 122.47 457.088 122.47C472.424 122.47 485.278 133.417 487.982 147.756C491.513 145.257 495.832 143.75 500.493 143.75C512.297 143.75 521.963 153.249 521.963 164.851C521.963 176.452 512.297 185.952 500.493 185.952C491.796 185.952 484.269 180.796 480.919 173.438C475.148 180.042 466.613 184.266 457.108 184.266C448.411 184.266 440.521 180.756 434.811 175.104C430.937 180.637 424.439 184.266 417.134 184.266C411 184.266 405.451 181.688 401.536 177.583C398.691 181.609 393.969 184.266 388.622 184.266C379.985 184.266 372.902 177.305 372.902 168.817C372.902 160.329 379.985 153.368 388.622 153.368Z" fill="#F0F7FF"/>
<path d="M555.681 209.453C558.445 209.255 560.645 207.014 560.685 204.217C560.705 201.302 558.324 198.902 555.358 198.863L49.3751 194.539C46.429 194.52 43.9672 196.86 43.9269 199.775C43.9067 202.69 46.2878 205.09 49.2541 205.13L555.237 209.453C555.378 209.453 555.54 209.453 555.681 209.453Z" fill="#212842"/>
<path d="M555.218 255.225C557.982 255.027 560.182 252.786 560.222 249.989C560.242 247.074 557.861 244.674 554.895 244.635L23.3654 240.054C20.3991 240.014 17.9575 242.374 17.9171 245.289C17.8969 248.204 20.2781 250.604 23.2443 250.644L557.457 255.225C557.599 255.225 555.056 255.225 555.197 255.225H555.218Z" fill="#212842"/>
<path d="M351.413 249.93L371.894 207.509L389.288 246.043L392.295 244.734L371.995 199.795L351.211 242.83L328.49 201.679L306.797 241.818L281.695 201.48L258.429 240.906L233.912 200.152L210.585 240.946L185.523 201.143L157.656 242.79L135.5 198.268L106.906 244.734L109.711 246.4L135.197 204.991L157.232 249.295L185.422 207.132L210.706 247.292L233.972 206.597L258.449 247.272L281.755 207.767L306.999 248.303L328.53 208.501L351.413 249.93Z" fill="#212842"/>
<path d="M48.4268 204.495L62.9353 244.635L86.2014 203.96L110.678 244.635L133.985 205.13L156.525 245.666L156.323 239.161L134.994 198.565L110.638 238.249L86.1208 197.514L62.794 238.308L48.5075 198.506" fill="#212842"/>
<path d="M552.494 251.536L555.541 250.307L536.129 204.039L515.325 244.516L492.563 203.285L470.871 243.425L447.201 205.387L444.396 207.073L471.073 249.91L492.604 210.107L515.446 251.457L535.827 211.773L552.494 251.536Z" fill="#212842"/>
<path d="M385.494 647.261V169.59C385.494 168.519 385.817 167.468 386.442 166.596L440.784 88.8548C442.116 86.951 444.557 86.118 446.817 86.7923C449.077 87.4864 450.611 89.5291 450.611 91.8495V647.261C450.611 650.176 448.21 652.556 445.223 652.556H390.882C387.916 652.556 385.494 650.196 385.494 647.261ZM439.836 108.905L396.27 171.236V641.966H439.836V108.905Z" fill="#212842"/>
<path d="M416.712 609.243L390.479 579.892L416.934 552.346L390.419 524.244L416.873 498.879L390.439 472.939L416.369 444.777L389.894 416.577L417.236 389.05L391.972 362.435L416.792 336.396L390.439 310.198L416.611 282.394L390.439 253.558L416.833 228.313L390.197 202.511L415.118 185.495L389.753 169.392L390.136 169.174C389.914 168.936 389.773 168.619 389.773 168.281C389.773 167.548 390.419 167.092 391.125 166.953H393.869L443.045 137.919L426.014 121.26C425.489 120.744 425.489 119.912 426.014 119.396C426.539 118.88 427.386 118.88 427.911 119.396L447.383 138.454L399.075 166.992L446.798 167.111L419.96 185.436L447.363 202.829L420.687 228.352L447.101 253.935L420.263 282.454L445.466 310.218L420.546 336.376L447.121 362.792L420.969 389.129L446.516 416.041L420.021 444.817L447.101 473.672L420.707 498.978L447.101 524.878L420.626 552.445L447.061 580.467L420.344 609.362L446.859 639.031H389.269L416.732 609.342L416.712 609.243ZM418.508 611.246L395.342 636.294H440.886L418.487 611.246H418.508ZM418.77 554.289L394.132 579.951L418.548 607.26L443.408 580.388L418.79 554.289H418.77ZM418.77 500.743L394.172 524.323L418.77 550.402L443.327 524.839L418.77 500.743ZM418.205 446.721L394.152 472.84L418.79 497.034L443.327 473.514L418.205 446.741V446.721ZM419.073 390.974L393.607 416.616L418.185 442.794L442.843 416.001L419.073 390.954V390.974ZM418.669 338.26L395.645 362.416L419.113 387.146L443.327 362.753L418.689 338.26H418.669ZM418.407 284.357L394.152 310.119L418.629 334.433L441.794 310.119L418.407 284.338V284.357ZM418.75 230.137L394.152 253.658L418.427 280.411L443.327 253.955L418.73 230.137H418.75ZM417.579 187.023L394.414 202.829L418.77 226.428L443.065 203.186L417.579 187.003V187.023ZM395.06 169.59L417.519 183.83L438.242 169.69L395.06 169.57V169.59Z" fill="#212842"/>
<path d="M392.294 203.979H445.203C445.95 203.979 446.555 203.384 446.555 202.651C446.555 201.917 445.95 201.322 445.203 201.322H392.294C391.548 201.322 390.942 201.917 390.942 202.651C390.942 203.384 391.548 203.979 392.294 203.979Z" fill="#212842"/>
<path d="M392.294 255.244H445.203C445.95 255.244 446.555 254.649 446.555 253.916C446.555 253.182 445.95 252.587 445.203 252.587H392.294C391.548 252.587 390.942 253.182 390.942 253.916C390.942 254.649 391.548 255.244 392.294 255.244Z" fill="#212842"/>
<path d="M392.294 311.269H445.203C445.95 311.269 446.555 310.674 446.555 309.94C446.555 309.207 445.95 308.612 445.203 308.612H392.294C391.548 308.612 390.942 309.207 390.942 309.94C390.942 310.674 391.548 311.269 392.294 311.269Z" fill="#212842"/>
<path d="M554.23 206.914L556.833 204.951L446.515 93.5157L443.912 95.4791L554.23 206.914Z" fill="#222625"/>
<path d="M305.647 94.0706C301.067 93.9318 296.748 95.1416 293.076 97.3032C288.919 85.3248 277.558 76.4599 263.978 76.0633C258.711 75.9046 253.707 77.0549 249.247 79.157C244.041 60.2176 226.667 45.899 205.742 45.2644C183.041 44.5703 163.528 60.1978 158.846 81.2989C153.741 77.4317 147.425 75.032 140.524 74.8138C123.049 74.2784 108.299 87.9029 107.754 105.077C107.209 122.252 121.072 136.749 138.547 137.284C151.421 137.681 162.781 130.383 168.108 119.654C176.362 129.689 188.792 136.312 202.856 136.729C215.71 137.126 227.555 132.267 236.272 124.156C241.761 132.505 251.185 138.197 262 138.514C271.081 138.792 279.415 135.222 285.408 129.332C289.423 135.42 296.304 139.545 304.194 139.783C316.988 140.18 327.783 130.204 328.187 117.631C328.59 105.057 318.44 94.4474 305.647 94.0508V94.0706Z" fill="#CFDBF2"/>
<path d="M323.888 337.805C322.113 337.805 320.478 338.32 319.086 339.193C317.33 334.612 312.851 331.339 307.604 331.339C305.566 331.339 303.649 331.835 301.954 332.708C299.714 325.469 292.853 320.154 284.762 320.154C276.004 320.154 268.659 326.401 267.105 334.592C265.087 333.164 262.626 332.311 259.962 332.311C253.222 332.311 247.693 337.745 247.693 344.369C247.693 350.993 253.222 356.427 259.962 356.427C264.926 356.427 269.224 353.472 271.141 349.287C274.45 353.055 279.313 355.475 284.742 355.475C289.706 355.475 294.226 353.472 297.474 350.239C299.694 353.392 303.387 355.475 307.564 355.475C311.075 355.475 314.243 354.007 316.483 351.667C318.117 353.967 320.801 355.475 323.868 355.475C328.812 355.475 332.848 351.508 332.848 346.65C332.848 341.791 328.812 337.824 323.868 337.824L323.888 337.805Z" fill="#F0F7FF"/>
<path fill-rule="evenodd" clip-rule="evenodd" d="M561.854 353.98C562.713 351.992 563.586 349.97 564.566 348.06C566.819 343.404 568.232 338.853 569.628 334.349C570.204 332.492 570.779 330.643 571.408 328.798C572.983 324.155 573.989 319.908 575.027 315.526C575.306 314.346 575.588 313.157 575.883 311.948C576.984 307.431 578.362 298.922 580.02 286.421C580.864 280.061 581.316 274.025 581.377 268.315C581.549 252.892 580.845 237.499 579.268 222.135C578.339 213.084 577.384 206.921 576.406 203.648C571.478 187.134 565.618 170.956 558.824 155.114C557.522 152.082 556.098 149.108 554.55 146.193C553.366 143.967 552.204 141.733 551.041 139.501C546.198 130.196 541.356 120.896 534.987 112.117C532.297 108.413 528.916 104.339 524.843 99.8952C517.696 92.0805 510.432 84.3689 503.052 76.7603C500.074 73.6866 496.854 70.895 493.394 68.3848C484.033 61.5888 474.501 55.0503 464.797 48.7694C449.921 39.1385 433.494 32.0184 416.811 26.2072C416.75 26.1891 414.127 25.1948 408.942 23.2242C405.523 21.9258 402.016 21.2145 398.506 20.5027C395.822 19.9579 393.136 19.413 390.489 18.6049C384.9 16.8891 380.345 15.628 376.823 14.8217C366.413 12.43 356.086 11.8115 344.392 11.1659C324.462 10.0473 305.532 12.2391 285.657 15.6675C285.634 15.6702 285.309 15.7155 284.68 15.8039C283.825 15.9242 282.408 16.124 280.429 16.4038C276.446 16.9601 272.477 18.0845 268.338 19.2572C265.711 20.0014 263.016 20.7651 260.206 21.4147C257.901 21.948 255.443 22.694 252.832 23.6519C251.079 24.289 249.253 24.8672 247.435 25.4426C244.323 26.4275 241.233 27.4053 238.57 28.6623C234.957 30.3724 230.87 32.7862 227.503 34.7745C225.999 35.6627 224.639 36.4659 223.529 37.0836C221.179 38.3877 218.775 39.6563 216.362 40.9299C210.412 44.0696 204.404 47.241 198.995 51.0517C193.241 55.1076 187.457 59.1244 181.642 63.1011C178.574 65.1944 175.636 67.6193 172.584 70.1374C170.955 71.482 169.294 72.8532 167.564 74.2142C157.126 82.4169 147.285 93.7021 138.737 104.697C127.016 119.775 117.853 135.844 108.627 152.322C105.23 158.394 102.928 164.686 100.572 171.124C100.06 172.525 99.5444 173.934 99.015 175.348C96.7098 181.514 94.8877 187.288 93.5487 192.672C90.5037 204.885 87.3762 217.798 86.4315 229.875C85.6244 240.27 84.6981 253.982 85.4685 266.032C85.6376 268.618 85.6741 271.324 85.7111 274.065C85.7703 278.459 85.8307 282.945 86.4407 287.167C87.3762 293.635 88.8773 302.329 90.944 313.248L91.1466 314.073C92.8119 320.85 94.3863 327.257 97.1806 333.891C100.299 341.318 103.298 348.786 106.178 356.299C106.45 356.999 106.874 357.783 107.312 358.592C107.744 359.391 108.189 360.215 108.517 361.01C111.302 367.747 114.562 373.842 118.038 380.34C119.22 382.55 120.428 384.808 121.65 387.155C123.901 391.465 126.212 395.182 128.584 398.304C135.591 407.525 140.801 414.245 144.213 418.465C146.739 421.578 149.845 424.379 152.932 427.163C154.877 428.918 156.814 430.665 158.594 432.479C162.213 436.162 165.526 439.299 168.932 442.526C169.816 443.362 170.705 444.204 171.608 445.065C178.056 451.203 185.522 456.586 192.941 461.497C193.814 462.072 194.721 462.593 195.621 463.11C196.671 463.713 197.711 464.309 198.674 464.98C210.918 473.492 224.703 480.031 238.662 485.242C241.677 486.363 245.391 487.845 249.805 489.688C258.834 493.452 266.504 495.142 277.331 497.529C278.801 497.852 280.328 498.19 281.924 498.546C296.058 501.702 310.778 503.693 325.269 504.212L326.448 504.253C335.363 504.577 343.671 504.878 352.518 503.711C360.711 502.808 368.728 501.398 376.808 499.976C378.089 499.75 379.372 499.525 380.657 499.301C386.967 498.203 392.919 496.839 398.514 495.209C411.574 491.389 426.129 486.96 437.337 481.504C441.44 479.51 446.979 476.402 453.956 472.183C455.104 471.488 456.436 470.751 457.839 469.973C460.257 468.633 462.888 467.177 465.164 465.617C468.061 463.632 470.836 461.828 473.535 460.073C478.215 457.031 482.664 454.139 487.121 450.712C500.19 440.227 515.021 427.694 524.348 415.246C525.861 413.227 527.434 411.194 529.004 409.166C531.947 405.364 534.877 401.578 537.372 397.93C545.591 385.922 551.326 374.895 557.458 363.103C558.031 362 558.608 360.89 559.191 359.773C560.128 357.974 560.983 355.994 561.854 353.98ZM409.591 463.252C409.633 463.251 409.674 463.25 409.715 463.247C409.765 463.244 409.817 463.24 409.868 463.234C409.774 463.244 409.681 463.251 409.591 463.252ZM432.605 455.714C429.902 456.501 427.389 456.196 425.066 454.795C421.484 451.677 421.843 448.947 422.311 445.38C422.464 444.224 422.627 442.981 422.672 441.609C422.762 438.713 426.24 438.664 428.826 438.628C429.415 438.62 429.958 438.612 430.403 438.572C430.475 438.566 430.545 438.544 430.607 438.51C430.669 438.474 430.724 438.426 430.766 438.368C430.808 438.31 430.836 438.243 430.85 438.173C430.863 438.103 430.861 438.031 430.844 437.962C430.77 437.68 430.504 437.262 430.22 437.098C429.806 436.857 429.397 436.613 428.99 436.37C424.836 433.888 420.95 431.567 416.022 434.88C411.574 437.871 406.942 441.482 404.457 446.347C404.377 446.503 404.267 446.642 404.133 446.756C403.999 446.87 403.843 446.956 403.676 447.011C403.508 447.064 403.331 447.085 403.155 447.072C403.062 447.064 402.971 447.047 402.882 447.021C402.802 446.998 402.724 446.966 402.65 446.929C397.477 444.264 390.709 443.201 385.096 445.401C381.629 446.765 379.96 450.803 378.905 454.04C378.697 454.689 378.715 455.216 378.96 455.623C379.065 455.8 379.236 455.93 379.436 455.986C379.636 456.042 379.85 456.019 380.033 455.923C382.225 454.768 386.967 452.785 389.223 454.686C396.193 460.561 392.58 471.164 384.289 473.565C381.304 474.427 379.009 472.851 376.729 471.285C376.291 470.984 375.853 470.683 375.411 470.4C375.232 470.289 375.018 470.246 374.81 470.277C374.601 470.309 374.41 470.414 374.273 470.573C374.104 470.767 373.937 470.963 373.768 471.161C371.862 473.383 369.862 475.715 366.963 476.375C360.497 477.867 352.307 474.711 353.344 466.572C353.986 461.57 356.56 458.981 361.066 458.806C362.207 458.763 363.352 459.156 364.42 459.523C365.164 459.78 365.87 460.022 366.514 460.097C367.199 460.175 367.679 459.945 367.954 459.406C368.023 459.269 368.051 459.116 368.037 458.963C368.023 458.811 367.965 458.665 367.871 458.542C363.845 453.313 357.003 448.748 350.234 451.276C347.208 452.404 344.282 454.268 342.393 456.96C342.233 457.187 341.99 457.343 341.715 457.394C341.441 457.445 341.157 457.387 340.925 457.232C340.624 457.033 340.266 456.79 339.864 456.516C337.203 454.707 332.637 451.602 330.286 451.54C324.958 451.403 316.18 454.086 314.016 459.269C313.722 459.961 313.832 460.515 314.346 460.934C314.495 461.055 314.676 461.13 314.869 461.149C315.061 461.169 315.256 461.132 315.428 461.043C319.831 458.76 327.168 459.633 327.837 465.808C328.571 472.51 323.655 476.266 317.666 477.657C313.729 478.567 310.289 477.442 307.348 474.284C306.681 473.561 306.122 472.961 305.67 472.483C305.416 472.218 305.086 472.037 304.726 471.962C304.366 471.887 303.991 471.923 303.652 472.065C298.369 474.284 290.821 474.456 286.923 469.582C282.741 464.353 286.336 457.596 292.022 455.232C293.873 454.46 295.336 455.848 296.769 457.209C298.069 458.444 299.345 459.655 300.864 459.206C301.377 459.054 301.597 458.717 301.524 458.196C301.084 455.023 300.479 452.976 298.131 450.648C292.903 445.47 286.608 444.589 279.246 448.002C279.044 448.097 278.813 448.112 278.599 448.045C278.385 447.977 278.203 447.832 278.091 447.638C275.018 442.273 264.269 436.635 258.106 437.299C253.547 437.799 248.971 439.718 248.888 444.956C248.885 445.116 248.926 445.274 249.007 445.412C249.088 445.551 249.206 445.666 249.347 445.743C249.42 445.783 249.498 445.813 249.579 445.831C249.654 445.849 249.732 445.856 249.81 445.853C249.971 445.847 250.128 445.798 250.264 445.71C252.896 444.001 257.253 446.183 259.784 447.466C265.058 455.896 257.253 459.124 250.567 460.088C249.894 460.185 249.255 460.072 248.65 459.751L248.619 459.735C244.697 457.677 241.279 455.885 239.322 451.703C239.172 451.387 238.922 451.129 238.611 450.967C238.299 450.807 237.943 450.751 237.598 450.812C237.061 450.903 236.526 451.002 235.991 451.1C232.537 451.736 229.127 452.364 225.592 450.994C222.685 449.875 223.474 441.727 224.116 439.445C224.574 437.831 225.434 436.665 226.693 435.944C230.344 433.844 233.163 435.007 236.421 436.352C237.002 436.592 237.596 436.837 238.212 437.071C238.315 437.111 238.423 437.135 238.533 437.143C238.608 437.148 238.684 437.145 238.759 437.134C238.943 437.107 239.118 437.032 239.264 436.917C239.337 436.862 239.4 436.797 239.455 436.727C239.514 436.651 239.562 436.567 239.598 436.479C239.63 436.402 239.652 436.322 239.666 436.239C239.682 436.139 239.684 436.036 239.671 435.934C238.194 425.013 228.683 421.593 218.86 422.429C218.573 422.455 218.286 422.379 218.051 422.214C217.816 422.049 217.647 421.806 217.576 421.53C217.424 420.928 217.29 420.317 217.155 419.707C216.77 417.959 216.387 416.219 215.604 414.709C211.688 407.143 203.397 405.615 195.656 407.852C195.344 407.937 195.149 408.134 195.069 408.443C194.822 409.417 195.363 410.035 196.307 410.335C199.508 411.354 202.443 412.39 203.085 416.037C203.794 420.105 202.452 423.212 199.059 425.358C191.006 430.441 180.661 423.584 180.927 414.464C180.93 414.341 180.898 414.222 180.837 414.118C180.815 414.083 180.79 414.049 180.762 414.017C180.651 413.895 180.496 413.821 180.33 413.808C177.352 413.621 174.717 412.966 172.424 411.845C166.591 408.989 164.702 398.704 169.655 394.639C174.378 390.756 184.146 392.884 184.201 400.059C184.213 401.496 184.84 401.844 186.081 401.105L186.631 400.768C188.019 399.938 188.789 398.722 188.943 397.122C189.463 391.641 187.487 386.882 183.018 382.844C180.046 381.062 176.481 379.894 172.324 379.343C172.182 379.322 172.055 379.248 171.967 379.137C171.88 379.024 171.84 378.883 171.856 378.743C173.112 366.339 167.261 355.517 153.311 356.444C152.663 356.486 152.394 356.826 152.504 357.462C152.524 357.563 152.602 357.678 152.738 357.809C152.849 357.914 152.997 358.029 153.182 358.154C156.778 360.537 160.208 363.492 157.979 368.267C156.548 371.34 154.705 374.058 150.954 374.05C145.347 374.032 141.81 371.449 140.342 366.302C139.975 365.016 139.752 362.44 139.673 358.572C139.669 358.41 139.629 358.27 139.552 358.152C139.482 358.047 139.381 357.959 139.251 357.89C134.482 355.38 127.667 350.915 131.904 344.503C133.656 341.858 136.857 338.966 140.14 338.657C143.69 338.32 146.597 341.158 147.514 344.377C147.564 344.56 147.584 344.741 147.574 344.922C147.567 345.053 147.544 345.183 147.505 345.313C147.242 346.235 147.184 347.205 147.331 348.224C147.359 348.409 147.443 348.581 147.573 348.718C147.702 348.856 147.87 348.951 148.055 348.991C148.24 349.031 148.432 349.015 148.608 348.945C148.783 348.875 148.933 348.753 149.037 348.595C151.819 344.328 153.155 339.763 153.045 334.9C152.926 329.599 145.304 324.388 140.544 322.069C140.407 322 140.297 321.89 140.229 321.754C140.161 321.617 140.14 321.464 140.168 321.314C141.681 313.667 143.818 302.407 137.224 296.297C135.527 294.724 129.887 291.914 127.722 293.705C127.565 293.834 127.437 293.994 127.347 294.176C127.257 294.357 127.207 294.556 127.2 294.758C127.197 294.858 127.204 294.959 127.222 295.059C127.24 295.158 127.268 295.254 127.307 295.348C127.384 295.534 127.501 295.703 127.649 295.842C127.768 295.954 127.892 296.071 128.022 296.191C129.686 297.742 132.073 299.967 131.886 302.272C131.299 309.556 124.081 314.684 118.431 307.383C114.79 302.671 115.441 299.452 117.175 294.36C117.224 294.216 117.243 294.065 117.23 293.915C117.217 293.764 117.174 293.618 117.101 293.487C116.679 292.718 116.145 291.952 115.6 291.169C114.105 289.026 112.52 286.751 112.882 283.92C113.579 278.491 117.753 274.216 123.457 275.763C125.783 276.387 126.687 279.501 127.345 281.769C127.435 282.077 127.519 282.369 127.603 282.638C128.043 284.039 127.63 285.012 126.695 286.012C126.628 286.084 126.576 286.169 126.542 286.262C126.508 286.355 126.494 286.453 126.499 286.552C126.504 286.651 126.529 286.749 126.572 286.839C126.615 286.928 126.675 287.009 126.75 287.076C130.749 290.659 135.637 280.283 136.49 277.846C138.407 272.335 134.142 266.405 130.73 262.686C130.504 262.443 130.486 262.185 130.675 261.913C136.16 254.265 138.838 246.498 135.279 237.305C133.494 232.691 130.263 231.251 125.585 232.985C125.362 233.066 125.163 233.202 125.005 233.378C124.91 233.484 124.831 233.605 124.772 233.734C124.733 233.818 124.702 233.906 124.681 233.997C124.655 234.103 124.642 234.209 124.641 234.317C124.64 234.445 124.655 234.572 124.688 234.697C124.748 234.927 124.864 235.138 125.026 235.313C125.399 235.713 125.851 235.992 126.383 236.15C126.719 236.253 126.961 236.468 127.108 236.796C128.227 239.333 128.19 241.715 126.255 243.925C121.357 249.509 115.762 247.354 113.057 241.37C109.786 234.157 112.446 231.056 116.545 226.282C116.848 225.928 117.16 225.566 117.477 225.192C117.698 224.931 117.719 224.652 117.542 224.355C116.264 222.214 115.273 219.972 114.57 217.625C113.959 215.6 113.949 213.76 114.542 212.106C118.046 202.356 129.703 206.404 132.17 213.969C132.74 215.723 130.331 218.478 128.981 220.023C128.853 220.168 128.735 220.304 128.63 220.427C128.444 220.643 128.315 220.901 128.255 221.18C128.195 221.458 128.206 221.746 128.286 222.019C128.366 222.293 128.513 222.542 128.714 222.745C128.84 222.872 128.985 222.978 129.143 223.061C129.237 223.11 129.335 223.15 129.437 223.182C130.11 223.388 130.892 223.251 131.785 222.773C141.443 217.571 143.809 207.65 139.242 198.028C139.11 197.748 139.097 197.428 139.203 197.138C139.254 197.001 139.329 196.876 139.425 196.768C139.531 196.649 139.662 196.55 139.81 196.481C146.68 193.298 150.119 186.606 150.458 179.44C150.605 176.339 149.385 173.666 147.863 171.036C147.793 170.916 147.688 170.816 147.561 170.754C147.435 170.691 147.292 170.667 147.152 170.685C147.012 170.702 146.88 170.76 146.773 170.852C146.666 170.944 146.589 171.066 146.551 171.201C145.543 174.875 143.24 177.645 139.645 179.513C136.49 181.15 134.482 179.885 131.62 177.64C123.943 171.592 132.308 162.635 138.847 160.67C138.904 160.653 138.957 160.624 139.002 160.586C139.047 160.548 139.084 160.501 139.111 160.448C139.137 160.396 139.153 160.338 139.156 160.279C139.16 160.22 139.152 160.161 139.132 160.106C137.517 155.687 136.298 148.929 141.856 146.483C145.708 144.786 149.343 145.029 152.761 147.211C155.824 149.157 155.585 154.95 155.246 157.806C155.103 159.07 153.716 160.279 152.587 161.264C152.272 161.54 151.976 161.797 151.733 162.034C151.622 162.143 151.544 162.279 151.507 162.429C151.471 162.579 151.477 162.736 151.526 162.883C151.574 163.029 151.663 163.159 151.783 163.258C151.902 163.359 152.047 163.422 152.201 163.444C156.75 164.062 163.079 159.424 165.784 156.123C169.453 151.649 169.068 146.457 167.912 141.155C167.897 141.087 167.888 141.02 167.887 140.952C167.884 140.872 167.891 140.791 167.908 140.711C167.938 140.565 167.999 140.426 168.088 140.304C168.176 140.183 168.289 140.08 168.42 140.004C168.551 139.928 168.697 139.88 168.848 139.863C173.406 139.363 178.946 138.336 181.88 134.653C183.593 132.518 184.501 130.157 184.604 127.568C184.724 124.458 184.669 119.966 183.256 118.284C182.034 116.822 181.431 117.04 181.449 118.937C181.504 124.195 174.543 128.713 169.572 126.15C163.965 123.257 162.409 118.705 164.904 112.491C167.052 107.149 171.73 106.649 177.14 106.071L177.405 106.043C177.571 106.027 177.725 105.948 177.834 105.823C177.943 105.698 177.999 105.536 177.992 105.37C177.753 98.131 186.219 90.7741 193.024 95.2665C197.179 98.0217 198.399 102.406 196.096 106.87C195.095 108.818 192.492 109.719 190.383 110.45C190.018 110.576 189.67 110.696 189.346 110.817C189.121 110.9 188.933 111.063 188.823 111.275C188.713 111.488 188.687 111.733 188.75 111.963C188.897 112.496 189.309 112.824 189.988 112.945C196.561 114.115 201.96 112.227 206.185 107.28C208.435 104.649 209.313 101.874 208.817 98.9587C208.784 98.766 208.794 98.5688 208.845 98.3801C208.896 98.1914 208.988 98.0164 209.115 97.8668C209.241 97.7172 209.399 97.5964 209.578 97.5134C209.756 97.4303 209.95 97.3863 210.147 97.3854C210.866 97.3841 211.634 97.4005 212.431 97.4174C216.921 97.5134 222.352 97.6292 225.436 94.7025C229.289 91.0379 230.747 86.6543 228.867 81.3894C228.765 81.1052 228.576 80.8574 228.326 80.6798C227.47 80.0795 226.806 80.2859 226.335 81.2984C225.59 82.9106 224.849 84.5234 224.116 86.1361C223.576 87.3311 222.655 87.3635 221.717 87.3964C221.441 87.4061 221.165 87.4158 220.896 87.4549C219.294 87.6849 218.148 87.4971 217.457 86.891C213.158 83.0959 212.016 78.5395 214.027 73.2226C215.531 69.2671 224.501 68.4665 227.959 68.7032C228.289 68.7276 228.475 68.5789 228.518 68.2574C229.802 59.5546 241.202 53.3892 246.439 62.7105C247.919 65.3413 248.005 68.4909 246.696 72.1587C245.449 75.6568 242.303 76.6271 237.259 75.0689C236.109 74.7173 235.69 75.1173 236.002 76.2691L236.158 76.8602C236.452 77.9636 237.151 78.6763 238.258 78.9973C247.76 81.8077 258.684 78.2424 262.297 68.5305C262.407 68.2209 262.615 68.133 262.921 68.2667C269.075 71.0037 275.147 72.4136 280.851 68.6397C283.481 66.8995 285.122 64.3534 285.776 61.0004C285.826 60.7442 285.823 60.4813 285.77 60.2269C285.717 59.9725 285.612 59.7318 285.465 59.5182C284.926 58.7482 284.309 58.4876 283.612 58.7362C283.275 58.8574 282.86 59.2425 282.365 59.8912C280.298 62.607 277.396 63.3103 273.661 62.0009C272.75 61.6856 272.166 61.2007 271.909 60.5457C270.515 56.9627 269.451 51.8066 272.001 48.4781C275.92 43.3552 281.227 42.0941 287.923 44.6953C288.204 44.8041 288.47 44.7681 288.721 44.5861C289.227 44.2144 289.734 43.8236 290.245 43.4298C293.947 40.5777 297.844 37.5756 302.881 40.6119C307.112 43.1522 308.528 47.2019 307.128 52.7612C305.853 57.8633 299.781 58.3815 295.911 56.2537C295.725 56.1524 295.507 56.1266 295.302 56.1808C295.097 56.2349 294.921 56.3651 294.81 56.5445C293.169 59.1998 297.397 61.9098 299.323 62.7646C300.552 63.3103 302.273 63.6225 304.487 63.7015L304.638 63.7069C309 63.8587 311.83 63.9572 315.557 61.6736L321.683 56.9264C321.902 56.7545 322.171 56.6586 322.452 56.6537C322.732 56.6488 323.006 56.735 323.233 56.8993C326.994 59.6727 331.864 62.3738 336.697 62.0466C340.923 61.7615 345.578 59.8668 350.666 56.3629C351.607 55.7199 351.684 54.9833 350.895 54.1529L350.666 53.9162C350.457 53.6977 350.18 53.5557 349.88 53.5143C349.581 53.473 349.274 53.5348 349.015 53.6888C346.22 55.3318 343.475 55.0503 340.779 52.8435C339.329 51.661 338.593 50.3457 338.568 48.8963C338.495 43.7553 340.696 39.9481 345.172 37.4748C345.881 37.0867 347.495 37.0289 350.014 37.3016C353.218 37.6475 355.428 39.2478 356.645 42.1034C356.691 42.2091 356.764 42.302 356.856 42.3721C356.948 42.4423 357.057 42.4876 357.172 42.5039C357.287 42.5204 357.405 42.507 357.513 42.4657C357.621 42.4244 357.718 42.3561 357.792 42.2673C361.956 37.2745 369.577 36.7199 374.044 41.6124C378.703 46.6957 375.456 54.8256 369.082 56.4082C368.758 56.4868 368.458 56.4326 368.183 56.2443L365.34 54.3074C365.157 54.1849 364.948 54.1071 364.728 54.081C364.509 54.0548 364.287 54.0805 364.081 54.156C363.874 54.2315 363.689 54.355 363.542 54.5156C363.434 54.6324 363.349 54.7665 363.288 54.9118C363.265 54.9663 363.246 55.0227 363.231 55.0805C361.341 62.0009 372.375 65.7383 377.41 65.8658C380.996 65.9474 384.188 64.1744 387.049 62.1647C387.082 62.1412 387.12 62.1256 387.159 62.1194C387.2 62.1132 387.241 62.1167 387.279 62.1287C387.302 62.1363 387.325 62.1474 387.346 62.1615C387.358 62.1705 387.37 62.1802 387.381 62.1909C387.41 62.2193 387.431 62.2539 387.444 62.2921C390.036 69.8581 395.441 73.2106 403.659 72.3497C407.114 71.986 409.749 70.4309 411.565 67.6846C411.619 67.6015 411.65 67.5056 411.653 67.4066C411.657 67.3075 411.633 67.2099 411.584 67.1242C411.537 67.0384 411.465 66.9683 411.379 66.9208C411.293 66.8737 411.195 66.8516 411.097 66.8568L410.828 66.8688C407.618 67.0189 405.908 67.0984 404.64 63.6651C399.789 50.5882 420.443 46.2956 423.057 58.6999C423.087 58.8494 423.15 58.9907 423.24 59.1142C423.33 59.2376 423.447 59.3402 423.581 59.4152C423.715 59.4902 423.863 59.5359 424.017 59.5489C424.17 59.5621 424.324 59.5422 424.469 59.4911C432.394 56.7266 440.547 61.5009 438.777 70.4127C437.08 78.9702 422.277 79.7251 424.433 72.4864C424.443 72.4504 424.45 72.414 424.454 72.3771C424.457 72.3336 424.457 72.2896 424.45 72.2462C424.438 72.1658 424.41 72.0889 424.365 72.0205C424.321 71.9523 424.262 71.8945 424.192 71.8509C424.124 71.807 424.046 71.779 423.965 71.7679L423.727 71.7315C422.993 71.6342 422.519 71.9375 422.305 72.6409C419.021 83.5443 432.577 89.9558 441.556 88.4372C441.835 88.3888 442.148 88.2387 442.472 88.0832C442.821 87.9167 443.181 87.7436 443.528 87.6823C443.87 87.6153 444.069 87.7547 444.124 88.1006C445.261 95.3997 449.114 100.423 455.68 103.169C458.909 104.524 461.495 104.279 464.366 102.487C464.758 102.238 464.978 101.926 465.026 101.551C465.063 101.223 464.919 101.056 464.595 101.05C458.303 100.896 457.304 95.5937 459.734 90.8834C462.073 86.3817 467.09 85.0447 471.978 85.4723C477.658 85.9679 478.306 89.1654 479.172 93.4348C479.274 93.9433 479.381 94.4668 479.499 95.0027C479.596 95.4423 479.825 95.8428 480.155 96.1524C480.485 96.4623 480.902 96.6665 481.352 96.7398L481.365 96.7425C486.445 97.5599 493.467 98.6914 493.779 105.197C493.865 106.949 493.259 108.677 491.963 110.381C487.634 116.074 479.82 120.621 476.674 110.272C476.24 108.853 475.69 108.808 475.023 110.135L474.299 111.581C473.699 112.777 473.525 114.136 473.803 115.437C475.959 125.44 481.553 128.522 491.055 130.369C491.374 130.429 491.535 130.62 491.541 130.942C491.556 131.708 491.536 132.651 491.513 133.692C491.425 137.706 491.305 143.175 493.082 145.529C497.136 150.903 503.877 152.286 510.261 151.276C510.591 151.221 510.845 151.106 511.022 150.931C511.064 150.888 511.094 150.837 511.112 150.78C511.128 150.722 511.13 150.662 511.117 150.605C511.111 150.574 511.1 150.544 511.085 150.517C511.072 150.492 511.057 150.469 511.038 150.448C510.999 150.403 510.949 150.369 510.893 150.348C507.537 149.121 502.456 146.41 502.401 142.346C502.327 136.962 506.363 134.043 511.526 134.234C516.124 134.403 519.551 136.771 521.808 141.337C522.608 142.961 522.883 144.552 522.633 146.111C522.164 149.03 524.318 150.186 526.458 151.335C526.871 151.557 527.284 151.778 527.677 152.013C531.548 154.323 534.327 157.251 533.667 162.044C531.933 174.593 512.838 171.81 515.057 162.907C515.748 160.137 515.137 159.816 513.223 161.943C512.544 162.695 512.083 164.196 511.838 166.445C511.022 173.857 512.911 184.26 522.312 184.897C522.492 184.908 522.665 184.966 522.817 185.061C522.97 185.158 523.095 185.289 523.182 185.446C523.234 185.537 523.27 185.634 523.292 185.734C523.309 185.807 523.318 185.881 523.318 185.957C523.32 186.135 523.277 186.312 523.193 186.47C519.735 192.844 523.165 207.249 531.566 208.332C532.624 208.464 532.878 208.08 532.327 207.177C532.192 206.953 532.042 206.716 531.886 206.469C531.314 205.566 530.667 204.543 530.392 203.621C528.439 197.037 534.822 192.172 541.004 192.635C543.517 192.826 546.562 196.364 548.066 198.91C550.35 202.757 550.799 208.632 546.589 211.369C546.499 211.426 546.424 211.505 546.371 211.599C546.319 211.692 546.289 211.795 546.287 211.902C546.285 211.969 546.294 212.035 546.311 212.097C546.322 212.136 546.337 212.174 546.355 212.21C546.393 212.285 546.444 212.351 546.505 212.406C546.523 212.421 546.542 212.437 546.562 212.451L546.659 212.521C552.313 216.602 553.97 217.798 553.523 225.746C553.165 232.049 547.864 234.713 541.848 233.158C538.686 232.34 536.43 230.253 535.079 226.901C534.216 224.763 535.058 223.225 535.976 221.547C536.171 221.191 536.369 220.829 536.556 220.454C536.586 220.393 536.6 220.326 536.594 220.257C536.59 220.216 536.58 220.176 536.564 220.138C536.554 220.115 536.541 220.092 536.525 220.07C536.486 220.015 536.432 219.972 536.369 219.945C536.336 219.93 536.301 219.921 536.265 219.916C536.234 219.913 536.202 219.913 536.17 219.916C533.355 220.217 530.832 226.037 530.145 228.284C528.127 234.913 533.19 241.861 538.527 245.361C538.588 245.401 538.638 245.455 538.675 245.518C538.712 245.581 538.733 245.651 538.737 245.724C538.742 245.797 538.729 245.87 538.701 245.939C538.672 246.007 538.628 246.068 538.573 246.117L538.029 246.587C535.735 248.566 533.179 250.77 532.126 253.474C530.823 256.82 530.301 261.222 531.621 264.841C532.548 267.388 537.06 274.153 540.435 273.343C540.594 273.305 540.741 273.23 540.866 273.126C540.99 273.02 541.088 272.888 541.151 272.738C541.215 272.588 541.242 272.427 541.23 272.265C541.219 272.103 541.17 271.946 541.086 271.807C540.932 271.555 540.777 271.304 540.623 271.055C538.603 267.796 536.707 264.737 539.775 261.113C542.93 257.384 548.323 256.493 552.312 259.349C557.036 262.731 556.605 268.979 555.88 274.208C555.544 276.625 554.01 277.9 552.394 279.242C552.113 279.476 551.831 279.711 551.551 279.955C551.268 280.206 551.075 280.543 551.004 280.915C550.932 281.286 550.986 281.671 551.157 282.011C553.532 286.749 555.064 291.15 552.331 296.188C550.102 300.317 540.591 300.053 537.62 297.025C532.841 292.15 533.657 288.586 538.17 284.12C538.24 284.049 538.287 283.958 538.306 283.859C538.325 283.761 538.314 283.66 538.274 283.567C538.235 283.476 538.17 283.397 538.086 283.342C538.002 283.286 537.904 283.256 537.803 283.256C537.216 283.262 536.611 283.447 535.987 283.811C526.1 289.613 526.522 299.362 529.539 309.047C529.613 309.288 529.603 309.547 529.512 309.783C529.42 310.018 529.252 310.216 529.035 310.346C523.495 313.703 517.873 320.569 519.285 327.408C520.038 331.021 521.808 334.161 524.596 336.829C524.81 337.029 525.045 337.123 525.302 337.111C525.361 337.109 525.418 337.094 525.471 337.067C525.523 337.039 525.567 337 525.601 336.952C525.635 336.904 525.657 336.849 525.666 336.792C525.674 336.734 525.669 336.675 525.651 336.62L525.611 336.496C524.733 333.771 523.845 331.012 525.742 328.235C529.032 323.409 533.41 322.393 538.876 325.189C541.736 326.64 541.639 332.518 541.589 335.586L541.582 336.091C541.527 340.366 537.876 343.658 534.382 345.514C534.038 345.695 533.749 345.965 533.545 346.297C533.342 346.628 533.232 347.008 533.226 347.396C533.22 347.986 533.22 348.57 533.221 349.149C533.224 352.499 533.227 355.7 531.805 359.017C526.916 370.413 512.416 360.3 514.791 351.561C515.409 349.306 516.892 347.617 519.24 346.495C519.6 346.319 519.824 346.119 519.909 345.895C520.007 345.616 519.952 345.364 519.744 345.141C519.604 344.989 519.386 344.901 519.093 344.877C514.966 344.465 511.676 345.783 509.224 348.833C505.042 354.015 503.641 359.985 505.024 366.739C505.085 367.03 504.969 367.205 504.675 367.266C497.393 368.721 493.275 371.377 489.845 378.27C488.035 381.907 487.598 385.805 488.533 389.965C488.71 390.765 489.129 391.241 489.79 391.392C489.881 391.412 489.977 391.42 490.07 391.412C490.108 391.411 490.146 391.405 490.184 391.398C490.236 391.388 490.288 391.373 490.336 391.355C490.41 391.327 490.481 391.29 490.545 391.244C490.654 391.169 490.744 391.071 490.812 390.96C490.852 390.893 490.882 390.823 490.904 390.749C490.919 390.698 490.93 390.646 490.936 390.592C491.275 387.764 494.036 381.134 497.87 381.425C504.602 381.953 508.848 386.782 508.032 393.338C507.252 399.586 501.474 404.06 495.522 404.923C495.25 404.964 494.999 405.087 494.802 405.274C494.605 405.462 494.472 405.704 494.421 405.97C493.761 409.644 491.982 415.064 488.285 416.745C480.902 420.12 473.253 414.646 474.372 406.506C474.622 404.683 476.483 403.365 478.165 402.173C478.706 401.79 479.228 401.419 479.673 401.05C479.915 400.846 480.068 400.557 480.101 400.245C480.133 399.933 480.042 399.622 479.848 399.377C479.414 398.825 478.774 398.497 477.931 398.395C469.19 397.312 462.256 406.106 459.964 413.427C459.839 413.821 459.591 414.166 459.255 414.415C458.92 414.662 458.513 414.8 458.092 414.809C447.811 414.945 437.713 419.492 439.804 431.615C439.969 432.584 440.324 432.657 440.868 431.833C450.232 417.628 462.055 434.998 451.553 445.128C447.894 448.648 444.399 447.246 440.501 445.147C440.159 444.965 439.963 445.065 439.914 445.446C439.843 445.95 439.809 446.458 439.776 446.96C439.698 448.131 439.623 449.274 439.071 450.294C437.573 453.095 435.418 454.901 432.605 455.714ZM261.349 448.05C261.33 448.067 261.313 448.083 261.296 448.099C261.302 448.095 261.308 448.089 261.313 448.084C261.324 448.073 261.336 448.061 261.349 448.05ZM216.604 451.139C216.671 451.111 216.745 451.108 216.814 451.129C216.796 451.123 216.775 451.119 216.756 451.117C216.704 451.111 216.652 451.12 216.604 451.139ZM197.288 448.4C197.37 448.366 197.457 448.343 197.546 448.329C197.486 448.338 197.427 448.351 197.37 448.37C197.343 448.379 197.315 448.389 197.288 448.4ZM204.791 463.171C204.535 463.018 204.292 462.841 204.067 462.643C204.231 462.787 204.403 462.919 204.584 463.04C204.652 463.084 204.721 463.129 204.791 463.171Z" fill="white"/>
</g>
<path d="M444.648 93.0548L134.781 202.816L135.89 205.838L445.756 96.0773L444.648 93.0548Z" fill="#222625"/>
<path d="M167.729 246.181L186.616 296.535L201.185 296.316L221.041 247.193L167.729 246.181Z" stroke="#222625" stroke-width="1.14932" stroke-miterlimit="10"/>
<path d="M193.215 312.817C193.841 315.395 194.224 317.953 194.628 320.531C195.032 323.327 194.406 326.461 192.711 328.999C191.783 330.348 191.056 331.201 190.229 332.252L187.747 335.266C186.92 336.278 185.971 337.289 185.487 338.043C184.902 338.876 184.498 339.808 184.236 340.779C183.086 344.667 184.7 349.129 188.312 351.608C191.884 354.067 197.312 354.265 201.771 351.251C200.379 353.512 197.937 355.257 195.092 356.01C192.267 356.724 189.059 356.466 186.274 355.138C183.489 353.829 181.149 351.489 179.857 348.613C178.545 345.757 178.283 342.445 179.151 339.411C179.595 337.904 180.261 336.436 181.189 335.167C182.218 333.818 183.106 332.966 183.994 332.034L186.738 329.257C187.606 328.365 188.716 327.353 189.381 326.639C190.794 325.013 191.803 322.951 192.025 320.591C192.348 318.013 192.65 315.415 193.195 312.836L193.215 312.817Z" fill="#222625"/>
<path d="M190.187 354.126C186.555 351.687 183.346 344.686 184.476 340.799C185.001 338.757 186.131 337.428 187.988 335.286L190.449 332.272C191.297 331.221 192.023 330.388 192.952 329.019C194.626 326.481 195.272 323.347 194.869 320.551C194.465 317.973 194.082 315.395 193.456 312.836C192.911 315.434 192.609 318.013 192.286 320.591C192.064 322.951 191.055 325.013 189.642 326.639L184.254 332.034C183.346 332.966 182.479 333.819 181.45 335.167C180.501 336.436 179.835 337.904 179.412 339.411C178.544 342.445 178.806 345.777 180.118 348.613C181.429 351.469 183.75 353.829 186.535 355.138L188.694 354.662L189.299 354.166L190.207 354.107L190.187 354.126Z" fill="#222625"/>
<path d="M185.486 319.52L201.73 319.262L204.071 295.523L182.439 295.761L185.486 319.52Z" fill="#DDAC00"/>
<mask id="mask1_1549_3713" style="mask-type:luminance" maskUnits="userSpaceOnUse" x="35" y="177" width="124" height="106">
<path d="M116.561 177.412H158.254L150.221 282.745C150.221 282.745 71.0093 281.697 66.6003 282.745C62.1912 283.794 35.0479 255.868 35.0479 255.868L63.5001 177.432H116.561V177.412Z" fill="white"/>
</mask>
<g mask="url(#mask1_1549_3713)">
<path d="M555.879 209.453C558.534 209.255 560.647 207.014 560.686 204.218C560.705 201.302 558.418 198.903 555.568 198.863L69.516 194.54C66.6859 194.52 64.3211 196.86 64.2823 199.775C64.263 202.69 66.5502 205.09 69.3997 205.13L555.452 209.453C555.588 209.453 555.743 209.453 555.879 209.453Z" fill="#212842"/>
<path d="M555.433 255.225C558.089 255.027 560.202 252.786 560.241 249.99C560.26 247.074 557.973 244.675 555.123 244.635L44.5307 240.054C41.6812 240.014 39.3358 242.374 39.297 245.289C39.2776 248.205 41.5649 250.604 44.4144 250.644L557.585 255.225C557.721 255.225 555.278 255.225 555.414 255.225H555.433Z" fill="#212842"/>
<path d="M57.5654 245.2H61.77L85.5447 204.288L110.557 245.2L134.797 205.465L156.13 246.238L157.405 241.139L135.404 198.862L109.822 238.59L85.4622 197.805L61.6256 238.837H61.77" fill="#212842"/>
</g>
</svg>
