<svg width="51" height="256" viewBox="0 0 51 256" fill="none" xmlns="http://www.w3.org/2000/svg">
<path fill-rule="evenodd" clip-rule="evenodd" d="M16.1195 -68.4383L33.8435 -86.3817L27.6358 -92.5134L6.82395 -71.4439L3.73604 -68.3177L6.88422 -65.2523L20.896 -51.6087L8.20379 -38.8928L5.10562 -35.7888L8.2257 -32.7069L28.1247 -13.0512L34.2565 -19.2589L17.4775 -35.8326L27.1479 -45.521L48.9016 -24.3389L35.4591 -11.173L32.2903 -8.0694L35.4459 -4.95236L48.838 8.27591L26.0316 31.3887L14.9231 20.5722L32.6471 2.62876L26.4394 -3.50299L5.62755 17.5666L2.53964 20.6927L5.68781 23.7581L19.9029 37.5997L6.81764 50.8609L3.75338 53.9663L6.85881 57.0306L26.5404 76.4512L32.669 70.2404L16.0928 53.884L26.1545 43.687L47.7052 64.6715L34.2627 77.8374L31.0939 80.9411L34.2495 84.0581L47.7228 97.3666L24.5204 120.472L13.5215 109.762L31.2454 91.8188L25.0378 85.6871L4.22589 106.757L1.13798 109.883L4.28615 112.948L18.3369 126.63L5.61507 139.298L2.4981 142.402L5.62764 145.494L25.5267 165.149L31.6584 158.942L14.8889 142.377L24.5891 132.718L46.073 153.637L32.8083 167.08L29.7456 170.184L32.8478 173.248L47.0811 187.307L24.4316 209.999L13.4905 199.346L31.2145 181.402L25.0068 175.27L4.19494 196.34L1.10703 199.466L4.2552 202.532L18.267 216.175L5.57478 228.891L2.47661 231.995L5.59669 235.077L25.4957 254.733L31.6275 248.525L14.8485 231.951L24.5189 222.263L46.2726 243.445L32.8301 256.611L29.6613 259.714L32.8169 262.831L46.6365 276.482L23.7822 299.379L12.8411 288.725L30.5651 270.782L24.3574 264.65L3.54554 285.72L0.457633 288.846L3.6058 291.911L17.6176 305.555L4.92538 318.271L1.82721 321.375L4.94729 324.457L24.8463 344.113L30.9781 337.905L14.1991 321.331L23.8695 311.643L45.6232 332.825L32.1807 345.991L29.0119 349.094L32.1675 352.211L45.936 365.811L23.7822 388.007L12.8411 377.353L30.5651 359.41L24.3574 353.278L3.54554 374.347L0.457633 377.474L3.6058 380.539L17.6176 394.183L4.92538 406.899L1.82721 410.003L4.94729 413.084L24.8463 432.74L30.9781 426.532L14.1991 409.959L23.8695 400.27L45.6232 421.452L32.1807 434.618L29.0119 437.722L32.1675 440.839L47.7207 456.202L23.7822 480.185L12.8411 469.532L30.5651 451.588L24.3574 445.457L3.54554 466.526L0.457632 469.652L3.6058 472.718L17.6176 486.361L4.92538 499.077L1.82721 502.181L4.94729 505.263L24.8463 524.919L30.9781 518.711L14.1991 502.137L23.8695 492.449L45.6232 513.631L32.1807 526.797L29.0119 529.901L32.1675 533.018L48.8476 549.494L51.9514 552.559L55.0173 549.456L71.4933 532.776L74.5813 529.649L71.4331 526.584L58.1118 513.613L80.6032 491.584L90.6015 501.645L74.2291 518.468L80.482 524.553L99.8468 504.656L102.839 501.582L99.8149 498.538L86.837 485.479L100.445 472.15L103.57 469.09L100.502 465.973L80.0139 445.158L73.7953 451.278L91.2153 468.977L80.6864 479.289L56.9088 455.362L71.4934 440.597L74.5813 437.471L71.4331 434.405L58.1118 421.434L80.6032 399.406L90.6015 409.467L74.2291 426.289L80.482 432.375L99.8468 412.478L102.839 409.403L99.8149 406.36L86.837 393.3L100.445 379.972L103.57 376.912L100.502 373.795L80.0139 352.979L73.7953 359.1L91.2153 376.798L80.6864 387.111L58.6678 364.954L71.4933 351.969L74.5813 348.843L71.4331 345.778L58.1118 332.807L80.6032 310.778L90.6015 320.839L74.2291 337.662L80.482 343.747L99.8468 323.85L102.839 320.775L99.8149 317.732L86.837 304.672L100.445 291.344L103.57 288.284L100.502 285.167L80.0139 264.352L73.7953 270.472L91.2153 288.171L80.6864 298.483L58.6209 276.279L72.1428 262.589L75.2307 259.463L72.0825 256.398L58.7612 243.427L81.2526 221.398L91.2509 231.459L74.8785 248.282L81.1314 254.367L100.496 234.47L103.489 231.395L100.464 228.352L87.4864 215.292L101.095 201.964L104.219 198.904L101.151 195.787L80.6633 174.972L74.4447 181.092L91.8647 198.791L81.3358 209.103L58.8593 186.485L72.1737 173.006L75.2616 169.88L72.1134 166.815L58.4532 153.513L80.8946 130.77L91.3811 141.118L75.1784 157.538L81.3893 163.667L100.656 144.141L103.72 141.035L100.615 137.971L87.0231 124.56L100.421 110.982L103.485 107.876L100.38 104.812L80.5382 85.2338L74.4097 91.4446L91.1457 107.959L80.8123 118.431L59.8324 97.7293L73.5754 83.8161L76.6633 80.69L73.5151 77.6246L60.1938 64.6533L82.6852 42.6247L92.6835 52.6858L76.3111 69.5084L82.564 75.594L101.929 55.6968L104.921 52.6221L101.897 49.5787L88.919 36.5191L102.527 23.1909L105.652 20.1307L102.584 17.0138L82.0959 -3.80168L75.8773 2.31903L93.2973 20.0175L82.7684 30.3298L61.1602 8.58575L74.7718 -5.19432L77.8597 -8.32045L74.7115 -11.3859L61.3902 -24.3572L83.8816 -46.3858L93.8799 -36.3246L77.5075 -19.5021L83.7604 -13.4165L103.125 -33.3137L106.118 -36.3884L103.093 -39.4317L90.1154 -52.4913L103.724 -65.8195L106.848 -68.8797L103.78 -71.9967L83.2923 -92.8121L77.0737 -86.6914L94.4937 -68.9929L83.9648 -58.6806L56.2668 -86.5529L56.0626 -86.35L55.8172 -86.595L27.0606 -57.7847L16.1195 -68.4383ZM33.3125 -51.6971L55.137 -30.446L77.731 -52.5751L56.0079 -74.4348L33.3125 -51.6971ZM55.1548 -18.2501L44.7333 -8.043L55.1539 2.25015L65.4762 -8.19993L55.1548 -18.2501ZM53.9406 58.5644L32.2832 37.476L54.8458 14.6102L76.5346 36.4353L53.9406 58.5644ZM43.5369 80.9674L53.9584 70.7604L64.2798 80.8105L53.9575 91.2606L43.5369 80.9674ZM52.508 237.338L30.6835 216.087L53.3789 193.349L75.102 215.209L52.508 237.338ZM42.1043 259.741L52.5258 249.534L62.8472 259.584L52.5249 270.034L42.1043 259.741ZM53.5951 103.833L74.6838 124.642L52.2017 147.426L30.7725 126.56L53.5951 103.833ZM42.0818 170.105L52.3246 159.724L62.8781 170.001L52.5558 180.451L42.0818 170.105ZM52.6904 204.943L63.0364 215.163L53.2258 225.095L42.8798 214.876L52.6904 204.943ZM51.8586 326.718L30.0341 305.467L52.7295 282.729L74.4526 304.589L51.8586 326.718ZM41.4549 349.121L51.8764 338.914L62.1978 348.964L51.8755 359.414L41.4549 349.121ZM52.041 294.323L62.387 304.543L52.5764 314.475L42.2304 304.255L52.041 294.323ZM51.8586 415.345L30.0341 394.094L52.7295 371.357L74.4526 393.216L51.8586 415.345ZM41.4549 437.748L51.8764 427.541L62.1978 437.591L51.8755 448.042L41.4549 437.748ZM52.0411 382.951L62.387 393.171L52.5764 403.103L42.2304 392.883L52.0411 382.951ZM51.8586 507.524L30.0341 486.273L52.7295 463.535L74.4526 485.395L51.8586 507.524ZM41.4549 529.927L51.8764 519.72L62.1978 529.77L51.8755 540.22L41.4549 529.927ZM52.041 475.129L62.387 485.349L52.5764 495.281L42.2304 485.062L52.041 475.129ZM64.4671 36.3899L54.1211 26.1705L44.3105 36.1026L54.6564 46.322L64.4671 36.3899ZM55.3174 -62.8401L65.6634 -52.6207L55.8528 -42.6886L45.5068 -52.908L55.3174 -62.8401ZM63.0697 126.161L52.7238 115.942L42.9131 125.874L53.2591 136.093L63.0697 126.161Z" fill="#E5F1FF"/>
</svg>
