<svg width="51" height="256" viewBox="0 0 51 256" fill="none" xmlns="http://www.w3.org/2000/svg">
<path fill-rule="evenodd" clip-rule="evenodd" d="M16.1195 -68.4381L33.8435 -86.3815L27.6358 -92.5133L6.82394 -71.4437L3.73603 -68.3176L6.8842 -65.2521L20.896 -51.6085L8.20378 -38.8926L5.10561 -35.7886L8.22569 -32.7067L28.1247 -13.0511L34.2565 -19.2587L17.4775 -35.8325L27.1479 -45.5209L48.9016 -24.3388L35.4591 -11.1728L32.2903 -8.06923L35.4459 -4.95219L48.838 8.27608L26.0316 31.3889L14.9231 20.5723L32.6471 2.62893L26.4394 -3.50282L5.62754 17.5667L2.53963 20.6929L5.6878 23.7583L19.9029 37.5999L6.81762 50.861L3.75336 53.9665L6.8588 57.0308L26.5404 76.4514L32.669 70.2405L16.0928 53.8841L26.1545 43.6872L47.7052 64.6717L34.2627 77.8376L31.0939 80.9412L34.2495 84.0583L47.7228 97.3668L24.5204 120.472L13.5215 109.762L31.2454 91.819L25.0377 85.6872L4.22588 106.757L1.13797 109.883L4.28614 112.948L18.3369 126.63L5.61506 139.299L2.49808 142.403L5.62763 145.494L25.5266 165.149L31.6584 158.942L14.8889 142.377L24.589 132.718L46.073 153.637L32.8083 167.08L29.7456 170.184L32.8478 173.248L47.0811 187.307L24.4316 209.999L13.4905 199.346L31.2145 181.402L25.0068 175.271L4.19493 196.34L1.10702 199.466L4.25519 202.532L18.267 216.175L5.57477 228.891L2.47659 231.995L5.59668 235.077L25.4957 254.733L31.6275 248.525L14.8485 231.951L24.5189 222.263L46.2726 243.445L32.8301 256.611L29.6613 259.715L32.8169 262.832L46.6365 276.482L23.7822 299.379L12.8411 288.726L30.5651 270.782L24.3574 264.65L3.54553 285.72L0.45762 288.846L3.60579 291.912L17.6176 305.555L4.92537 318.271L1.82719 321.375L4.94728 324.457L24.8463 344.113L30.9781 337.905L14.1991 321.331L23.8695 311.643L45.6232 332.825L32.1807 345.991L29.0119 349.095L32.1675 352.212L45.936 365.812L23.7822 388.007L12.8411 377.353L30.5651 359.41L24.3574 353.278L3.54553 374.348L0.45762 377.474L3.60579 380.539L17.6176 394.183L4.92537 406.899L1.82719 410.003L4.94728 413.085L24.8463 432.74L30.9781 426.533L14.1991 409.959L23.8695 400.271L45.6232 421.453L32.1807 434.619L29.0119 437.722L32.1675 440.839L47.7207 456.202L23.7822 480.185L12.8411 469.532L30.5651 451.588L24.3574 445.457L3.54553 466.526L0.45762 469.652L3.60579 472.718L17.6176 486.361L4.92537 499.077L1.82719 502.181L4.94728 505.263L24.8463 524.919L30.9781 518.711L14.1991 502.137L23.8695 492.449L45.6232 513.631L32.1807 526.797L29.0119 529.901L32.1675 533.018L48.8476 549.494L51.9514 552.56L55.0173 549.456L71.4933 532.776L74.5812 529.65L71.4331 526.584L58.1118 513.613L80.6032 491.584L90.6015 501.646L74.2291 518.468L80.482 524.554L99.8468 504.656L102.839 501.582L99.8149 498.538L86.837 485.479L100.445 472.151L103.57 469.09L100.502 465.973L80.0139 445.158L73.7953 451.279L91.2153 468.977L80.6863 479.289L56.9088 455.362L71.4933 440.597L74.5812 437.471L71.4331 434.406L58.1118 421.434L80.6032 399.406L90.6015 409.467L74.2291 426.29L80.482 432.375L99.8468 412.478L102.839 409.403L99.8149 406.36L86.837 393.3L100.445 379.972L103.57 376.912L100.502 373.795L80.0139 352.979L73.7953 359.1L91.2153 376.799L80.6863 387.111L58.6678 364.954L71.4933 351.97L74.5812 348.843L71.4331 345.778L58.1118 332.807L80.6032 310.778L90.6015 320.839L74.2291 337.662L80.482 343.747L99.8468 323.85L102.839 320.775L99.8149 317.732L86.837 304.673L100.445 291.344L103.57 288.284L100.502 285.167L80.0139 264.352L73.7953 270.472L91.2153 288.171L80.6863 298.483L58.6208 276.279L72.1427 262.59L75.2307 259.464L72.0825 256.398L58.7612 243.427L81.2526 221.398L91.2509 231.459L74.8785 248.282L81.1314 254.368L100.496 234.47L103.489 231.396L100.464 228.352L87.4864 215.293L101.095 201.964L104.219 198.904L101.151 195.787L80.6633 174.972L74.4447 181.093L91.8647 198.791L81.3358 209.103L58.8593 186.486L72.1737 173.006L75.2616 169.88L72.1134 166.815L58.4532 153.514L80.8946 130.771L91.3811 141.118L75.1784 157.538L81.3893 163.667L100.656 144.141L103.72 141.036L100.615 137.971L87.0231 124.56L100.421 110.982L103.485 107.877L100.38 104.812L80.5382 85.2339L74.4097 91.4448L91.1457 107.959L80.8123 118.431L59.8323 97.7295L73.5754 83.8163L76.6633 80.6902L73.5151 77.6247L60.1938 64.6534L82.6852 42.6248L92.6835 52.686L76.3111 69.5085L82.564 75.5941L101.929 55.6969L104.921 52.6222L101.897 49.5789L88.919 36.5193L102.527 23.1911L105.652 20.1309L102.584 17.0139L82.0959 -3.80151L75.8773 2.3192L93.2973 20.0177L82.7684 30.33L61.1602 8.58591L74.7717 -5.19415L77.8597 -8.32029L74.7115 -11.3857L61.3902 -24.357L83.8816 -46.3856L93.8799 -36.3244L77.5075 -19.5019L83.7604 -13.4163L103.125 -33.3135L106.118 -36.3882L103.093 -39.4316L90.1154 -52.4912L103.724 -65.8193L106.848 -68.8795L103.78 -71.9965L83.2923 -92.812L77.0737 -86.6912L94.4937 -68.9928L83.9648 -58.6805L56.2667 -86.5527L56.0626 -86.3498L55.8172 -86.5948L27.0606 -57.7846L16.1195 -68.4381ZM33.3125 -51.6969L55.137 -30.4459L77.731 -52.5749L56.0079 -74.4347L33.3125 -51.6969ZM55.1548 -18.2499L44.7333 -8.04283L55.1539 2.25032L65.4762 -8.19976L55.1548 -18.2499ZM53.9406 58.5646L32.2831 37.4762L54.8458 14.6103L76.5346 36.4355L53.9406 58.5646ZM43.5369 80.9676L53.9584 70.7605L64.2798 80.8107L53.9575 91.2608L43.5369 80.9676ZM52.508 237.338L30.6835 216.087L53.3789 193.349L75.102 215.209L52.508 237.338ZM42.1043 259.741L52.5258 249.534L62.8472 259.584L52.5249 270.034L42.1043 259.741ZM53.5951 103.833L74.6837 124.642L52.2017 147.426L30.7725 126.56L53.5951 103.833ZM42.0818 170.105L52.3246 159.725L62.8781 170.001L52.5558 180.451L42.0818 170.105ZM52.6904 204.944L63.0364 215.163L53.2257 225.095L42.8798 214.876L52.6904 204.944ZM51.8586 326.718L30.0341 305.467L52.7295 282.729L74.4526 304.589L51.8586 326.718ZM41.4549 349.121L51.8764 338.914L62.1978 348.964L51.8755 359.414L41.4549 349.121ZM52.041 294.323L62.387 304.543L52.5763 314.475L42.2304 304.256L52.041 294.323ZM51.8586 415.346L30.0341 394.094L52.7295 371.357L74.4526 393.216L51.8586 415.346ZM41.4549 437.749L51.8764 427.541L62.1978 437.592L51.8755 448.042L41.4549 437.749ZM52.041 382.951L62.387 393.171L52.5763 403.103L42.2304 392.883L52.041 382.951ZM51.8586 507.524L30.0341 486.273L52.7295 463.535L74.4526 485.395L51.8586 507.524ZM41.4549 529.927L51.8764 519.72L62.1978 529.77L51.8755 540.22L41.4549 529.927ZM52.041 475.13L62.387 485.349L52.5763 495.281L42.2304 485.062L52.041 475.13ZM64.467 36.3901L54.1211 26.1707L44.3104 36.1028L54.6564 46.3222L64.467 36.3901ZM55.3174 -62.84L65.6634 -52.6206L55.8527 -42.6884L45.5068 -52.9079L55.3174 -62.84ZM63.0697 126.161L52.7238 115.942L42.9131 125.874L53.2591 136.093L63.0697 126.161Z" fill="#E5F1FF"/>
</svg>
